  0
SECTION
  2
HEADER
  9
$ACADVER
  1
AC1021
  9
$ACADMAINTVER
 70
    25
  9
$DWGCODEPAGE
  3
ANSI_1252
  9
$INSBASE
 10
0.0
 20
0.0
 30
0.0
  9
$EXTMIN
 10
-2.881232283464567
 20
-4.204838582677166
 30
0.0
  9
$EXTMAX
 10
3.620125984251969
 20
4.529027559055118
 30
0.0
  9
$LIMMIN
 10
0.0
 20
0.0
  9
$LIMMAX
 10
12.0
 20
9.0
  9
$ORTHOMODE
 70
     0
  9
$REGENMODE
 70
     1
  9
$FILLMODE
 70
     1
  9
$QTEXTMODE
 70
     0
  9
$MIRRTEXT
 70
     1
  9
$LTSCALE
 40
1.0
  9
$ATTMODE
 70
     1
  9
$TEXTSIZE
 40
0.2
  9
$TRACEWID
 40
0.05
  9
$TEXTSTYLE
  7
Standard
  9
$CLAYER
  8
0
  9
$CELTYPE
  6
ByLayer
  9
$CECOLOR
 62
   256
  9
$CELTSCALE
 40
1.0
  9
$DISPSILH
 70
     0
  9
$DIMSCALE
 40
1.0
  9
$DIMASZ
 40
0.18
  9
$DIMEXO
 40
0.0625
  9
$DIMDLI
 40
0.38
  9
$DIMRND
 40
0.0
  9
$DIMDLE
 40
0.0
  9
$DIMEXE
 40
0.18
  9
$DIMTP
 40
0.0
  9
$DIMTM
 40
0.0
  9
$DIMTXT
 40
0.18
  9
$DIMCEN
 40
0.09
  9
$DIMTSZ
 40
0.0
  9
$DIMTOL
 70
     0
  9
$DIMLIM
 70
     0
  9
$DIMTIH
 70
     1
  9
$DIMTOH
 70
     1
  9
$DIMSE1
 70
     0
  9
$DIMSE2
 70
     0
  9
$DIMTAD
 70
     0
  9
$DIMZIN
 70
     0
  9
$DIMBLK
  1

  9
$DIMASO
 70
     1
  9
$DIMSHO
 70
     1
  9
$DIMPOST
  1

  9
$DIMAPOST
  1

  9
$DIMALT
 70
     0
  9
$DIMALTD
 70
     2
  9
$DIMALTF
 40
25.4
  9
$DIMLFAC
 40
1.0
  9
$DIMTOFL
 70
     0
  9
$DIMTVP
 40
0.0
  9
$DIMTIX
 70
     0
  9
$DIMSOXD
 70
     0
  9
$DIMSAH
 70
     0
  9
$DIMBLK1
  1

  9
$DIMBLK2
  1

  9
$DIMSTYLE
  2
Standard
  9
$DIMCLRD
 70
     0
  9
$DIMCLRE
 70
     0
  9
$DIMCLRT
 70
     0
  9
$DIMTFAC
 40
1.0
  9
$DIMGAP
 40
0.09
  9
$DIMJUST
 70
     0
  9
$DIMSD1
 70
     0
  9
$DIMSD2
 70
     0
  9
$DIMTOLJ
 70
     1
  9
$DIMTZIN
 70
     0
  9
$DIMALTZ
 70
     0
  9
$DIMALTTZ
 70
     0
  9
$DIMUPT
 70
     0
  9
$DIMDEC
 70
     4
  9
$DIMTDEC
 70
     4
  9
$DIMALTU
 70
     2
  9
$DIMALTTD
 70
     2
  9
$DIMTXSTY
  7
Standard
  9
$DIMAUNIT
 70
     0
  9
$DIMADEC
 70
     0
  9
$DIMALTRND
 40
0.0
  9
$DIMAZIN
 70
     0
  9
$DIMDSEP
 70
    46
  9
$DIMATFIT
 70
     3
  9
$DIMFRAC
 70
     0
  9
$DIMLDRBLK
  1

  9
$DIMLUNIT
 70
     2
  9
$DIMLWD
 70
    -2
  9
$DIMLWE
 70
    -2
  9
$DIMTMOVE
 70
     0
  9
$DIMFXL
 40
1.0
  9
$DIMFXLON
 70
     0
  9
$DIMJOGANG
 40
0.7853981633974483
  9
$DIMTFILL
 70
     0
  9
$DIMTFILLCLR
 70
     0
  9
$DIMARCSYM
 70
     0
  9
$DIMLTYPE
  6

  9
$DIMLTEX1
  6

  9
$DIMLTEX2
  6

  9
$LUNITS
 70
     2
  9
$LUPREC
 70
     4
  9
$SKETCHINC
 40
0.1
  9
$FILLETRAD
 40
0.5
  9
$AUNITS
 70
     0
  9
$AUPREC
 70
     0
  9
$MENU
  1
.
  9
$ELEVATION
 40
0.0
  9
$PELEVATION
 40
0.0
  9
$THICKNESS
 40
0.0
  9
$LIMCHECK
 70
     0
  9
$CHAMFERA
 40
0.5
  9
$CHAMFERB
 40
0.5
  9
$CHAMFERC
 40
1.0
  9
$CHAMFERD
 40
0.0
  9
$SKPOLY
 70
     0
  9
$TDCREATE
 40
2457373.907820208
  9
$TDUCREATE
 40
2457374.116153541
  9
$TDUPDATE
 40
2457373.90782022
  9
$TDUUPDATE
 40
2457374.116153553
  9
$TDINDWG
 40
0.0000000116
  9
$TDUSRTIMER
 40
0.0000000116
  9
$USRTIMER
 70
     1
  9
$ANGBASE
 50
0.0
  9
$ANGDIR
 70
     0
  9
$PDMODE
 70
     0
  9
$PDSIZE
 40
0.0
  9
$PLINEWID
 40
0.0
  9
$SPLFRAME
 70
     0
  9
$SPLINETYPE
 70
     6
  9
$SPLINESEGS
 70
     8
  9
$HANDSEED
  5
84
  9
$SURFTAB1
 70
     6
  9
$SURFTAB2
 70
     6
  9
$SURFTYPE
 70
     6
  9
$SURFU
 70
     6
  9
$SURFV
 70
     6
  9
$UCSBASE
  2

  9
$UCSNAME
  2

  9
$UCSORG
 10
0.0
 20
0.0
 30
0.0
  9
$UCSXDIR
 10
1.0
 20
0.0
 30
0.0
  9
$UCSYDIR
 10
0.0
 20
1.0
 30
0.0
  9
$UCSORTHOREF
  2

  9
$UCSORTHOVIEW
 70
     0
  9
$UCSORGTOP
 10
0.0
 20
0.0
 30
0.0
  9
$UCSORGBOTTOM
 10
0.0
 20
0.0
 30
0.0
  9
$UCSORGLEFT
 10
0.0
 20
0.0
 30
0.0
  9
$UCSORGRIGHT
 10
0.0
 20
0.0
 30
0.0
  9
$UCSORGFRONT
 10
0.0
 20
0.0
 30
0.0
  9
$UCSORGBACK
 10
0.0
 20
0.0
 30
0.0
  9
$PUCSBASE
  2

  9
$PUCSNAME
  2

  9
$PUCSORG
 10
0.0
 20
0.0
 30
0.0
  9
$PUCSXDIR
 10
1.0
 20
0.0
 30
0.0
  9
$PUCSYDIR
 10
0.0
 20
1.0
 30
0.0
  9
$PUCSORTHOREF
  2

  9
$PUCSORTHOVIEW
 70
     0
  9
$PUCSORGTOP
 10
0.0
 20
0.0
 30
0.0
  9
$PUCSORGBOTTOM
 10
0.0
 20
0.0
 30
0.0
  9
$PUCSORGLEFT
 10
0.0
 20
0.0
 30
0.0
  9
$PUCSORGRIGHT
 10
0.0
 20
0.0
 30
0.0
  9
$PUCSORGFRONT
 10
0.0
 20
0.0
 30
0.0
  9
$PUCSORGBACK
 10
0.0
 20
0.0
 30
0.0
  9
$USERI1
 70
     0
  9
$USERI2
 70
     0
  9
$USERI3
 70
     0
  9
$USERI4
 70
     0
  9
$USERI5
 70
     0
  9
$USERR1
 40
0.0
  9
$USERR2
 40
0.0
  9
$USERR3
 40
0.0
  9
$USERR4
 40
0.0
  9
$USERR5
 40
0.0
  9
$WORLDVIEW
 70
     1
  9
$SHADEDGE
 70
     3
  9
$SHADEDIF
 70
    70
  9
$TILEMODE
 70
     1
  9
$MAXACTVP
 70
    64
  9
$PINSBASE
 10
0.0
 20
0.0
 30
0.0
  9
$PLIMCHECK
 70
     0
  9
$PEXTMIN
 10
1.000000000000000E+20
 20
1.000000000000000E+20
 30
1.000000000000000E+20
  9
$PEXTMAX
 10
-1.000000000000000E+20
 20
-1.000000000000000E+20
 30
-1.000000000000000E+20
  9
$PLIMMIN
 10
0.0
 20
0.0
  9
$PLIMMAX
 10
12.0
 20
9.0
  9
$UNITMODE
 70
     0
  9
$VISRETAIN
 70
     1
  9
$PLINEGEN
 70
     0
  9
$PSLTSCALE
 70
     1
  9
$TREEDEPTH
 70
  3020
  9
$CMLSTYLE
  2
Standard
  9
$CMLJUST
 70
     0
  9
$CMLSCALE
 40
1.0
  9
$PROXYGRAPHICS
 70
     1
  9
$MEASUREMENT
 70
     0
  9
$CELWEIGHT
370
    -1
  9
$ENDCAPS
280
     0
  9
$JOINSTYLE
280
     0
  9
$LWDISPLAY
290
     0
  9
$INSUNITS
 70
     1
  9
$HYPERLINKBASE
  1

  9
$STYLESHEET
  1

  9
$XEDIT
290
     1
  9
$CEPSNTYPE
380
     0
  9
$PSTYLEMODE
290
     1
  9
$FINGERPRINTGUID
  2
{1E833D6E-96F7-4939-9454-399F5E95ECC7}
  9
$VERSIONGUID
  2
{FAEB1C32-E019-11D5-929B-00C0DF256EC4}
  9
$EXTNAMES
290
     1
  9
$PSVPSCALE
 40
0.0
  9
$OLESTARTUP
290
     0
  9
$SORTENTS
280
   127
  9
$INDEXCTL
280
     0
  9
$HIDETEXT
280
     1
  9
$XCLIPFRAME
290
     0
  9
$HALOGAP
280
     0
  9
$OBSCOLOR
 70
   257
  9
$OBSLTYPE
280
     0
  9
$INTERSECTIONDISPLAY
280
     0
  9
$INTERSECTIONCOLOR
 70
   257
  9
$DIMASSOC
280
     2
  9
$PROJECTNAME
  1

  9
$CAMERADISPLAY
290
     0
  9
$LENSLENGTH
 40
50.0
  9
$CAMERAHEIGHT
 40
0.0
  9
$STEPSPERSEC
 40
2.0
  9
$STEPSIZE
 40
6.0
  9
$3DDWFPREC
 40
2.0
  9
$PSOLWIDTH
 40
0.25
  9
$PSOLHEIGHT
 40
4.0
  9
$LOFTANG1
 40
1.570796326794897
  9
$LOFTANG2
 40
1.570796326794897
  9
$LOFTMAG1
 40
0.0
  9
$LOFTMAG2
 40
0.0
  9
$LOFTPARAM
 70
     7
  9
$LOFTNORMALS
280
     1
  9
$LATITUDE
 40
37.795
  9
$LONGITUDE
 40
-122.394
  9
$NORTHDIRECTION
 40
0.0
  9
$TIMEZONE
 70
 -8000
  9
$LIGHTGLYPHDISPLAY
280
     1
  9
$TILEMODELIGHTSYNCH
280
     1
  9
$SOLIDHIST
280
     1
  9
$SHOWHIST
280
     1
  9
$DWFFRAME
280
     2
  9
$DGNFRAME
280
     2
  9
$REALWORLDSCALE
290
     1
  9
$INTERFERECOLOR
 62
   256
  9
$CSHADOW
280
     0
  9
$SHADOWPLANELOCATION
 40
0.0
  0
ENDSEC
  0
SECTION
  2
CLASSES
  0
CLASS
  1
ACDBDICTIONARYWDFLT
  2
AcDbDictionaryWithDefault
  3
ObjectDBX Classes
 90
        0
 91
        4
280
     0
281
     0
  0
CLASS
  1
VISUALSTYLE
  2
AcDbVisualStyle
  3
ObjectDBX Classes
 90
     4095
 91
        4
280
     0
281
     0
  0
CLASS
  1
MATERIAL
  2
AcDbMaterial
  3
ObjectDBX Classes
 90
     1153
 91
        4
280
     0
281
     0
  0
ENDSEC
  0
SECTION
  2
TABLES
  0
TABLE
  2
VPORT
  5
8
330
0
100
AcDbSymbolTable
 70
     1
  0
VPORT
  5
29
330
8
100
AcDbSymbolTableRecord
100
AcDbViewportTableRecord
  2
*Active
 70
     0
 10
0.0
 20
0.0
 11
1.0
 21
1.0
 12
10.42990654205607
 22
4.5
 13
0.0
 23
0.0
 14
0.5
 24
0.5
 15
0.5
 25
0.5
 16
0.0
 26
0.0
 36
1.0
 17
0.0
 27
0.0
 37
0.0
 40
9.0
 41
1.972972972850329
 42
50.0
 43
0.0
 44
0.0
 50
0.0
 51
0.0
 71
     0
 72
   100
 73
     1
 74
     3
 75
     0
 76
     0
 77
     0
 78
     0
281
     0
 65
     1
110
0.0
120
0.0
130
0.0
111
1.0
121
0.0
131
0.0
112
0.0
122
1.0
132
0.0
 79
     0
146
0.0
 60
     3
 61
     5
292
     1
282
     1
141
0.0
142
0.0
 63
   250
  0
ENDTAB
  0
TABLE
  2
LTYPE
  5
5
330
0
100
AcDbSymbolTable
 70
     1
  0
LTYPE
  5
14
330
5
100
AcDbSymbolTableRecord
100
AcDbLinetypeTableRecord
  2
ByBlock
 70
     0
  3

 72
    65
 73
     0
 40
0.0
  0
LTYPE
  5
15
330
5
100
AcDbSymbolTableRecord
100
AcDbLinetypeTableRecord
  2
ByLayer
 70
     0
  3

 72
    65
 73
     0
 40
0.0
  0
LTYPE
  5
16
330
5
100
AcDbSymbolTableRecord
100
AcDbLinetypeTableRecord
  2
Continuous
 70
     0
  3
Solid line
 72
    65
 73
     0
 40
0.0
  0
ENDTAB
  0
TABLE
  2
LAYER
  5
2
330
0
100
AcDbSymbolTable
 70
     3
  0
LAYER
  5
10
330
2
100
AcDbSymbolTableRecord
100
AcDbLayerTableRecord
  2
0
 70
     0
 62
     7
  6
Continuous
370
    -3
390
F
347
3E
  0
LAYER
  5
40
330
2
100
AcDbSymbolTableRecord
100
AcDbLayerTableRecord
  2
MAIN_0.075 kerf
 70
     0
 62
     7
  6
Continuous
370
    -3
390
F
347
3E
  0
LAYER
  5
47
330
2
100
AcDbSymbolTableRecord
100
AcDbLayerTableRecord
  2
HOLES
 70
     0
 62
     7
  6
Continuous
370
    -3
390
F
347
3E
  0
ENDTAB
  0
TABLE
  2
STYLE
  5
3
330
0
100
AcDbSymbolTable
 70
     1
  0
STYLE
  5
11
330
3
100
AcDbSymbolTableRecord
100
AcDbTextStyleTableRecord
  2
Standard
 70
     0
 40
0.0
 41
1.0
 50
0.0
 71
     0
 42
0.2
  3
txt
  4

  0
ENDTAB
  0
TABLE
  2
VIEW
  5
6
330
0
100
AcDbSymbolTable
 70
     0
  0
ENDTAB
  0
TABLE
  2
UCS
  5
7
330
0
100
AcDbSymbolTable
 70
     0
  0
ENDTAB
  0
TABLE
  2
APPID
  5
9
330
0
100
AcDbSymbolTable
 70
     2
  0
APPID
  5
12
330
9
100
AcDbSymbolTableRecord
100
AcDbRegAppTableRecord
  2
ACAD
 70
     0
  0
APPID
  5
3F
330
9
100
AcDbSymbolTableRecord
100
AcDbRegAppTableRecord
  2
ODA
 70
     0
  0
ENDTAB
  0
TABLE
  2
DIMSTYLE
  5
A
330
0
100
AcDbSymbolTable
 70
     1
100
AcDbDimStyleTable
  0
DIMSTYLE
105
27
330
A
100
AcDbSymbolTableRecord
100
AcDbDimStyleTableRecord
  2
Standard
 70
     0
178
     0
340
11
  0
ENDTAB
  0
TABLE
  2
BLOCK_RECORD
  5
1
330
0
100
AcDbSymbolTable
 70
     1
  0
BLOCK_RECORD
  5
1F
330
1
100
AcDbSymbolTableRecord
100
AcDbBlockTableRecord
  2
*Model_Space
340
22
 70
     0
280
     1
281
     0
  0
BLOCK_RECORD
  5
1B
330
1
100
AcDbSymbolTableRecord
100
AcDbBlockTableRecord
  2
*Paper_Space
340
1E
 70
     0
280
     1
281
     0
  0
BLOCK_RECORD
  5
23
330
1
100
AcDbSymbolTableRecord
100
AcDbBlockTableRecord
  2
*Paper_Space0
340
26
 70
     0
280
     1
281
     0
  0
ENDTAB
  0
ENDSEC
  0
SECTION
  2
BLOCKS
  0
BLOCK
  5
20
330
1F
100
AcDbEntity
  8
0
100
AcDbBlockBegin
  2
*Model_Space
 70
     0
 10
0.0
 20
0.0
 30
0.0
  3
*Model_Space
  1

  0
ENDBLK
  5
21
330
1F
100
AcDbEntity
  8
0
100
AcDbBlockEnd
  0
BLOCK
  5
1C
330
1B
100
AcDbEntity
 67
     1
  8
0
100
AcDbBlockBegin
  2
*Paper_Space
 70
     0
 10
0.0
 20
0.0
 30
0.0
  3
*Paper_Space
  1

  0
ENDBLK
  5
1D
330
1B
100
AcDbEntity
 67
     1
  8
0
100
AcDbBlockEnd
  0
BLOCK
  5
24
330
23
100
AcDbEntity
  8
0
100
AcDbBlockBegin
  2
*Paper_Space0
 70
     0
 10
0.0
 20
0.0
 30
0.0
  3
*Paper_Space0
  1

  0
ENDBLK
  5
25
330
23
100
AcDbEntity
  8
0
100
AcDbBlockEnd
  0
ENDSEC
  0
SECTION
  2
ENTITIES
  0
SPLINE
  5
41
330
1F
100
AcDbEntity
  8
MAIN_0.075 kerf
 62
   250
370
     9
100
AcDbSpline
210
0.0
220
0.0
230
1.0
 70
    11
 71
     3
 72
   244
 73
   240
 74
     0
 42
0.0000000001
 43
0.0000000001
 40
0.0
 40
0.0
 40
0.0
 40
0.0
 40
0.0163934426229508
 40
0.0163934426229508
 40
0.0163934426229508
 40
0.0163934426229508
 40
0.0327868852459016
 40
0.0327868852459016
 40
0.0327868852459016
 40
0.0327868852459016
 40
0.0491803278688525
 40
0.0491803278688525
 40
0.0491803278688525
 40
0.0491803278688525
 40
0.0655737704918033
 40
0.0655737704918033
 40
0.0655737704918033
 40
0.0655737704918033
 40
0.0819672131147541
 40
0.0819672131147541
 40
0.0819672131147541
 40
0.0819672131147541
 40
0.0983606557377049
 40
0.0983606557377049
 40
0.0983606557377049
 40
0.0983606557377049
 40
0.1147540983606557
 40
0.1147540983606557
 40
0.1147540983606557
 40
0.1147540983606557
 40
0.1311475409836066
 40
0.1311475409836066
 40
0.1311475409836066
 40
0.1311475409836066
 40
0.1475409836065574
 40
0.1475409836065574
 40
0.1475409836065574
 40
0.1475409836065574
 40
0.1639344262295082
 40
0.1639344262295082
 40
0.1639344262295082
 40
0.1639344262295082
 40
0.180327868852459
 40
0.180327868852459
 40
0.180327868852459
 40
0.180327868852459
 40
0.1967213114754098
 40
0.1967213114754098
 40
0.1967213114754098
 40
0.1967213114754098
 40
0.2131147540983606
 40
0.2131147540983606
 40
0.2131147540983606
 40
0.2131147540983606
 40
0.2295081967213115
 40
0.2295081967213115
 40
0.2295081967213115
 40
0.2295081967213115
 40
0.2459016393442623
 40
0.2459016393442623
 40
0.2459016393442623
 40
0.2459016393442623
 40
0.2622950819672131
 40
0.2622950819672131
 40
0.2622950819672131
 40
0.2622950819672131
 40
0.2786885245901639
 40
0.2786885245901639
 40
0.2786885245901639
 40
0.2786885245901639
 40
0.2950819672131147
 40
0.2950819672131147
 40
0.2950819672131147
 40
0.2950819672131147
 40
0.3114754098360656
 40
0.3114754098360656
 40
0.3114754098360656
 40
0.3114754098360656
 40
0.3278688524590164
 40
0.3278688524590164
 40
0.3278688524590164
 40
0.3278688524590164
 40
0.3442622950819672
 40
0.3442622950819672
 40
0.3442622950819672
 40
0.3442622950819672
 40
0.360655737704918
 40
0.360655737704918
 40
0.360655737704918
 40
0.360655737704918
 40
0.3770491803278688
 40
0.3770491803278688
 40
0.3770491803278688
 40
0.3770491803278688
 40
0.3934426229508197
 40
0.3934426229508197
 40
0.3934426229508197
 40
0.3934426229508197
 40
0.4098360655737705
 40
0.4098360655737705
 40
0.4098360655737705
 40
0.4098360655737705
 40
0.4262295081967213
 40
0.4262295081967213
 40
0.4262295081967213
 40
0.4262295081967213
 40
0.4426229508196721
 40
0.4426229508196721
 40
0.4426229508196721
 40
0.4426229508196721
 40
0.459016393442623
 40
0.459016393442623
 40
0.459016393442623
 40
0.459016393442623
 40
0.4754098360655737
 40
0.4754098360655737
 40
0.4754098360655737
 40
0.4754098360655737
 40
0.4918032786885246
 40
0.4918032786885246
 40
0.4918032786885246
 40
0.4918032786885246
 40
0.5081967213114754
 40
0.5081967213114754
 40
0.5081967213114754
 40
0.5081967213114754
 40
0.5245901639344263
 40
0.5245901639344263
 40
0.5245901639344263
 40
0.5245901639344263
 40
0.5409836065573771
 40
0.5409836065573771
 40
0.5409836065573771
 40
0.5409836065573771
 40
0.5573770491803278
 40
0.5573770491803278
 40
0.5573770491803278
 40
0.5573770491803278
 40
0.5737704918032787
 40
0.5737704918032787
 40
0.5737704918032787
 40
0.5737704918032787
 40
0.5901639344262295
 40
0.5901639344262295
 40
0.5901639344262295
 40
0.5901639344262295
 40
0.6065573770491803
 40
0.6065573770491803
 40
0.6065573770491803
 40
0.6065573770491803
 40
0.6229508196721312
 40
0.6229508196721312
 40
0.6229508196721312
 40
0.6229508196721312
 40
0.639344262295082
 40
0.639344262295082
 40
0.639344262295082
 40
0.639344262295082
 40
0.6557377049180327
 40
0.6557377049180327
 40
0.6557377049180327
 40
0.6557377049180327
 40
0.6721311475409836
 40
0.6721311475409836
 40
0.6721311475409836
 40
0.6721311475409836
 40
0.6885245901639344
 40
0.6885245901639344
 40
0.6885245901639344
 40
0.6885245901639344
 40
0.7049180327868853
 40
0.7049180327868853
 40
0.7049180327868853
 40
0.7049180327868853
 40
0.7213114754098361
 40
0.7213114754098361
 40
0.7213114754098361
 40
0.7213114754098361
 40
0.7377049180327869
 40
0.7377049180327869
 40
0.7377049180327869
 40
0.7377049180327869
 40
0.7540983606557377
 40
0.7540983606557377
 40
0.7540983606557377
 40
0.7540983606557377
 40
0.7704918032786885
 40
0.7704918032786885
 40
0.7704918032786885
 40
0.7704918032786885
 40
0.7868852459016393
 40
0.7868852459016393
 40
0.7868852459016393
 40
0.7868852459016393
 40
0.8032786885245902
 40
0.8032786885245902
 40
0.8032786885245902
 40
0.8032786885245902
 40
0.819672131147541
 40
0.819672131147541
 40
0.819672131147541
 40
0.819672131147541
 40
0.8360655737704918
 40
0.8360655737704918
 40
0.8360655737704918
 40
0.8360655737704918
 40
0.8524590163934426
 40
0.8524590163934426
 40
0.8524590163934426
 40
0.8524590163934426
 40
0.8688524590163934
 40
0.8688524590163934
 40
0.8688524590163934
 40
0.8688524590163934
 40
0.8852459016393442
 40
0.8852459016393442
 40
0.8852459016393442
 40
0.8852459016393442
 40
0.9016393442622951
 40
0.9016393442622951
 40
0.9016393442622951
 40
0.9016393442622951
 40
0.9180327868852459
 40
0.9180327868852459
 40
0.9180327868852459
 40
0.9180327868852459
 40
0.9344262295081968
 40
0.9344262295081968
 40
0.9344262295081968
 40
0.9344262295081968
 40
0.9508196721311475
 40
0.9508196721311475
 40
0.9508196721311475
 40
0.9508196721311475
 40
0.9672131147540983
 40
0.9672131147540983
 40
0.9672131147540983
 40
0.9672131147540983
 40
1.0
 40
1.0
 40
1.0
 40
1.0
 10
-1.434523622047244
 20
-2.760425196850394
 30
0.0
 10
-1.434523622047244
 20
-2.760425196850394
 30
0.0
 10
-1.010311023622047
 20
-2.760425196850394
 30
0.0
 10
-1.010311023622047
 20
-2.760425196850394
 30
0.0
 10
-1.010311023622047
 20
-2.760425196850394
 30
0.0
 10
-1.010311023622047
 20
-2.760425196850394
 30
0.0
 10
-1.010311023622047
 20
-2.878535433070866
 30
0.0
 10
-1.010311023622047
 20
-2.878535433070866
 30
0.0
 10
-1.010311023622047
 20
-2.878535433070866
 30
0.0
 10
-1.010311023622047
 20
-2.878535433070866
 30
0.0
 10
-0.5979094488188976
 20
-2.878535433070866
 30
0.0
 10
-0.5979094488188976
 20
-2.878535433070866
 30
0.0
 10
-0.5979094488188976
 20
-2.878535433070866
 30
0.0
 10
-0.5979094488188976
 20
-2.878535433070866
 30
0.0
 10
-0.5979094488188976
 20
-2.760425196850394
 30
0.0
 10
-0.5979094488188976
 20
-2.760425196850394
 30
0.0
 10
-0.5979094488188976
 20
-2.760425196850394
 30
0.0
 10
-0.5979094488188976
 20
-2.760425196850394
 30
0.0
 10
-0.3164133858267716
 20
-2.760425196850394
 30
0.0
 10
-0.3164133858267716
 20
-2.760425196850394
 30
0.0
 10
-0.3164133858267716
 20
-2.760425196850394
 30
0.0
 10
-0.3164133858267716
 20
-2.760425196850394
 30
0.0
 10
-0.3164133858267716
 20
-2.878535433070866
 30
0.0
 10
-0.3164133858267716
 20
-2.878535433070866
 30
0.0
 10
-0.3164133858267716
 20
-2.878535433070866
 30
0.0
 10
-0.3164133858267716
 20
-2.878535433070866
 30
0.0
 10
-0.0467283464566929
 20
-2.878535433070866
 30
0.0
 10
-0.0467283464566929
 20
-2.878535433070866
 30
0.0
 10
-0.0467283464566929
 20
-2.878535433070866
 30
0.0
 10
-0.0467283464566929
 20
-2.878535433070866
 30
0.0
 10
-0.0467283464566929
 20
-2.760425196850394
 30
0.0
 10
-0.0467283464566929
 20
-2.760425196850394
 30
0.0
 10
-0.0467283464566929
 20
-2.760425196850394
 30
0.0
 10
-0.0467283464566929
 20
-2.760425196850394
 30
0.0
 10
0.2347677165354331
 20
-2.760425196850394
 30
0.0
 10
0.2347677165354331
 20
-2.760425196850394
 30
0.0
 10
0.2347677165354331
 20
-2.760425196850394
 30
0.0
 10
0.2347677165354331
 20
-2.760425196850394
 30
0.0
 10
0.2347677165354331
 20
-2.878535433070866
 30
0.0
 10
0.2347677165354331
 20
-2.878535433070866
 30
0.0
 10
0.2347677165354331
 20
-2.878535433070866
 30
0.0
 10
0.2347677165354331
 20
-2.878535433070866
 30
0.0
 10
0.5044527559055119
 20
-2.878535433070866
 30
0.0
 10
0.5044527559055119
 20
-2.878535433070866
 30
0.0
 10
0.5044527559055119
 20
-2.878535433070866
 30
0.0
 10
0.5044527559055119
 20
-2.878535433070866
 30
0.0
 10
0.5044527559055119
 20
-2.760425196850394
 30
0.0
 10
0.5044527559055119
 20
-2.760425196850394
 30
0.0
 10
0.5044527559055119
 20
-2.760425196850394
 30
0.0
 10
0.5044527559055119
 20
-2.760425196850394
 30
0.0
 10
0.7859488188976378
 20
-2.760425196850394
 30
0.0
 10
0.7859488188976378
 20
-2.760425196850394
 30
0.0
 10
0.7859488188976378
 20
-2.760425196850394
 30
0.0
 10
0.7859488188976378
 20
-2.760425196850394
 30
0.0
 10
0.7859488188976378
 20
-2.878535433070866
 30
0.0
 10
0.7859488188976378
 20
-2.878535433070866
 30
0.0
 10
0.7859488188976378
 20
-2.878535433070866
 30
0.0
 10
0.7859488188976378
 20
-2.878535433070866
 30
0.0
 10
1.055633858267716
 20
-2.878535433070866
 30
0.0
 10
1.055633858267716
 20
-2.878535433070866
 30
0.0
 10
1.055633858267716
 20
-2.878535433070866
 30
0.0
 10
1.055633858267716
 20
-2.878535433070866
 30
0.0
 10
1.055633858267716
 20
-2.760425196850394
 30
0.0
 10
1.055633858267716
 20
-2.760425196850394
 30
0.0
 10
1.055633858267716
 20
-2.760425196850394
 30
0.0
 10
1.055633858267716
 20
-2.760425196850394
 30
0.0
 10
1.337129921259842
 20
-2.760425196850394
 30
0.0
 10
1.337129921259842
 20
-2.760425196850394
 30
0.0
 10
1.337129921259842
 20
-2.760425196850394
 30
0.0
 10
1.337129921259842
 20
-2.760425196850394
 30
0.0
 10
1.337129921259842
 20
-2.878535433070866
 30
0.0
 10
1.337129921259842
 20
-2.878535433070866
 30
0.0
 10
1.337129921259842
 20
-2.878535433070866
 30
0.0
 10
1.337129921259842
 20
-2.878535433070866
 30
0.0
 10
1.749531496062992
 20
-2.878535433070866
 30
0.0
 10
1.749531496062992
 20
-2.878535433070866
 30
0.0
 10
1.749531496062992
 20
-2.878535433070866
 30
0.0
 10
1.749531496062992
 20
-2.878535433070866
 30
0.0
 10
1.749531496062992
 20
-2.760425196850394
 30
0.0
 10
1.749531496062992
 20
-2.760425196850394
 30
0.0
 10
1.749531496062992
 20
-2.760425196850394
 30
0.0
 10
1.749531496062992
 20
-2.760425196850394
 30
0.0
 10
2.173744094488189
 20
-2.760425196850394
 30
0.0
 10
2.173744094488189
 20
-2.760425196850394
 30
0.0
 10
2.173744094488189
 20
-2.760425196850394
 30
0.0
 10
2.173744094488189
 20
-2.760425196850394
 30
0.0
 10
2.173744094488189
 20
-3.053732283464567
 30
0.0
 10
2.173744094488189
 20
-3.053732283464567
 30
0.0
 10
2.173744094488189
 20
-3.053732283464567
 30
0.0
 10
2.173744094488189
 20
-3.053732283464567
 30
0.0
 10
2.055633858267717
 20
-3.053732283464567
 30
0.0
 10
2.055633858267717
 20
-3.053732283464567
 30
0.0
 10
2.055633858267717
 20
-3.053732283464567
 30
0.0
 10
2.055633858267717
 20
-3.053732283464567
 30
0.0
 10
2.055633858267717
 20
-3.335228346456693
 30
0.0
 10
2.055633858267717
 20
-3.335228346456693
 30
0.0
 10
2.055633858267717
 20
-3.335228346456693
 30
0.0
 10
2.055633858267717
 20
-3.335228346456693
 30
0.0
 10
2.173744094488189
 20
-3.335228346456693
 30
0.0
 10
2.173744094488189
 20
-3.335228346456693
 30
0.0
 10
2.173744094488189
 20
-3.335228346456693
 30
0.0
 10
2.173744094488189
 20
-3.335228346456693
 30
0.0
 10
2.173744094488189
 20
-3.628535433070866
 30
0.0
 10
2.173744094488189
 20
-3.628535433070866
 30
0.0
 10
2.173744094488189
 20
-3.628535433070866
 30
0.0
 10
2.173744094488189
 20
-3.628535433070866
 30
0.0
 10
2.055633858267717
 20
-3.628535433070866
 30
0.0
 10
2.055633858267717
 20
-3.628535433070866
 30
0.0
 10
2.055633858267717
 20
-3.628535433070866
 30
0.0
 10
2.055633858267717
 20
-3.628535433070866
 30
0.0
 10
2.055633858267717
 20
-3.910031496062992
 30
0.0
 10
2.055633858267717
 20
-3.910031496062992
 30
0.0
 10
2.055633858267717
 20
-3.910031496062992
 30
0.0
 10
2.055633858267717
 20
-3.910031496062992
 30
0.0
 10
2.173744094488189
 20
-3.910031496062992
 30
0.0
 10
2.173744094488189
 20
-3.910031496062992
 30
0.0
 10
2.173744094488189
 20
-3.910031496062992
 30
0.0
 10
2.173744094488189
 20
-3.910031496062992
 30
0.0
 10
2.173744094488189
 20
-4.203338582677166
 30
0.0
 10
2.173744094488189
 20
-4.203338582677166
 30
0.0
 10
2.173744094488189
 20
-4.203338582677166
 30
0.0
 10
2.173744094488189
 20
-4.203338582677166
 30
0.0
 10
1.749531496062992
 20
-4.203338582677166
 30
0.0
 10
1.749531496062992
 20
-4.203338582677166
 30
0.0
 10
1.749531496062992
 20
-4.203338582677166
 30
0.0
 10
1.749531496062992
 20
-4.203338582677166
 30
0.0
 10
1.749531496062992
 20
-4.085228346456693
 30
0.0
 10
1.749531496062992
 20
-4.085228346456693
 30
0.0
 10
1.749531496062992
 20
-4.085228346456693
 30
0.0
 10
1.749531496062992
 20
-4.085228346456693
 30
0.0
 10
1.337129921259842
 20
-4.085228346456693
 30
0.0
 10
1.337129921259842
 20
-4.085228346456693
 30
0.0
 10
1.337129921259842
 20
-4.085228346456693
 30
0.0
 10
1.337129921259842
 20
-4.085228346456693
 30
0.0
 10
1.337129921259842
 20
-4.203338582677166
 30
0.0
 10
1.337129921259842
 20
-4.203338582677166
 30
0.0
 10
1.337129921259842
 20
-4.203338582677166
 30
0.0
 10
1.337129921259842
 20
-4.203338582677166
 30
0.0
 10
1.055633858267716
 20
-4.203338582677166
 30
0.0
 10
1.055633858267716
 20
-4.203338582677166
 30
0.0
 10
1.055633858267716
 20
-4.203338582677166
 30
0.0
 10
1.055633858267716
 20
-4.203338582677166
 30
0.0
 10
1.055633858267716
 20
-4.085228346456693
 30
0.0
 10
1.055633858267716
 20
-4.085228346456693
 30
0.0
 10
1.055633858267716
 20
-4.085228346456693
 30
0.0
 10
1.055633858267716
 20
-4.085228346456693
 30
0.0
 10
0.7859488188976378
 20
-4.085228346456693
 30
0.0
 10
0.7859488188976378
 20
-4.085228346456693
 30
0.0
 10
0.7859488188976378
 20
-4.085228346456693
 30
0.0
 10
0.7859488188976378
 20
-4.085228346456693
 30
0.0
 10
0.7859488188976378
 20
-4.203338582677166
 30
0.0
 10
0.7859488188976378
 20
-4.203338582677166
 30
0.0
 10
0.7859488188976378
 20
-4.203338582677166
 30
0.0
 10
0.7859488188976378
 20
-4.203338582677166
 30
0.0
 10
0.5044527559055119
 20
-4.203338582677166
 30
0.0
 10
0.5044527559055119
 20
-4.203338582677166
 30
0.0
 10
0.5044527559055119
 20
-4.203338582677166
 30
0.0
 10
0.5044527559055119
 20
-4.203338582677166
 30
0.0
 10
0.5044527559055119
 20
-4.085228346456693
 30
0.0
 10
0.5044527559055119
 20
-4.085228346456693
 30
0.0
 10
0.5044527559055119
 20
-4.085228346456693
 30
0.0
 10
0.5044527559055119
 20
-4.085228346456693
 30
0.0
 10
0.2347677165354331
 20
-4.085228346456693
 30
0.0
 10
0.2347677165354331
 20
-4.085228346456693
 30
0.0
 10
0.2347677165354331
 20
-4.085228346456693
 30
0.0
 10
0.2347677165354331
 20
-4.085228346456693
 30
0.0
 10
0.2347677165354331
 20
-4.203338582677166
 30
0.0
 10
0.2347677165354331
 20
-4.203338582677166
 30
0.0
 10
0.2347677165354331
 20
-4.203338582677166
 30
0.0
 10
0.2347677165354331
 20
-4.203338582677166
 30
0.0
 10
-0.0467283464566929
 20
-4.203338582677166
 30
0.0
 10
-0.0467283464566929
 20
-4.203338582677166
 30
0.0
 10
-0.0467283464566929
 20
-4.203338582677166
 30
0.0
 10
-0.0467283464566929
 20
-4.203338582677166
 30
0.0
 10
-0.0467283464566929
 20
-4.085228346456693
 30
0.0
 10
-0.0467283464566929
 20
-4.085228346456693
 30
0.0
 10
-0.0467283464566929
 20
-4.085228346456693
 30
0.0
 10
-0.0467283464566929
 20
-4.085228346456693
 30
0.0
 10
-0.3164133858267716
 20
-4.085228346456693
 30
0.0
 10
-0.3164133858267716
 20
-4.085228346456693
 30
0.0
 10
-0.3164133858267716
 20
-4.085228346456693
 30
0.0
 10
-0.3164133858267716
 20
-4.085228346456693
 30
0.0
 10
-0.3164133858267716
 20
-4.203338582677166
 30
0.0
 10
-0.3164133858267716
 20
-4.203338582677166
 30
0.0
 10
-0.3164133858267716
 20
-4.203338582677166
 30
0.0
 10
-0.3164133858267716
 20
-4.203338582677166
 30
0.0
 10
-0.5979094488188976
 20
-4.203338582677166
 30
0.0
 10
-0.5979094488188976
 20
-4.203338582677166
 30
0.0
 10
-0.5979094488188976
 20
-4.203338582677166
 30
0.0
 10
-0.5979094488188976
 20
-4.203338582677166
 30
0.0
 10
-0.5979094488188976
 20
-4.085228346456693
 30
0.0
 10
-0.5979094488188976
 20
-4.085228346456693
 30
0.0
 10
-0.5979094488188976
 20
-4.085228346456693
 30
0.0
 10
-0.5979094488188976
 20
-4.085228346456693
 30
0.0
 10
-1.010311023622047
 20
-4.085228346456693
 30
0.0
 10
-1.010311023622047
 20
-4.085228346456693
 30
0.0
 10
-1.010311023622047
 20
-4.085228346456693
 30
0.0
 10
-1.010311023622047
 20
-4.085228346456693
 30
0.0
 10
-1.010311023622047
 20
-4.203338582677166
 30
0.0
 10
-1.010311023622047
 20
-4.203338582677166
 30
0.0
 10
-1.010311023622047
 20
-4.203338582677166
 30
0.0
 10
-1.010311023622047
 20
-4.203338582677166
 30
0.0
 10
-1.434523622047244
 20
-4.203338582677166
 30
0.0
 10
-1.434523622047244
 20
-4.203338582677166
 30
0.0
 10
-1.434523622047244
 20
-4.203338582677166
 30
0.0
 10
-1.434523622047244
 20
-4.203338582677166
 30
0.0
 10
-1.434523622047244
 20
-3.910031496062992
 30
0.0
 10
-1.434523622047244
 20
-3.910031496062992
 30
0.0
 10
-1.434523622047244
 20
-3.910031496062992
 30
0.0
 10
-1.434523622047244
 20
-3.910031496062992
 30
0.0
 10
-1.316413385826772
 20
-3.910031496062992
 30
0.0
 10
-1.316413385826772
 20
-3.910031496062992
 30
0.0
 10
-1.316413385826772
 20
-3.910031496062992
 30
0.0
 10
-1.316413385826772
 20
-3.910031496062992
 30
0.0
 10
-1.316413385826772
 20
-3.628535433070866
 30
0.0
 10
-1.316413385826772
 20
-3.628535433070866
 30
0.0
 10
-1.316413385826772
 20
-3.628535433070866
 30
0.0
 10
-1.316413385826772
 20
-3.628535433070866
 30
0.0
 10
-1.434523622047244
 20
-3.628535433070866
 30
0.0
 10
-1.434523622047244
 20
-3.628535433070866
 30
0.0
 10
-1.434523622047244
 20
-3.628535433070866
 30
0.0
 10
-1.434523622047244
 20
-3.628535433070866
 30
0.0
 10
-1.434523622047244
 20
-3.335228346456693
 30
0.0
 10
-1.434523622047244
 20
-3.335228346456693
 30
0.0
 10
-1.434523622047244
 20
-3.335228346456693
 30
0.0
 10
-1.434523622047244
 20
-3.335228346456693
 30
0.0
 10
-1.316413385826772
 20
-3.335228346456693
 30
0.0
 10
-1.316413385826772
 20
-3.335228346456693
 30
0.0
 10
-1.316413385826772
 20
-3.335228346456693
 30
0.0
 10
-1.316413385826772
 20
-3.335228346456693
 30
0.0
 10
-1.316413385826772
 20
-3.053732283464567
 30
0.0
 10
-1.316413385826772
 20
-3.053732283464567
 30
0.0
 10
-1.316413385826772
 20
-3.053732283464567
 30
0.0
 10
-1.316413385826772
 20
-3.053732283464567
 30
0.0
 10
-1.434523622047244
 20
-3.053732283464567
 30
0.0
 10
-1.434523622047244
 20
-3.053732283464567
 30
0.0
 10
-1.434523622047244
 20
-3.053732283464567
 30
0.0
 10
-1.434523622047244
 20
-3.053732283464567
 30
0.0
 10
-1.434523622047244
 20
-2.760425196850394
 30
0.0
 10
-1.434523622047244
 20
-2.760425196850394
 30
0.0
  0
SPLINE
  5
42
330
1F
100
AcDbEntity
  8
MAIN_0.075 kerf
 62
   250
370
     9
100
AcDbSpline
210
0.0
220
0.0
230
1.0
 70
    11
 71
     3
 72
   244
 73
   240
 74
     0
 42
0.0000000001
 43
0.0000000001
 40
0.0
 40
0.0
 40
0.0
 40
0.0
 40
0.0163934426229508
 40
0.0163934426229508
 40
0.0163934426229508
 40
0.0163934426229508
 40
0.0327868852459016
 40
0.0327868852459016
 40
0.0327868852459016
 40
0.0327868852459016
 40
0.0491803278688525
 40
0.0491803278688525
 40
0.0491803278688525
 40
0.0491803278688525
 40
0.0655737704918033
 40
0.0655737704918033
 40
0.0655737704918033
 40
0.0655737704918033
 40
0.0819672131147541
 40
0.0819672131147541
 40
0.0819672131147541
 40
0.0819672131147541
 40
0.0983606557377049
 40
0.0983606557377049
 40
0.0983606557377049
 40
0.0983606557377049
 40
0.1147540983606557
 40
0.1147540983606557
 40
0.1147540983606557
 40
0.1147540983606557
 40
0.1311475409836066
 40
0.1311475409836066
 40
0.1311475409836066
 40
0.1311475409836066
 40
0.1475409836065574
 40
0.1475409836065574
 40
0.1475409836065574
 40
0.1475409836065574
 40
0.1639344262295082
 40
0.1639344262295082
 40
0.1639344262295082
 40
0.1639344262295082
 40
0.180327868852459
 40
0.180327868852459
 40
0.180327868852459
 40
0.180327868852459
 40
0.1967213114754098
 40
0.1967213114754098
 40
0.1967213114754098
 40
0.1967213114754098
 40
0.2131147540983606
 40
0.2131147540983606
 40
0.2131147540983606
 40
0.2131147540983606
 40
0.2295081967213115
 40
0.2295081967213115
 40
0.2295081967213115
 40
0.2295081967213115
 40
0.2459016393442623
 40
0.2459016393442623
 40
0.2459016393442623
 40
0.2459016393442623
 40
0.2622950819672131
 40
0.2622950819672131
 40
0.2622950819672131
 40
0.2622950819672131
 40
0.2786885245901639
 40
0.2786885245901639
 40
0.2786885245901639
 40
0.2786885245901639
 40
0.2950819672131147
 40
0.2950819672131147
 40
0.2950819672131147
 40
0.2950819672131147
 40
0.3114754098360656
 40
0.3114754098360656
 40
0.3114754098360656
 40
0.3114754098360656
 40
0.3278688524590164
 40
0.3278688524590164
 40
0.3278688524590164
 40
0.3278688524590164
 40
0.3442622950819672
 40
0.3442622950819672
 40
0.3442622950819672
 40
0.3442622950819672
 40
0.360655737704918
 40
0.360655737704918
 40
0.360655737704918
 40
0.360655737704918
 40
0.3770491803278688
 40
0.3770491803278688
 40
0.3770491803278688
 40
0.3770491803278688
 40
0.3934426229508197
 40
0.3934426229508197
 40
0.3934426229508197
 40
0.3934426229508197
 40
0.4098360655737705
 40
0.4098360655737705
 40
0.4098360655737705
 40
0.4098360655737705
 40
0.4262295081967213
 40
0.4262295081967213
 40
0.4262295081967213
 40
0.4262295081967213
 40
0.4426229508196721
 40
0.4426229508196721
 40
0.4426229508196721
 40
0.4426229508196721
 40
0.459016393442623
 40
0.459016393442623
 40
0.459016393442623
 40
0.459016393442623
 40
0.4754098360655737
 40
0.4754098360655737
 40
0.4754098360655737
 40
0.4754098360655737
 40
0.4918032786885246
 40
0.4918032786885246
 40
0.4918032786885246
 40
0.4918032786885246
 40
0.5081967213114754
 40
0.5081967213114754
 40
0.5081967213114754
 40
0.5081967213114754
 40
0.5245901639344263
 40
0.5245901639344263
 40
0.5245901639344263
 40
0.5245901639344263
 40
0.5409836065573771
 40
0.5409836065573771
 40
0.5409836065573771
 40
0.5409836065573771
 40
0.5573770491803278
 40
0.5573770491803278
 40
0.5573770491803278
 40
0.5573770491803278
 40
0.5737704918032787
 40
0.5737704918032787
 40
0.5737704918032787
 40
0.5737704918032787
 40
0.5901639344262295
 40
0.5901639344262295
 40
0.5901639344262295
 40
0.5901639344262295
 40
0.6065573770491803
 40
0.6065573770491803
 40
0.6065573770491803
 40
0.6065573770491803
 40
0.6229508196721312
 40
0.6229508196721312
 40
0.6229508196721312
 40
0.6229508196721312
 40
0.639344262295082
 40
0.639344262295082
 40
0.639344262295082
 40
0.639344262295082
 40
0.6557377049180327
 40
0.6557377049180327
 40
0.6557377049180327
 40
0.6557377049180327
 40
0.6721311475409836
 40
0.6721311475409836
 40
0.6721311475409836
 40
0.6721311475409836
 40
0.6885245901639344
 40
0.6885245901639344
 40
0.6885245901639344
 40
0.6885245901639344
 40
0.7049180327868853
 40
0.7049180327868853
 40
0.7049180327868853
 40
0.7049180327868853
 40
0.7213114754098361
 40
0.7213114754098361
 40
0.7213114754098361
 40
0.7213114754098361
 40
0.7377049180327869
 40
0.7377049180327869
 40
0.7377049180327869
 40
0.7377049180327869
 40
0.7540983606557377
 40
0.7540983606557377
 40
0.7540983606557377
 40
0.7540983606557377
 40
0.7704918032786885
 40
0.7704918032786885
 40
0.7704918032786885
 40
0.7704918032786885
 40
0.7868852459016393
 40
0.7868852459016393
 40
0.7868852459016393
 40
0.7868852459016393
 40
0.8032786885245902
 40
0.8032786885245902
 40
0.8032786885245902
 40
0.8032786885245902
 40
0.819672131147541
 40
0.819672131147541
 40
0.819672131147541
 40
0.819672131147541
 40
0.8360655737704918
 40
0.8360655737704918
 40
0.8360655737704918
 40
0.8360655737704918
 40
0.8524590163934426
 40
0.8524590163934426
 40
0.8524590163934426
 40
0.8524590163934426
 40
0.8688524590163934
 40
0.8688524590163934
 40
0.8688524590163934
 40
0.8688524590163934
 40
0.8852459016393442
 40
0.8852459016393442
 40
0.8852459016393442
 40
0.8852459016393442
 40
0.9016393442622951
 40
0.9016393442622951
 40
0.9016393442622951
 40
0.9016393442622951
 40
0.9180327868852459
 40
0.9180327868852459
 40
0.9180327868852459
 40
0.9180327868852459
 40
0.9344262295081968
 40
0.9344262295081968
 40
0.9344262295081968
 40
0.9344262295081968
 40
0.9508196721311475
 40
0.9508196721311475
 40
0.9508196721311475
 40
0.9508196721311475
 40
0.9672131147540983
 40
0.9672131147540983
 40
0.9672131147540983
 40
0.9672131147540983
 40
1.0
 40
1.0
 40
1.0
 40
1.0
 10
-1.434523622047244
 20
1.605708661417323
 30
0.0
 10
-1.434523622047244
 20
1.605708661417323
 30
0.0
 10
-1.010311023622047
 20
1.605708661417323
 30
0.0
 10
-1.010311023622047
 20
1.605708661417323
 30
0.0
 10
-1.010311023622047
 20
1.605708661417323
 30
0.0
 10
-1.010311023622047
 20
1.605708661417323
 30
0.0
 10
-1.010311023622047
 20
1.48759842519685
 30
0.0
 10
-1.010311023622047
 20
1.48759842519685
 30
0.0
 10
-1.010311023622047
 20
1.48759842519685
 30
0.0
 10
-1.010311023622047
 20
1.48759842519685
 30
0.0
 10
-0.5979094488188976
 20
1.48759842519685
 30
0.0
 10
-0.5979094488188976
 20
1.48759842519685
 30
0.0
 10
-0.5979094488188976
 20
1.48759842519685
 30
0.0
 10
-0.5979094488188976
 20
1.48759842519685
 30
0.0
 10
-0.5979094488188976
 20
1.605708661417323
 30
0.0
 10
-0.5979094488188976
 20
1.605708661417323
 30
0.0
 10
-0.5979094488188976
 20
1.605708661417323
 30
0.0
 10
-0.5979094488188976
 20
1.605708661417323
 30
0.0
 10
-0.3164133858267716
 20
1.605708661417323
 30
0.0
 10
-0.3164133858267716
 20
1.605708661417323
 30
0.0
 10
-0.3164133858267716
 20
1.605708661417323
 30
0.0
 10
-0.3164133858267716
 20
1.605708661417323
 30
0.0
 10
-0.3164133858267716
 20
1.48759842519685
 30
0.0
 10
-0.3164133858267716
 20
1.48759842519685
 30
0.0
 10
-0.3164133858267716
 20
1.48759842519685
 30
0.0
 10
-0.3164133858267716
 20
1.48759842519685
 30
0.0
 10
-0.0467283464566929
 20
1.48759842519685
 30
0.0
 10
-0.0467283464566929
 20
1.48759842519685
 30
0.0
 10
-0.0467283464566929
 20
1.48759842519685
 30
0.0
 10
-0.0467283464566929
 20
1.48759842519685
 30
0.0
 10
-0.0467283464566929
 20
1.605708661417323
 30
0.0
 10
-0.0467283464566929
 20
1.605708661417323
 30
0.0
 10
-0.0467283464566929
 20
1.605708661417323
 30
0.0
 10
-0.0467283464566929
 20
1.605708661417323
 30
0.0
 10
0.2347677165354331
 20
1.605708661417323
 30
0.0
 10
0.2347677165354331
 20
1.605708661417323
 30
0.0
 10
0.2347677165354331
 20
1.605708661417323
 30
0.0
 10
0.2347677165354331
 20
1.605708661417323
 30
0.0
 10
0.2347677165354331
 20
1.48759842519685
 30
0.0
 10
0.2347677165354331
 20
1.48759842519685
 30
0.0
 10
0.2347677165354331
 20
1.48759842519685
 30
0.0
 10
0.2347677165354331
 20
1.48759842519685
 30
0.0
 10
0.5044527559055119
 20
1.48759842519685
 30
0.0
 10
0.5044527559055119
 20
1.48759842519685
 30
0.0
 10
0.5044527559055119
 20
1.48759842519685
 30
0.0
 10
0.5044527559055119
 20
1.48759842519685
 30
0.0
 10
0.5044527559055119
 20
1.605708661417323
 30
0.0
 10
0.5044527559055119
 20
1.605708661417323
 30
0.0
 10
0.5044527559055119
 20
1.605708661417323
 30
0.0
 10
0.5044527559055119
 20
1.605708661417323
 30
0.0
 10
0.7859488188976378
 20
1.605708661417323
 30
0.0
 10
0.7859488188976378
 20
1.605708661417323
 30
0.0
 10
0.7859488188976378
 20
1.605708661417323
 30
0.0
 10
0.7859488188976378
 20
1.605708661417323
 30
0.0
 10
0.7859488188976378
 20
1.48759842519685
 30
0.0
 10
0.7859488188976378
 20
1.48759842519685
 30
0.0
 10
0.7859488188976378
 20
1.48759842519685
 30
0.0
 10
0.7859488188976378
 20
1.48759842519685
 30
0.0
 10
1.055633858267716
 20
1.48759842519685
 30
0.0
 10
1.055633858267716
 20
1.48759842519685
 30
0.0
 10
1.055633858267716
 20
1.48759842519685
 30
0.0
 10
1.055633858267716
 20
1.48759842519685
 30
0.0
 10
1.055633858267716
 20
1.605708661417323
 30
0.0
 10
1.055633858267716
 20
1.605708661417323
 30
0.0
 10
1.055633858267716
 20
1.605708661417323
 30
0.0
 10
1.055633858267716
 20
1.605708661417323
 30
0.0
 10
1.337129921259842
 20
1.605708661417323
 30
0.0
 10
1.337129921259842
 20
1.605708661417323
 30
0.0
 10
1.337129921259842
 20
1.605708661417323
 30
0.0
 10
1.337129921259842
 20
1.605708661417323
 30
0.0
 10
1.337129921259842
 20
1.48759842519685
 30
0.0
 10
1.337129921259842
 20
1.48759842519685
 30
0.0
 10
1.337129921259842
 20
1.48759842519685
 30
0.0
 10
1.337129921259842
 20
1.48759842519685
 30
0.0
 10
1.749531496062992
 20
1.48759842519685
 30
0.0
 10
1.749531496062992
 20
1.48759842519685
 30
0.0
 10
1.749531496062992
 20
1.48759842519685
 30
0.0
 10
1.749531496062992
 20
1.48759842519685
 30
0.0
 10
1.749531496062992
 20
1.605708661417323
 30
0.0
 10
1.749531496062992
 20
1.605708661417323
 30
0.0
 10
1.749531496062992
 20
1.605708661417323
 30
0.0
 10
1.749531496062992
 20
1.605708661417323
 30
0.0
 10
2.173744094488189
 20
1.605708661417323
 30
0.0
 10
2.173744094488189
 20
1.605708661417323
 30
0.0
 10
2.173744094488189
 20
1.605708661417323
 30
0.0
 10
2.173744094488189
 20
1.605708661417323
 30
0.0
 10
2.173744094488189
 20
1.31240157480315
 30
0.0
 10
2.173744094488189
 20
1.31240157480315
 30
0.0
 10
2.173744094488189
 20
1.31240157480315
 30
0.0
 10
2.173744094488189
 20
1.31240157480315
 30
0.0
 10
2.055633858267717
 20
1.31240157480315
 30
0.0
 10
2.055633858267717
 20
1.31240157480315
 30
0.0
 10
2.055633858267717
 20
1.31240157480315
 30
0.0
 10
2.055633858267717
 20
1.31240157480315
 30
0.0
 10
2.055633858267717
 20
1.030905511811024
 30
0.0
 10
2.055633858267717
 20
1.030905511811024
 30
0.0
 10
2.055633858267717
 20
1.030905511811024
 30
0.0
 10
2.055633858267717
 20
1.030905511811024
 30
0.0
 10
2.173744094488189
 20
1.030905511811024
 30
0.0
 10
2.173744094488189
 20
1.030905511811024
 30
0.0
 10
2.173744094488189
 20
1.030905511811024
 30
0.0
 10
2.173744094488189
 20
1.030905511811024
 30
0.0
 10
2.173744094488189
 20
0.7375984251968504
 30
0.0
 10
2.173744094488189
 20
0.7375984251968504
 30
0.0
 10
2.173744094488189
 20
0.7375984251968504
 30
0.0
 10
2.173744094488189
 20
0.7375984251968504
 30
0.0
 10
2.055633858267717
 20
0.7375984251968504
 30
0.0
 10
2.055633858267717
 20
0.7375984251968504
 30
0.0
 10
2.055633858267717
 20
0.7375984251968504
 30
0.0
 10
2.055633858267717
 20
0.7375984251968504
 30
0.0
 10
2.055633858267717
 20
0.4561023622047244
 30
0.0
 10
2.055633858267717
 20
0.4561023622047244
 30
0.0
 10
2.055633858267717
 20
0.4561023622047244
 30
0.0
 10
2.055633858267717
 20
0.4561023622047244
 30
0.0
 10
2.173744094488189
 20
0.4561023622047244
 30
0.0
 10
2.173744094488189
 20
0.4561023622047244
 30
0.0
 10
2.173744094488189
 20
0.4561023622047244
 30
0.0
 10
2.173744094488189
 20
0.4561023622047244
 30
0.0
 10
2.173744094488189
 20
0.1627952755905512
 30
0.0
 10
2.173744094488189
 20
0.1627952755905512
 30
0.0
 10
2.173744094488189
 20
0.1627952755905512
 30
0.0
 10
2.173744094488189
 20
0.1627952755905512
 30
0.0
 10
1.749531496062992
 20
0.1627952755905512
 30
0.0
 10
1.749531496062992
 20
0.1627952755905512
 30
0.0
 10
1.749531496062992
 20
0.1627952755905512
 30
0.0
 10
1.749531496062992
 20
0.1627952755905512
 30
0.0
 10
1.749531496062992
 20
0.2809055118110236
 30
0.0
 10
1.749531496062992
 20
0.2809055118110236
 30
0.0
 10
1.749531496062992
 20
0.2809055118110236
 30
0.0
 10
1.749531496062992
 20
0.2809055118110236
 30
0.0
 10
1.337129921259842
 20
0.2809055118110236
 30
0.0
 10
1.337129921259842
 20
0.2809055118110236
 30
0.0
 10
1.337129921259842
 20
0.2809055118110236
 30
0.0
 10
1.337129921259842
 20
0.2809055118110236
 30
0.0
 10
1.337129921259842
 20
0.1627952755905512
 30
0.0
 10
1.337129921259842
 20
0.1627952755905512
 30
0.0
 10
1.337129921259842
 20
0.1627952755905512
 30
0.0
 10
1.337129921259842
 20
0.1627952755905512
 30
0.0
 10
1.055633858267716
 20
0.1627952755905512
 30
0.0
 10
1.055633858267716
 20
0.1627952755905512
 30
0.0
 10
1.055633858267716
 20
0.1627952755905512
 30
0.0
 10
1.055633858267716
 20
0.1627952755905512
 30
0.0
 10
1.055633858267716
 20
0.2809055118110236
 30
0.0
 10
1.055633858267716
 20
0.2809055118110236
 30
0.0
 10
1.055633858267716
 20
0.2809055118110236
 30
0.0
 10
1.055633858267716
 20
0.2809055118110236
 30
0.0
 10
0.7859488188976378
 20
0.2809055118110236
 30
0.0
 10
0.7859488188976378
 20
0.2809055118110236
 30
0.0
 10
0.7859488188976378
 20
0.2809055118110236
 30
0.0
 10
0.7859488188976378
 20
0.2809055118110236
 30
0.0
 10
0.7859488188976378
 20
0.1627952755905512
 30
0.0
 10
0.7859488188976378
 20
0.1627952755905512
 30
0.0
 10
0.7859488188976378
 20
0.1627952755905512
 30
0.0
 10
0.7859488188976378
 20
0.1627952755905512
 30
0.0
 10
0.5044527559055119
 20
0.1627952755905512
 30
0.0
 10
0.5044527559055119
 20
0.1627952755905512
 30
0.0
 10
0.5044527559055119
 20
0.1627952755905512
 30
0.0
 10
0.5044527559055119
 20
0.1627952755905512
 30
0.0
 10
0.5044527559055119
 20
0.2809055118110236
 30
0.0
 10
0.5044527559055119
 20
0.2809055118110236
 30
0.0
 10
0.5044527559055119
 20
0.2809055118110236
 30
0.0
 10
0.5044527559055119
 20
0.2809055118110236
 30
0.0
 10
0.2347677165354331
 20
0.2809055118110236
 30
0.0
 10
0.2347677165354331
 20
0.2809055118110236
 30
0.0
 10
0.2347677165354331
 20
0.2809055118110236
 30
0.0
 10
0.2347677165354331
 20
0.2809055118110236
 30
0.0
 10
0.2347677165354331
 20
0.1627952755905512
 30
0.0
 10
0.2347677165354331
 20
0.1627952755905512
 30
0.0
 10
0.2347677165354331
 20
0.1627952755905512
 30
0.0
 10
0.2347677165354331
 20
0.1627952755905512
 30
0.0
 10
-0.0467283464566929
 20
0.1627952755905512
 30
0.0
 10
-0.0467283464566929
 20
0.1627952755905512
 30
0.0
 10
-0.0467283464566929
 20
0.1627952755905512
 30
0.0
 10
-0.0467283464566929
 20
0.1627952755905512
 30
0.0
 10
-0.0467283464566929
 20
0.2809055118110236
 30
0.0
 10
-0.0467283464566929
 20
0.2809055118110236
 30
0.0
 10
-0.0467283464566929
 20
0.2809055118110236
 30
0.0
 10
-0.0467283464566929
 20
0.2809055118110236
 30
0.0
 10
-0.3164133858267716
 20
0.2809055118110236
 30
0.0
 10
-0.3164133858267716
 20
0.2809055118110236
 30
0.0
 10
-0.3164133858267716
 20
0.2809055118110236
 30
0.0
 10
-0.3164133858267716
 20
0.2809055118110236
 30
0.0
 10
-0.3164133858267716
 20
0.1627952755905512
 30
0.0
 10
-0.3164133858267716
 20
0.1627952755905512
 30
0.0
 10
-0.3164133858267716
 20
0.1627952755905512
 30
0.0
 10
-0.3164133858267716
 20
0.1627952755905512
 30
0.0
 10
-0.5979094488188976
 20
0.1627952755905512
 30
0.0
 10
-0.5979094488188976
 20
0.1627952755905512
 30
0.0
 10
-0.5979094488188976
 20
0.1627952755905512
 30
0.0
 10
-0.5979094488188976
 20
0.1627952755905512
 30
0.0
 10
-0.5979094488188976
 20
0.2809055118110236
 30
0.0
 10
-0.5979094488188976
 20
0.2809055118110236
 30
0.0
 10
-0.5979094488188976
 20
0.2809055118110236
 30
0.0
 10
-0.5979094488188976
 20
0.2809055118110236
 30
0.0
 10
-1.010311023622047
 20
0.2809055118110236
 30
0.0
 10
-1.010311023622047
 20
0.2809055118110236
 30
0.0
 10
-1.010311023622047
 20
0.2809055118110236
 30
0.0
 10
-1.010311023622047
 20
0.2809055118110236
 30
0.0
 10
-1.010311023622047
 20
0.1627952755905512
 30
0.0
 10
-1.010311023622047
 20
0.1627952755905512
 30
0.0
 10
-1.010311023622047
 20
0.1627952755905512
 30
0.0
 10
-1.010311023622047
 20
0.1627952755905512
 30
0.0
 10
-1.434523622047244
 20
0.1627952755905512
 30
0.0
 10
-1.434523622047244
 20
0.1627952755905512
 30
0.0
 10
-1.434523622047244
 20
0.1627952755905512
 30
0.0
 10
-1.434523622047244
 20
0.1627952755905512
 30
0.0
 10
-1.434523622047244
 20
0.4561023622047244
 30
0.0
 10
-1.434523622047244
 20
0.4561023622047244
 30
0.0
 10
-1.434523622047244
 20
0.4561023622047244
 30
0.0
 10
-1.434523622047244
 20
0.4561023622047244
 30
0.0
 10
-1.316413385826772
 20
0.4561023622047244
 30
0.0
 10
-1.316413385826772
 20
0.4561023622047244
 30
0.0
 10
-1.316413385826772
 20
0.4561023622047244
 30
0.0
 10
-1.316413385826772
 20
0.4561023622047244
 30
0.0
 10
-1.316413385826772
 20
0.7375984251968504
 30
0.0
 10
-1.316413385826772
 20
0.7375984251968504
 30
0.0
 10
-1.316413385826772
 20
0.7375984251968504
 30
0.0
 10
-1.316413385826772
 20
0.7375984251968504
 30
0.0
 10
-1.434523622047244
 20
0.7375984251968504
 30
0.0
 10
-1.434523622047244
 20
0.7375984251968504
 30
0.0
 10
-1.434523622047244
 20
0.7375984251968504
 30
0.0
 10
-1.434523622047244
 20
0.7375984251968504
 30
0.0
 10
-1.434523622047244
 20
1.030905511811024
 30
0.0
 10
-1.434523622047244
 20
1.030905511811024
 30
0.0
 10
-1.434523622047244
 20
1.030905511811024
 30
0.0
 10
-1.434523622047244
 20
1.030905511811024
 30
0.0
 10
-1.316413385826772
 20
1.030905511811024
 30
0.0
 10
-1.316413385826772
 20
1.030905511811024
 30
0.0
 10
-1.316413385826772
 20
1.030905511811024
 30
0.0
 10
-1.316413385826772
 20
1.030905511811024
 30
0.0
 10
-1.316413385826772
 20
1.31240157480315
 30
0.0
 10
-1.316413385826772
 20
1.31240157480315
 30
0.0
 10
-1.316413385826772
 20
1.31240157480315
 30
0.0
 10
-1.316413385826772
 20
1.31240157480315
 30
0.0
 10
-1.434523622047244
 20
1.31240157480315
 30
0.0
 10
-1.434523622047244
 20
1.31240157480315
 30
0.0
 10
-1.434523622047244
 20
1.31240157480315
 30
0.0
 10
-1.434523622047244
 20
1.31240157480315
 30
0.0
 10
-1.434523622047244
 20
1.605708661417323
 30
0.0
 10
-1.434523622047244
 20
1.605708661417323
 30
0.0
  0
SPLINE
  5
43
330
1F
100
AcDbEntity
  8
MAIN_0.075 kerf
 62
   250
370
     9
100
AcDbSpline
210
0.0
220
0.0
230
1.0
 70
    11
 71
     3
 72
   212
 73
   208
 74
     0
 42
0.0000000001
 43
0.0000000001
 40
0.0
 40
0.0
 40
0.0
 40
0.0
 40
0.0188679245283019
 40
0.0188679245283019
 40
0.0188679245283019
 40
0.0188679245283019
 40
0.0377358490566038
 40
0.0377358490566038
 40
0.0377358490566038
 40
0.0377358490566038
 40
0.0566037735849057
 40
0.0566037735849057
 40
0.0566037735849057
 40
0.0566037735849057
 40
0.0754716981132075
 40
0.0754716981132075
 40
0.0754716981132075
 40
0.0754716981132075
 40
0.0943396226415094
 40
0.0943396226415094
 40
0.0943396226415094
 40
0.0943396226415094
 40
0.1132075471698113
 40
0.1132075471698113
 40
0.1132075471698113
 40
0.1132075471698113
 40
0.1320754716981132
 40
0.1320754716981132
 40
0.1320754716981132
 40
0.1320754716981132
 40
0.1509433962264151
 40
0.1509433962264151
 40
0.1509433962264151
 40
0.1509433962264151
 40
0.169811320754717
 40
0.169811320754717
 40
0.169811320754717
 40
0.169811320754717
 40
0.1886792452830189
 40
0.1886792452830189
 40
0.1886792452830189
 40
0.1886792452830189
 40
0.2075471698113208
 40
0.2075471698113208
 40
0.2075471698113208
 40
0.2075471698113208
 40
0.2264150943396226
 40
0.2264150943396226
 40
0.2264150943396226
 40
0.2264150943396226
 40
0.2452830188679245
 40
0.2452830188679245
 40
0.2452830188679245
 40
0.2452830188679245
 40
0.2641509433962264
 40
0.2641509433962264
 40
0.2641509433962264
 40
0.2641509433962264
 40
0.2830188679245283
 40
0.2830188679245283
 40
0.2830188679245283
 40
0.2830188679245283
 40
0.3018867924528302
 40
0.3018867924528302
 40
0.3018867924528302
 40
0.3018867924528302
 40
0.3207547169811321
 40
0.3207547169811321
 40
0.3207547169811321
 40
0.3207547169811321
 40
0.3396226415094339
 40
0.3396226415094339
 40
0.3396226415094339
 40
0.3396226415094339
 40
0.3584905660377358
 40
0.3584905660377358
 40
0.3584905660377358
 40
0.3584905660377358
 40
0.3773584905660378
 40
0.3773584905660378
 40
0.3773584905660378
 40
0.3773584905660378
 40
0.3962264150943396
 40
0.3962264150943396
 40
0.3962264150943396
 40
0.3962264150943396
 40
0.4150943396226415
 40
0.4150943396226415
 40
0.4150943396226415
 40
0.4150943396226415
 40
0.4339622641509434
 40
0.4339622641509434
 40
0.4339622641509434
 40
0.4339622641509434
 40
0.4528301886792453
 40
0.4528301886792453
 40
0.4528301886792453
 40
0.4528301886792453
 40
0.4716981132075472
 40
0.4716981132075472
 40
0.4716981132075472
 40
0.4716981132075472
 40
0.4905660377358491
 40
0.4905660377358491
 40
0.4905660377358491
 40
0.4905660377358491
 40
0.5094339622641509
 40
0.5094339622641509
 40
0.5094339622641509
 40
0.5094339622641509
 40
0.5283018867924528
 40
0.5283018867924528
 40
0.5283018867924528
 40
0.5283018867924528
 40
0.5471698113207547
 40
0.5471698113207547
 40
0.5471698113207547
 40
0.5471698113207547
 40
0.5660377358490566
 40
0.5660377358490566
 40
0.5660377358490566
 40
0.5660377358490566
 40
0.5849056603773585
 40
0.5849056603773585
 40
0.5849056603773585
 40
0.5849056603773585
 40
0.6037735849056604
 40
0.6037735849056604
 40
0.6037735849056604
 40
0.6037735849056604
 40
0.6226415094339622
 40
0.6226415094339622
 40
0.6226415094339622
 40
0.6226415094339622
 40
0.6415094339622641
 40
0.6415094339622641
 40
0.6415094339622641
 40
0.6415094339622641
 40
0.660377358490566
 40
0.660377358490566
 40
0.660377358490566
 40
0.660377358490566
 40
0.6792452830188679
 40
0.6792452830188679
 40
0.6792452830188679
 40
0.6792452830188679
 40
0.6981132075471698
 40
0.6981132075471698
 40
0.6981132075471698
 40
0.6981132075471698
 40
0.7169811320754716
 40
0.7169811320754716
 40
0.7169811320754716
 40
0.7169811320754716
 40
0.7358490566037735
 40
0.7358490566037735
 40
0.7358490566037735
 40
0.7358490566037735
 40
0.7547169811320755
 40
0.7547169811320755
 40
0.7547169811320755
 40
0.7547169811320755
 40
0.7735849056603774
 40
0.7735849056603774
 40
0.7735849056603774
 40
0.7735849056603774
 40
0.7924528301886793
 40
0.7924528301886793
 40
0.7924528301886793
 40
0.7924528301886793
 40
0.8113207547169812
 40
0.8113207547169812
 40
0.8113207547169812
 40
0.8113207547169812
 40
0.8301886792452831
 40
0.8301886792452831
 40
0.8301886792452831
 40
0.8301886792452831
 40
0.8490566037735849
 40
0.8490566037735849
 40
0.8490566037735849
 40
0.8490566037735849
 40
0.8679245283018868
 40
0.8679245283018868
 40
0.8679245283018868
 40
0.8679245283018868
 40
0.8867924528301887
 40
0.8867924528301887
 40
0.8867924528301887
 40
0.8867924528301887
 40
0.9056603773584906
 40
0.9056603773584906
 40
0.9056603773584906
 40
0.9056603773584906
 40
0.9245283018867925
 40
0.9245283018867925
 40
0.9245283018867925
 40
0.9245283018867925
 40
0.9433962264150944
 40
0.9433962264150944
 40
0.9433962264150944
 40
0.9433962264150944
 40
0.9622641509433962
 40
0.9622641509433962
 40
0.9622641509433962
 40
0.9622641509433962
 40
1.0
 40
1.0
 40
1.0
 40
1.0
 10
3.618625984251969
 20
0.0429803149606299
 30
0.0
 10
3.618625984251969
 20
0.0429803149606299
 30
0.0
 10
3.618625984251969
 20
-0.2286732283464567
 30
0.0
 10
3.618625984251969
 20
-0.2286732283464567
 30
0.0
 10
3.618625984251969
 20
-0.2286732283464567
 30
0.0
 10
3.618625984251969
 20
-0.2286732283464567
 30
0.0
 10
3.500515748031496
 20
-0.2286732283464567
 30
0.0
 10
3.500515748031496
 20
-0.2286732283464567
 30
0.0
 10
3.500515748031496
 20
-0.2286732283464567
 30
0.0
 10
3.500515748031496
 20
-0.2286732283464567
 30
0.0
 10
3.500515748031496
 20
-0.6066259842519685
 30
0.0
 10
3.500515748031496
 20
-0.6066259842519685
 30
0.0
 10
3.500515748031496
 20
-0.6066259842519685
 30
0.0
 10
3.500515748031496
 20
-0.6066259842519685
 30
0.0
 10
3.618625984251969
 20
-0.6066259842519685
 30
0.0
 10
3.618625984251969
 20
-0.6066259842519685
 30
0.0
 10
3.618625984251969
 20
-0.6066259842519685
 30
0.0
 10
3.618625984251969
 20
-0.6066259842519685
 30
0.0
 10
3.618625984251969
 20
-0.8881220472440945
 30
0.0
 10
3.618625984251969
 20
-0.8881220472440945
 30
0.0
 10
3.618625984251969
 20
-0.8881220472440945
 30
0.0
 10
3.618625984251969
 20
-0.8881220472440945
 30
0.0
 10
3.500515748031496
 20
-0.8881220472440945
 30
0.0
 10
3.500515748031496
 20
-0.8881220472440945
 30
0.0
 10
3.500515748031496
 20
-0.8881220472440945
 30
0.0
 10
3.500515748031496
 20
-0.8881220472440945
 30
0.0
 10
3.500515748031496
 20
-1.157807086614173
 30
0.0
 10
3.500515748031496
 20
-1.157807086614173
 30
0.0
 10
3.500515748031496
 20
-1.157807086614173
 30
0.0
 10
3.500515748031496
 20
-1.157807086614173
 30
0.0
 10
3.618625984251969
 20
-1.157807086614173
 30
0.0
 10
3.618625984251969
 20
-1.157807086614173
 30
0.0
 10
3.618625984251969
 20
-1.157807086614173
 30
0.0
 10
3.618625984251969
 20
-1.157807086614173
 30
0.0
 10
3.618625984251969
 20
-1.439303149606299
 30
0.0
 10
3.618625984251969
 20
-1.439303149606299
 30
0.0
 10
3.618625984251969
 20
-1.439303149606299
 30
0.0
 10
3.618625984251969
 20
-1.439303149606299
 30
0.0
 10
3.500515748031496
 20
-1.439303149606299
 30
0.0
 10
3.500515748031496
 20
-1.439303149606299
 30
0.0
 10
3.500515748031496
 20
-1.439303149606299
 30
0.0
 10
3.500515748031496
 20
-1.439303149606299
 30
0.0
 10
3.500515748031496
 20
-1.708988188976378
 30
0.0
 10
3.500515748031496
 20
-1.708988188976378
 30
0.0
 10
3.500515748031496
 20
-1.708988188976378
 30
0.0
 10
3.500515748031496
 20
-1.708988188976378
 30
0.0
 10
3.618625984251969
 20
-1.708988188976378
 30
0.0
 10
3.618625984251969
 20
-1.708988188976378
 30
0.0
 10
3.618625984251969
 20
-1.708988188976378
 30
0.0
 10
3.618625984251969
 20
-1.708988188976378
 30
0.0
 10
3.618625984251969
 20
-1.990484251968504
 30
0.0
 10
3.618625984251969
 20
-1.990484251968504
 30
0.0
 10
3.618625984251969
 20
-1.990484251968504
 30
0.0
 10
3.618625984251969
 20
-1.990484251968504
 30
0.0
 10
3.500515748031496
 20
-1.990484251968504
 30
0.0
 10
3.500515748031496
 20
-1.990484251968504
 30
0.0
 10
3.500515748031496
 20
-1.990484251968504
 30
0.0
 10
3.500515748031496
 20
-1.990484251968504
 30
0.0
 10
3.500515748031496
 20
-2.368437007874016
 30
0.0
 10
3.500515748031496
 20
-2.368437007874016
 30
0.0
 10
3.500515748031496
 20
-2.368437007874016
 30
0.0
 10
3.500515748031496
 20
-2.368437007874016
 30
0.0
 10
3.618625984251969
 20
-2.368437007874016
 30
0.0
 10
3.618625984251969
 20
-2.368437007874016
 30
0.0
 10
3.618625984251969
 20
-2.368437007874016
 30
0.0
 10
3.618625984251969
 20
-2.368437007874016
 30
0.0
 10
3.618625984251969
 20
-2.640090551181102
 30
0.0
 10
3.618625984251969
 20
-2.640090551181102
 30
0.0
 10
3.618625984251969
 20
-2.640090551181102
 30
0.0
 10
3.618625984251969
 20
-2.640090551181102
 30
0.0
 10
3.331224409448819
 20
-2.640090551181102
 30
0.0
 10
3.331224409448819
 20
-2.640090551181102
 30
0.0
 10
3.331224409448819
 20
-2.640090551181102
 30
0.0
 10
3.331224409448819
 20
-2.640090551181102
 30
0.0
 10
3.331224409448819
 20
-2.758200787401575
 30
0.0
 10
3.331224409448819
 20
-2.758200787401575
 30
0.0
 10
3.331224409448819
 20
-2.758200787401575
 30
0.0
 10
3.331224409448819
 20
-2.758200787401575
 30
0.0
 10
3.037917322834646
 20
-2.758200787401575
 30
0.0
 10
3.037917322834646
 20
-2.758200787401575
 30
0.0
 10
3.037917322834646
 20
-2.758200787401575
 30
0.0
 10
3.037917322834646
 20
-2.758200787401575
 30
0.0
 10
3.037917322834646
 20
-2.640090551181102
 30
0.0
 10
3.037917322834646
 20
-2.640090551181102
 30
0.0
 10
3.037917322834646
 20
-2.640090551181102
 30
0.0
 10
3.037917322834646
 20
-2.640090551181102
 30
0.0
 10
2.75642125984252
 20
-2.640090551181102
 30
0.0
 10
2.75642125984252
 20
-2.640090551181102
 30
0.0
 10
2.75642125984252
 20
-2.640090551181102
 30
0.0
 10
2.75642125984252
 20
-2.640090551181102
 30
0.0
 10
2.75642125984252
 20
-2.758200787401575
 30
0.0
 10
2.75642125984252
 20
-2.758200787401575
 30
0.0
 10
2.75642125984252
 20
-2.758200787401575
 30
0.0
 10
2.75642125984252
 20
-2.758200787401575
 30
0.0
 10
2.463114173228346
 20
-2.758200787401575
 30
0.0
 10
2.463114173228346
 20
-2.758200787401575
 30
0.0
 10
2.463114173228346
 20
-2.758200787401575
 30
0.0
 10
2.463114173228346
 20
-2.758200787401575
 30
0.0
 10
2.463114173228346
 20
-2.640090551181102
 30
0.0
 10
2.463114173228346
 20
-2.640090551181102
 30
0.0
 10
2.463114173228346
 20
-2.640090551181102
 30
0.0
 10
2.463114173228346
 20
-2.640090551181102
 30
0.0
 10
2.175712598425197
 20
-2.640090551181102
 30
0.0
 10
2.175712598425197
 20
-2.640090551181102
 30
0.0
 10
2.175712598425197
 20
-2.640090551181102
 30
0.0
 10
2.175712598425197
 20
-2.640090551181102
 30
0.0
 10
2.175712598425197
 20
-2.368437007874016
 30
0.0
 10
2.175712598425197
 20
-2.368437007874016
 30
0.0
 10
2.175712598425197
 20
-2.368437007874016
 30
0.0
 10
2.175712598425197
 20
-2.368437007874016
 30
0.0
 10
2.293822834645669
 20
-2.368437007874016
 30
0.0
 10
2.293822834645669
 20
-2.368437007874016
 30
0.0
 10
2.293822834645669
 20
-2.368437007874016
 30
0.0
 10
2.293822834645669
 20
-2.368437007874016
 30
0.0
 10
2.293822834645669
 20
-1.990484251968504
 30
0.0
 10
2.293822834645669
 20
-1.990484251968504
 30
0.0
 10
2.293822834645669
 20
-1.990484251968504
 30
0.0
 10
2.293822834645669
 20
-1.990484251968504
 30
0.0
 10
2.175712598425197
 20
-1.990484251968504
 30
0.0
 10
2.175712598425197
 20
-1.990484251968504
 30
0.0
 10
2.175712598425197
 20
-1.990484251968504
 30
0.0
 10
2.175712598425197
 20
-1.990484251968504
 30
0.0
 10
2.175712598425197
 20
-1.708988188976378
 30
0.0
 10
2.175712598425197
 20
-1.708988188976378
 30
0.0
 10
2.175712598425197
 20
-1.708988188976378
 30
0.0
 10
2.175712598425197
 20
-1.708988188976378
 30
0.0
 10
2.293822834645669
 20
-1.708988188976378
 30
0.0
 10
2.293822834645669
 20
-1.708988188976378
 30
0.0
 10
2.293822834645669
 20
-1.708988188976378
 30
0.0
 10
2.293822834645669
 20
-1.708988188976378
 30
0.0
 10
2.293822834645669
 20
-1.439303149606299
 30
0.0
 10
2.293822834645669
 20
-1.439303149606299
 30
0.0
 10
2.293822834645669
 20
-1.439303149606299
 30
0.0
 10
2.293822834645669
 20
-1.439303149606299
 30
0.0
 10
2.175712598425197
 20
-1.439303149606299
 30
0.0
 10
2.175712598425197
 20
-1.439303149606299
 30
0.0
 10
2.175712598425197
 20
-1.439303149606299
 30
0.0
 10
2.175712598425197
 20
-1.439303149606299
 30
0.0
 10
2.175712598425197
 20
-1.157807086614173
 30
0.0
 10
2.175712598425197
 20
-1.157807086614173
 30
0.0
 10
2.175712598425197
 20
-1.157807086614173
 30
0.0
 10
2.175712598425197
 20
-1.157807086614173
 30
0.0
 10
2.293822834645669
 20
-1.157807086614173
 30
0.0
 10
2.293822834645669
 20
-1.157807086614173
 30
0.0
 10
2.293822834645669
 20
-1.157807086614173
 30
0.0
 10
2.293822834645669
 20
-1.157807086614173
 30
0.0
 10
2.293822834645669
 20
-0.8881220472440945
 30
0.0
 10
2.293822834645669
 20
-0.8881220472440945
 30
0.0
 10
2.293822834645669
 20
-0.8881220472440945
 30
0.0
 10
2.293822834645669
 20
-0.8881220472440945
 30
0.0
 10
2.175712598425197
 20
-0.8881220472440945
 30
0.0
 10
2.175712598425197
 20
-0.8881220472440945
 30
0.0
 10
2.175712598425197
 20
-0.8881220472440945
 30
0.0
 10
2.175712598425197
 20
-0.8881220472440945
 30
0.0
 10
2.175712598425197
 20
-0.6066259842519685
 30
0.0
 10
2.175712598425197
 20
-0.6066259842519685
 30
0.0
 10
2.175712598425197
 20
-0.6066259842519685
 30
0.0
 10
2.175712598425197
 20
-0.6066259842519685
 30
0.0
 10
2.293822834645669
 20
-0.6066259842519685
 30
0.0
 10
2.293822834645669
 20
-0.6066259842519685
 30
0.0
 10
2.293822834645669
 20
-0.6066259842519685
 30
0.0
 10
2.293822834645669
 20
-0.6066259842519685
 30
0.0
 10
2.293822834645669
 20
-0.2286732283464567
 30
0.0
 10
2.293822834645669
 20
-0.2286732283464567
 30
0.0
 10
2.293822834645669
 20
-0.2286732283464567
 30
0.0
 10
2.293822834645669
 20
-0.2286732283464567
 30
0.0
 10
2.175712598425197
 20
-0.2286732283464567
 30
0.0
 10
2.175712598425197
 20
-0.2286732283464567
 30
0.0
 10
2.175712598425197
 20
-0.2286732283464567
 30
0.0
 10
2.175712598425197
 20
-0.2286732283464567
 30
0.0
 10
2.175712598425197
 20
0.0429803149606299
 30
0.0
 10
2.175712598425197
 20
0.0429803149606299
 30
0.0
 10
2.175712598425197
 20
0.0429803149606299
 30
0.0
 10
2.175712598425197
 20
0.0429803149606299
 30
0.0
 10
2.463114173228346
 20
0.0429803149606299
 30
0.0
 10
2.463114173228346
 20
0.0429803149606299
 30
0.0
 10
2.463114173228346
 20
0.0429803149606299
 30
0.0
 10
2.463114173228346
 20
0.0429803149606299
 30
0.0
 10
2.463114173228346
 20
0.1610905511811024
 30
0.0
 10
2.463114173228346
 20
0.1610905511811024
 30
0.0
 10
2.463114173228346
 20
0.1610905511811024
 30
0.0
 10
2.463114173228346
 20
0.1610905511811024
 30
0.0
 10
2.75642125984252
 20
0.1610905511811024
 30
0.0
 10
2.75642125984252
 20
0.1610905511811024
 30
0.0
 10
2.75642125984252
 20
0.1610905511811024
 30
0.0
 10
2.75642125984252
 20
0.1610905511811024
 30
0.0
 10
2.75642125984252
 20
0.0429803149606299
 30
0.0
 10
2.75642125984252
 20
0.0429803149606299
 30
0.0
 10
2.75642125984252
 20
0.0429803149606299
 30
0.0
 10
2.75642125984252
 20
0.0429803149606299
 30
0.0
 10
3.037917322834646
 20
0.0429803149606299
 30
0.0
 10
3.037917322834646
 20
0.0429803149606299
 30
0.0
 10
3.037917322834646
 20
0.0429803149606299
 30
0.0
 10
3.037917322834646
 20
0.0429803149606299
 30
0.0
 10
3.037917322834646
 20
0.1610905511811024
 30
0.0
 10
3.037917322834646
 20
0.1610905511811024
 30
0.0
 10
3.037917322834646
 20
0.1610905511811024
 30
0.0
 10
3.037917322834646
 20
0.1610905511811024
 30
0.0
 10
3.331224409448819
 20
0.1610905511811024
 30
0.0
 10
3.331224409448819
 20
0.1610905511811024
 30
0.0
 10
3.331224409448819
 20
0.1610905511811024
 30
0.0
 10
3.331224409448819
 20
0.1610905511811024
 30
0.0
 10
3.331224409448819
 20
0.0429803149606299
 30
0.0
 10
3.331224409448819
 20
0.0429803149606299
 30
0.0
 10
3.331224409448819
 20
0.0429803149606299
 30
0.0
 10
3.331224409448819
 20
0.0429803149606299
 30
0.0
 10
3.618625984251969
 20
0.0429803149606299
 30
0.0
 10
3.618625984251969
 20
0.0429803149606299
 30
0.0
  0
SPLINE
  5
44
330
1F
100
AcDbEntity
  8
MAIN_0.075 kerf
 62
   250
370
     9
100
AcDbSpline
210
0.0
220
0.0
230
1.0
 70
    11
 71
     3
 72
   200
 73
   196
 74
     0
 42
0.0000000001
 43
0.0000000001
 40
0.0
 40
0.0
 40
0.0
 40
0.0
 40
0.02
 40
0.02
 40
0.02
 40
0.02
 40
0.04
 40
0.04
 40
0.04
 40
0.04
 40
0.06
 40
0.06
 40
0.06
 40
0.06
 40
0.08
 40
0.08
 40
0.08
 40
0.08
 40
0.1
 40
0.1
 40
0.1
 40
0.1
 40
0.12
 40
0.12
 40
0.12
 40
0.12
 40
0.14
 40
0.14
 40
0.14
 40
0.14
 40
0.16
 40
0.16
 40
0.16
 40
0.16
 40
0.18
 40
0.18
 40
0.18
 40
0.18
 40
0.2
 40
0.2
 40
0.2
 40
0.2
 40
0.22
 40
0.22
 40
0.22
 40
0.22
 40
0.24
 40
0.24
 40
0.24
 40
0.24
 40
0.26
 40
0.26
 40
0.26
 40
0.26
 40
0.28
 40
0.28
 40
0.28
 40
0.28
 40
0.3
 40
0.3
 40
0.3
 40
0.3
 40
0.32
 40
0.32
 40
0.32
 40
0.32
 40
0.34
 40
0.34
 40
0.34
 40
0.34
 40
0.36
 40
0.36
 40
0.36
 40
0.36
 40
0.38
 40
0.38
 40
0.38
 40
0.38
 40
0.4
 40
0.4
 40
0.4
 40
0.4
 40
0.42
 40
0.42
 40
0.42
 40
0.42
 40
0.44
 40
0.44
 40
0.44
 40
0.44
 40
0.46
 40
0.46
 40
0.46
 40
0.46
 40
0.48
 40
0.48
 40
0.48
 40
0.48
 40
0.5
 40
0.5
 40
0.5
 40
0.5
 40
0.52
 40
0.52
 40
0.52
 40
0.52
 40
0.54
 40
0.54
 40
0.54
 40
0.54
 40
0.56
 40
0.56
 40
0.56
 40
0.56
 40
0.58
 40
0.58
 40
0.58
 40
0.58
 40
0.6
 40
0.6
 40
0.6
 40
0.6
 40
0.62
 40
0.62
 40
0.62
 40
0.62
 40
0.64
 40
0.64
 40
0.64
 40
0.64
 40
0.66
 40
0.66
 40
0.66
 40
0.66
 40
0.68
 40
0.68
 40
0.68
 40
0.68
 40
0.7
 40
0.7
 40
0.7
 40
0.7
 40
0.72
 40
0.72
 40
0.72
 40
0.72
 40
0.74
 40
0.74
 40
0.74
 40
0.74
 40
0.76
 40
0.76
 40
0.76
 40
0.76
 40
0.78
 40
0.78
 40
0.78
 40
0.78
 40
0.8
 40
0.8
 40
0.8
 40
0.8
 40
0.82
 40
0.82
 40
0.82
 40
0.82
 40
0.84
 40
0.84
 40
0.84
 40
0.84
 40
0.86
 40
0.86
 40
0.86
 40
0.86
 40
0.88
 40
0.88
 40
0.88
 40
0.88
 40
0.9
 40
0.9
 40
0.9
 40
0.9
 40
0.92
 40
0.92
 40
0.92
 40
0.92
 40
0.94
 40
0.94
 40
0.94
 40
0.94
 40
0.96
 40
0.96
 40
0.96
 40
0.96
 40
1.0
 40
1.0
 40
1.0
 40
1.0
 10
-2.879732283464567
 20
-2.640090551181102
 30
0.0
 10
-2.879732283464567
 20
-2.640090551181102
 30
0.0
 10
-2.879732283464567
 20
-2.368437007874016
 30
0.0
 10
-2.879732283464567
 20
-2.368437007874016
 30
0.0
 10
-2.879732283464567
 20
-2.368437007874016
 30
0.0
 10
-2.879732283464567
 20
-2.368437007874016
 30
0.0
 10
-2.761622047244094
 20
-2.368437007874016
 30
0.0
 10
-2.761622047244094
 20
-2.368437007874016
 30
0.0
 10
-2.761622047244094
 20
-2.368437007874016
 30
0.0
 10
-2.761622047244094
 20
-2.368437007874016
 30
0.0
 10
-2.761622047244094
 20
-1.990484251968504
 30
0.0
 10
-2.761622047244094
 20
-1.990484251968504
 30
0.0
 10
-2.761622047244094
 20
-1.990484251968504
 30
0.0
 10
-2.761622047244094
 20
-1.990484251968504
 30
0.0
 10
-2.879732283464567
 20
-1.990484251968504
 30
0.0
 10
-2.879732283464567
 20
-1.990484251968504
 30
0.0
 10
-2.879732283464567
 20
-1.990484251968504
 30
0.0
 10
-2.879732283464567
 20
-1.990484251968504
 30
0.0
 10
-2.879732283464567
 20
-1.708988188976378
 30
0.0
 10
-2.879732283464567
 20
-1.708988188976378
 30
0.0
 10
-2.879732283464567
 20
-1.708988188976378
 30
0.0
 10
-2.879732283464567
 20
-1.708988188976378
 30
0.0
 10
-2.761622047244094
 20
-1.708988188976378
 30
0.0
 10
-2.761622047244094
 20
-1.708988188976378
 30
0.0
 10
-2.761622047244094
 20
-1.708988188976378
 30
0.0
 10
-2.761622047244094
 20
-1.708988188976378
 30
0.0
 10
-2.761622047244094
 20
-1.439303149606299
 30
0.0
 10
-2.761622047244094
 20
-1.439303149606299
 30
0.0
 10
-2.761622047244094
 20
-1.439303149606299
 30
0.0
 10
-2.761622047244094
 20
-1.439303149606299
 30
0.0
 10
-2.879732283464567
 20
-1.439303149606299
 30
0.0
 10
-2.879732283464567
 20
-1.439303149606299
 30
0.0
 10
-2.879732283464567
 20
-1.439303149606299
 30
0.0
 10
-2.879732283464567
 20
-1.439303149606299
 30
0.0
 10
-2.879732283464567
 20
-1.157807086614173
 30
0.0
 10
-2.879732283464567
 20
-1.157807086614173
 30
0.0
 10
-2.879732283464567
 20
-1.157807086614173
 30
0.0
 10
-2.879732283464567
 20
-1.157807086614173
 30
0.0
 10
-2.761622047244094
 20
-1.157807086614173
 30
0.0
 10
-2.761622047244094
 20
-1.157807086614173
 30
0.0
 10
-2.761622047244094
 20
-1.157807086614173
 30
0.0
 10
-2.761622047244094
 20
-1.157807086614173
 30
0.0
 10
-2.761622047244094
 20
-0.8881220472440945
 30
0.0
 10
-2.761622047244094
 20
-0.8881220472440945
 30
0.0
 10
-2.761622047244094
 20
-0.8881220472440945
 30
0.0
 10
-2.761622047244094
 20
-0.8881220472440945
 30
0.0
 10
-2.879732283464567
 20
-0.8881220472440945
 30
0.0
 10
-2.879732283464567
 20
-0.8881220472440945
 30
0.0
 10
-2.879732283464567
 20
-0.8881220472440945
 30
0.0
 10
-2.879732283464567
 20
-0.8881220472440945
 30
0.0
 10
-2.879732283464567
 20
-0.6066259842519685
 30
0.0
 10
-2.879732283464567
 20
-0.6066259842519685
 30
0.0
 10
-2.879732283464567
 20
-0.6066259842519685
 30
0.0
 10
-2.879732283464567
 20
-0.6066259842519685
 30
0.0
 10
-2.761622047244094
 20
-0.6066259842519685
 30
0.0
 10
-2.761622047244094
 20
-0.6066259842519685
 30
0.0
 10
-2.761622047244094
 20
-0.6066259842519685
 30
0.0
 10
-2.761622047244094
 20
-0.6066259842519685
 30
0.0
 10
-2.761622047244094
 20
-0.2286732283464567
 30
0.0
 10
-2.761622047244094
 20
-0.2286732283464567
 30
0.0
 10
-2.761622047244094
 20
-0.2286732283464567
 30
0.0
 10
-2.761622047244094
 20
-0.2286732283464567
 30
0.0
 10
-2.879732283464567
 20
-0.2286732283464567
 30
0.0
 10
-2.879732283464567
 20
-0.2286732283464567
 30
0.0
 10
-2.879732283464567
 20
-0.2286732283464567
 30
0.0
 10
-2.879732283464567
 20
-0.2286732283464567
 30
0.0
 10
-2.879732283464567
 20
0.0429803149606299
 30
0.0
 10
-2.879732283464567
 20
0.0429803149606299
 30
0.0
 10
-2.879732283464567
 20
0.0429803149606299
 30
0.0
 10
-2.879732283464567
 20
0.0429803149606299
 30
0.0
 10
-2.592330708661417
 20
0.0429803149606299
 30
0.0
 10
-2.592330708661417
 20
0.0429803149606299
 30
0.0
 10
-2.592330708661417
 20
0.0429803149606299
 30
0.0
 10
-2.592330708661417
 20
0.0429803149606299
 30
0.0
 10
-2.592330708661417
 20
0.1610905511811024
 30
0.0
 10
-2.592330708661417
 20
0.1610905511811024
 30
0.0
 10
-2.592330708661417
 20
0.1610905511811024
 30
0.0
 10
-2.592330708661417
 20
0.1610905511811024
 30
0.0
 10
-2.299023622047244
 20
0.1610905511811024
 30
0.0
 10
-2.299023622047244
 20
0.1610905511811024
 30
0.0
 10
-2.299023622047244
 20
0.1610905511811024
 30
0.0
 10
-2.299023622047244
 20
0.1610905511811024
 30
0.0
 10
-2.299023622047244
 20
0.0429803149606299
 30
0.0
 10
-2.299023622047244
 20
0.0429803149606299
 30
0.0
 10
-2.299023622047244
 20
0.0429803149606299
 30
0.0
 10
-2.299023622047244
 20
0.0429803149606299
 30
0.0
 10
-2.017527559055118
 20
0.0429803149606299
 30
0.0
 10
-2.017527559055118
 20
0.0429803149606299
 30
0.0
 10
-2.017527559055118
 20
0.0429803149606299
 30
0.0
 10
-2.017527559055118
 20
0.0429803149606299
 30
0.0
 10
-2.017527559055118
 20
0.1610905511811024
 30
0.0
 10
-2.017527559055118
 20
0.1610905511811024
 30
0.0
 10
-2.017527559055118
 20
0.1610905511811024
 30
0.0
 10
-2.017527559055118
 20
0.1610905511811024
 30
0.0
 10
-1.724220472440945
 20
0.1610905511811024
 30
0.0
 10
-1.724220472440945
 20
0.1610905511811024
 30
0.0
 10
-1.724220472440945
 20
0.1610905511811024
 30
0.0
 10
-1.724220472440945
 20
0.1610905511811024
 30
0.0
 10
-1.724220472440945
 20
0.0429803149606299
 30
0.0
 10
-1.724220472440945
 20
0.0429803149606299
 30
0.0
 10
-1.724220472440945
 20
0.0429803149606299
 30
0.0
 10
-1.724220472440945
 20
0.0429803149606299
 30
0.0
 10
-1.436818897637795
 20
0.0429803149606299
 30
0.0
 10
-1.436818897637795
 20
0.0429803149606299
 30
0.0
 10
-1.436818897637795
 20
0.0429803149606299
 30
0.0
 10
-1.436818897637795
 20
0.0429803149606299
 30
0.0
 10
-1.436818897637795
 20
-0.2286732283464567
 30
0.0
 10
-1.436818897637795
 20
-0.2286732283464567
 30
0.0
 10
-1.436818897637795
 20
-0.2286732283464567
 30
0.0
 10
-1.436818897637795
 20
-0.2286732283464567
 30
0.0
 10
-1.554929133858268
 20
-0.2286732283464567
 30
0.0
 10
-1.554929133858268
 20
-0.2286732283464567
 30
0.0
 10
-1.554929133858268
 20
-0.2286732283464567
 30
0.0
 10
-1.554929133858268
 20
-0.2286732283464567
 30
0.0
 10
-1.554929133858268
 20
-0.6066259842519685
 30
0.0
 10
-1.554929133858268
 20
-0.6066259842519685
 30
0.0
 10
-1.554929133858268
 20
-0.6066259842519685
 30
0.0
 10
-1.554929133858268
 20
-0.6066259842519685
 30
0.0
 10
-1.436818897637795
 20
-0.6066259842519685
 30
0.0
 10
-1.436818897637795
 20
-0.6066259842519685
 30
0.0
 10
-1.436818897637795
 20
-0.6066259842519685
 30
0.0
 10
-1.436818897637795
 20
-0.6066259842519685
 30
0.0
 10
-1.436818897637795
 20
-1.06440157480315
 30
0.0
 10
-1.436818897637795
 20
-1.06440157480315
 30
0.0
 10
-1.436818897637795
 20
-1.06440157480315
 30
0.0
 10
-1.436818897637795
 20
-1.06440157480315
 30
0.0
 10
-1.554929133858268
 20
-1.06440157480315
 30
0.0
 10
-1.554929133858268
 20
-1.06440157480315
 30
0.0
 10
-1.554929133858268
 20
-1.06440157480315
 30
0.0
 10
-1.554929133858268
 20
-1.06440157480315
 30
0.0
 10
-1.554929133858268
 20
-1.261972440944882
 30
0.0
 10
-1.554929133858268
 20
-1.261972440944882
 30
0.0
 10
-1.554929133858268
 20
-1.261972440944882
 30
0.0
 10
-1.554929133858268
 20
-1.261972440944882
 30
0.0
 10
-1.650389763779528
 20
-1.261972440944882
 30
0.0
 10
-1.650389763779528
 20
-1.261972440944882
 30
0.0
 10
-1.650389763779528
 20
-1.261972440944882
 30
0.0
 10
-1.650389763779528
 20
-1.261972440944882
 30
0.0
 10
-1.650389763779528
 20
-1.439303149606299
 30
0.0
 10
-1.650389763779528
 20
-1.439303149606299
 30
0.0
 10
-1.650389763779528
 20
-1.439303149606299
 30
0.0
 10
-1.650389763779528
 20
-1.439303149606299
 30
0.0
 10
-1.647948818897638
 20
-1.77457874015748
 30
0.0
 10
-1.647948818897638
 20
-1.77457874015748
 30
0.0
 10
-1.647948818897638
 20
-1.77457874015748
 30
0.0
 10
-1.647948818897638
 20
-1.77457874015748
 30
0.0
 10
-1.553944881889764
 20
-1.774374015748031
 30
0.0
 10
-1.553944881889764
 20
-1.774374015748031
 30
0.0
 10
-1.553944881889764
 20
-1.774374015748031
 30
0.0
 10
-1.553944881889764
 20
-1.774374015748031
 30
0.0
 10
-1.554929133858268
 20
-2.067338582677166
 30
0.0
 10
-1.554929133858268
 20
-2.067338582677166
 30
0.0
 10
-1.554929133858268
 20
-2.067338582677166
 30
0.0
 10
-1.554929133858268
 20
-2.067338582677166
 30
0.0
 10
-1.436818897637795
 20
-2.067338582677166
 30
0.0
 10
-1.436818897637795
 20
-2.067338582677166
 30
0.0
 10
-1.436818897637795
 20
-2.067338582677166
 30
0.0
 10
-1.436818897637795
 20
-2.067338582677166
 30
0.0
 10
-1.436818897637795
 20
-2.640090551181102
 30
0.0
 10
-1.436818897637795
 20
-2.640090551181102
 30
0.0
 10
-1.436818897637795
 20
-2.640090551181102
 30
0.0
 10
-1.436818897637795
 20
-2.640090551181102
 30
0.0
 10
-1.724220472440945
 20
-2.640090551181102
 30
0.0
 10
-1.724220472440945
 20
-2.640090551181102
 30
0.0
 10
-1.724220472440945
 20
-2.640090551181102
 30
0.0
 10
-1.724220472440945
 20
-2.640090551181102
 30
0.0
 10
-1.724220472440945
 20
-2.758200787401575
 30
0.0
 10
-1.724220472440945
 20
-2.758200787401575
 30
0.0
 10
-1.724220472440945
 20
-2.758200787401575
 30
0.0
 10
-1.724220472440945
 20
-2.758200787401575
 30
0.0
 10
-2.017527559055118
 20
-2.758200787401575
 30
0.0
 10
-2.017527559055118
 20
-2.758200787401575
 30
0.0
 10
-2.017527559055118
 20
-2.758200787401575
 30
0.0
 10
-2.017527559055118
 20
-2.758200787401575
 30
0.0
 10
-2.017527559055118
 20
-2.640090551181102
 30
0.0
 10
-2.017527559055118
 20
-2.640090551181102
 30
0.0
 10
-2.017527559055118
 20
-2.640090551181102
 30
0.0
 10
-2.017527559055118
 20
-2.640090551181102
 30
0.0
 10
-2.299023622047244
 20
-2.640090551181102
 30
0.0
 10
-2.299023622047244
 20
-2.640090551181102
 30
0.0
 10
-2.299023622047244
 20
-2.640090551181102
 30
0.0
 10
-2.299023622047244
 20
-2.640090551181102
 30
0.0
 10
-2.299023622047244
 20
-2.758200787401575
 30
0.0
 10
-2.299023622047244
 20
-2.758200787401575
 30
0.0
 10
-2.299023622047244
 20
-2.758200787401575
 30
0.0
 10
-2.299023622047244
 20
-2.758200787401575
 30
0.0
 10
-2.592330708661417
 20
-2.758200787401575
 30
0.0
 10
-2.592330708661417
 20
-2.758200787401575
 30
0.0
 10
-2.592330708661417
 20
-2.758200787401575
 30
0.0
 10
-2.592330708661417
 20
-2.758200787401575
 30
0.0
 10
-2.592330708661417
 20
-2.640090551181102
 30
0.0
 10
-2.592330708661417
 20
-2.640090551181102
 30
0.0
 10
-2.592330708661417
 20
-2.640090551181102
 30
0.0
 10
-2.592330708661417
 20
-2.640090551181102
 30
0.0
 10
-2.879732283464567
 20
-2.640090551181102
 30
0.0
 10
-2.879732283464567
 20
-2.640090551181102
 30
0.0
  0
SPLINE
  5
45
330
1F
100
AcDbEntity
  8
MAIN_0.075 kerf
 62
   250
370
     9
100
AcDbSpline
210
0.0
220
0.0
230
1.0
 70
    11
 71
     3
 72
   308
 73
   304
 74
     0
 42
0.0000000001
 43
0.0000000001
 40
0.0
 40
0.0
 40
0.0
 40
0.0
 40
0.012987012987013
 40
0.012987012987013
 40
0.012987012987013
 40
0.012987012987013
 40
0.025974025974026
 40
0.025974025974026
 40
0.025974025974026
 40
0.025974025974026
 40
0.038961038961039
 40
0.038961038961039
 40
0.038961038961039
 40
0.038961038961039
 40
0.051948051948052
 40
0.051948051948052
 40
0.051948051948052
 40
0.051948051948052
 40
0.0649350649350649
 40
0.0649350649350649
 40
0.0649350649350649
 40
0.0649350649350649
 40
0.0779220779220779
 40
0.0779220779220779
 40
0.0779220779220779
 40
0.0779220779220779
 40
0.0909090909090909
 40
0.0909090909090909
 40
0.0909090909090909
 40
0.0909090909090909
 40
0.1038961038961039
 40
0.1038961038961039
 40
0.1038961038961039
 40
0.1038961038961039
 40
0.1168831168831169
 40
0.1168831168831169
 40
0.1168831168831169
 40
0.1168831168831169
 40
0.1298701298701299
 40
0.1298701298701299
 40
0.1298701298701299
 40
0.1298701298701299
 40
0.1428571428571428
 40
0.1428571428571428
 40
0.1428571428571428
 40
0.1428571428571428
 40
0.1558441558441558
 40
0.1558441558441558
 40
0.1558441558441558
 40
0.1558441558441558
 40
0.1688311688311688
 40
0.1688311688311688
 40
0.1688311688311688
 40
0.1688311688311688
 40
0.1818181818181818
 40
0.1818181818181818
 40
0.1818181818181818
 40
0.1818181818181818
 40
0.1948051948051948
 40
0.1948051948051948
 40
0.1948051948051948
 40
0.1948051948051948
 40
0.2077922077922078
 40
0.2077922077922078
 40
0.2077922077922078
 40
0.2077922077922078
 40
0.2207792207792208
 40
0.2207792207792208
 40
0.2207792207792208
 40
0.2207792207792208
 40
0.2337662337662338
 40
0.2337662337662338
 40
0.2337662337662338
 40
0.2337662337662338
 40
0.2467532467532468
 40
0.2467532467532468
 40
0.2467532467532468
 40
0.2467532467532468
 40
0.2597402597402597
 40
0.2597402597402597
 40
0.2597402597402597
 40
0.2597402597402597
 40
0.2727272727272727
 40
0.2727272727272727
 40
0.2727272727272727
 40
0.2727272727272727
 40
0.2857142857142857
 40
0.2857142857142857
 40
0.2857142857142857
 40
0.2857142857142857
 40
0.2987012987012987
 40
0.2987012987012987
 40
0.2987012987012987
 40
0.2987012987012987
 40
0.3116883116883117
 40
0.3116883116883117
 40
0.3116883116883117
 40
0.3116883116883117
 40
0.3246753246753247
 40
0.3246753246753247
 40
0.3246753246753247
 40
0.3246753246753247
 40
0.3376623376623377
 40
0.3376623376623377
 40
0.3376623376623377
 40
0.3376623376623377
 40
0.3506493506493507
 40
0.3506493506493507
 40
0.3506493506493507
 40
0.3506493506493507
 40
0.3636363636363636
 40
0.3636363636363636
 40
0.3636363636363636
 40
0.3636363636363636
 40
0.3766233766233766
 40
0.3766233766233766
 40
0.3766233766233766
 40
0.3766233766233766
 40
0.3896103896103896
 40
0.3896103896103896
 40
0.3896103896103896
 40
0.3896103896103896
 40
0.4025974025974026
 40
0.4025974025974026
 40
0.4025974025974026
 40
0.4025974025974026
 40
0.4155844155844156
 40
0.4155844155844156
 40
0.4155844155844156
 40
0.4155844155844156
 40
0.4285714285714285
 40
0.4285714285714285
 40
0.4285714285714285
 40
0.4285714285714285
 40
0.4415584415584415
 40
0.4415584415584415
 40
0.4415584415584415
 40
0.4415584415584415
 40
0.4545454545454545
 40
0.4545454545454545
 40
0.4545454545454545
 40
0.4545454545454545
 40
0.4675324675324675
 40
0.4675324675324675
 40
0.4675324675324675
 40
0.4675324675324675
 40
0.4805194805194805
 40
0.4805194805194805
 40
0.4805194805194805
 40
0.4805194805194805
 40
0.4935064935064935
 40
0.4935064935064935
 40
0.4935064935064935
 40
0.4935064935064935
 40
0.5064935064935064
 40
0.5064935064935064
 40
0.5064935064935064
 40
0.5064935064935064
 40
0.5194805194805194
 40
0.5194805194805194
 40
0.5194805194805194
 40
0.5194805194805194
 40
0.5324675324675324
 40
0.5324675324675324
 40
0.5324675324675324
 40
0.5324675324675324
 40
0.5454545454545454
 40
0.5454545454545454
 40
0.5454545454545454
 40
0.5454545454545454
 40
0.5584415584415584
 40
0.5584415584415584
 40
0.5584415584415584
 40
0.5584415584415584
 40
0.5714285714285714
 40
0.5714285714285714
 40
0.5714285714285714
 40
0.5714285714285714
 40
0.5844155844155844
 40
0.5844155844155844
 40
0.5844155844155844
 40
0.5844155844155844
 40
0.5974025974025974
 40
0.5974025974025974
 40
0.5974025974025974
 40
0.5974025974025974
 40
0.6103896103896104
 40
0.6103896103896104
 40
0.6103896103896104
 40
0.6103896103896104
 40
0.6233766233766234
 40
0.6233766233766234
 40
0.6233766233766234
 40
0.6233766233766234
 40
0.6363636363636364
 40
0.6363636363636364
 40
0.6363636363636364
 40
0.6363636363636364
 40
0.6493506493506493
 40
0.6493506493506493
 40
0.6493506493506493
 40
0.6493506493506493
 40
0.6623376623376623
 40
0.6623376623376623
 40
0.6623376623376623
 40
0.6623376623376623
 40
0.6753246753246753
 40
0.6753246753246753
 40
0.6753246753246753
 40
0.6753246753246753
 40
0.6883116883116883
 40
0.6883116883116883
 40
0.6883116883116883
 40
0.6883116883116883
 40
0.7012987012987013
 40
0.7012987012987013
 40
0.7012987012987013
 40
0.7012987012987013
 40
0.7142857142857143
 40
0.7142857142857143
 40
0.7142857142857143
 40
0.7142857142857143
 40
0.7272727272727273
 40
0.7272727272727273
 40
0.7272727272727273
 40
0.7272727272727273
 40
0.7402597402597403
 40
0.7402597402597403
 40
0.7402597402597403
 40
0.7402597402597403
 40
0.7532467532467533
 40
0.7532467532467533
 40
0.7532467532467533
 40
0.7532467532467533
 40
0.7662337662337663
 40
0.7662337662337663
 40
0.7662337662337663
 40
0.7662337662337663
 40
0.7792207792207793
 40
0.7792207792207793
 40
0.7792207792207793
 40
0.7792207792207793
 40
0.7922077922077922
 40
0.7922077922077922
 40
0.7922077922077922
 40
0.7922077922077922
 40
0.8051948051948052
 40
0.8051948051948052
 40
0.8051948051948052
 40
0.8051948051948052
 40
0.8181818181818182
 40
0.8181818181818182
 40
0.8181818181818182
 40
0.8181818181818182
 40
0.8311688311688312
 40
0.8311688311688312
 40
0.8311688311688312
 40
0.8311688311688312
 40
0.8441558441558441
 40
0.8441558441558441
 40
0.8441558441558441
 40
0.8441558441558441
 40
0.8571428571428571
 40
0.8571428571428571
 40
0.8571428571428571
 40
0.8571428571428571
 40
0.8701298701298701
 40
0.8701298701298701
 40
0.8701298701298701
 40
0.8701298701298701
 40
0.8831168831168831
 40
0.8831168831168831
 40
0.8831168831168831
 40
0.8831168831168831
 40
0.8961038961038961
 40
0.8961038961038961
 40
0.8961038961038961
 40
0.8961038961038961
 40
0.9090909090909091
 40
0.9090909090909091
 40
0.9090909090909091
 40
0.9090909090909091
 40
0.922077922077922
 40
0.922077922077922
 40
0.922077922077922
 40
0.922077922077922
 40
0.935064935064935
 40
0.935064935064935
 40
0.935064935064935
 40
0.935064935064935
 40
0.948051948051948
 40
0.948051948051948
 40
0.948051948051948
 40
0.948051948051948
 40
0.961038961038961
 40
0.961038961038961
 40
0.961038961038961
 40
0.961038961038961
 40
0.974025974025974
 40
0.974025974025974
 40
0.974025974025974
 40
0.974025974025974
 40
1.0
 40
1.0
 40
1.0
 40
1.0
 10
-1.31659842519685
 20
0.0429803149606299
 30
0.0
 10
-1.31659842519685
 20
0.0429803149606299
 30
0.0
 10
-1.01640157480315
 20
0.0429803149606299
 30
0.0
 10
-1.01640157480315
 20
0.0429803149606299
 30
0.0
 10
-1.01640157480315
 20
0.0429803149606299
 30
0.0
 10
-1.01640157480315
 20
0.0429803149606299
 30
0.0
 10
-1.01640157480315
 20
0.1610905511811024
 30
0.0
 10
-1.01640157480315
 20
0.1610905511811024
 30
0.0
 10
-1.01640157480315
 20
0.1610905511811024
 30
0.0
 10
-1.01640157480315
 20
0.1610905511811024
 30
0.0
 10
-0.5921889763779528
 20
0.1610905511811024
 30
0.0
 10
-0.5921889763779528
 20
0.1610905511811024
 30
0.0
 10
-0.5921889763779528
 20
0.1610905511811024
 30
0.0
 10
-0.5921889763779528
 20
0.1610905511811024
 30
0.0
 10
-0.5921889763779528
 20
0.0429803149606299
 30
0.0
 10
-0.5921889763779528
 20
0.0429803149606299
 30
0.0
 10
-0.5921889763779528
 20
0.0429803149606299
 30
0.0
 10
-0.5921889763779528
 20
0.0429803149606299
 30
0.0
 10
-0.322503937007874
 20
0.0429803149606299
 30
0.0
 10
-0.322503937007874
 20
0.0429803149606299
 30
0.0
 10
-0.322503937007874
 20
0.0429803149606299
 30
0.0
 10
-0.322503937007874
 20
0.0429803149606299
 30
0.0
 10
-0.322503937007874
 20
0.1610905511811024
 30
0.0
 10
-0.322503937007874
 20
0.1610905511811024
 30
0.0
 10
-0.322503937007874
 20
0.1610905511811024
 30
0.0
 10
-0.322503937007874
 20
0.1610905511811024
 30
0.0
 10
-0.041007874015748
 20
0.1610905511811024
 30
0.0
 10
-0.041007874015748
 20
0.1610905511811024
 30
0.0
 10
-0.041007874015748
 20
0.1610905511811024
 30
0.0
 10
-0.041007874015748
 20
0.1610905511811024
 30
0.0
 10
-0.041007874015748
 20
0.0429803149606299
 30
0.0
 10
-0.041007874015748
 20
0.0429803149606299
 30
0.0
 10
-0.041007874015748
 20
0.0429803149606299
 30
0.0
 10
-0.041007874015748
 20
0.0429803149606299
 30
0.0
 10
0.2286771653543307
 20
0.0429803149606299
 30
0.0
 10
0.2286771653543307
 20
0.0429803149606299
 30
0.0
 10
0.2286771653543307
 20
0.0429803149606299
 30
0.0
 10
0.2286771653543307
 20
0.0429803149606299
 30
0.0
 10
0.2286771653543307
 20
0.1610905511811024
 30
0.0
 10
0.2286771653543307
 20
0.1610905511811024
 30
0.0
 10
0.2286771653543307
 20
0.1610905511811024
 30
0.0
 10
0.2286771653543307
 20
0.1610905511811024
 30
0.0
 10
0.5101732283464567
 20
0.1610905511811024
 30
0.0
 10
0.5101732283464567
 20
0.1610905511811024
 30
0.0
 10
0.5101732283464567
 20
0.1610905511811024
 30
0.0
 10
0.5101732283464567
 20
0.1610905511811024
 30
0.0
 10
0.5101732283464567
 20
0.0429803149606299
 30
0.0
 10
0.5101732283464567
 20
0.0429803149606299
 30
0.0
 10
0.5101732283464567
 20
0.0429803149606299
 30
0.0
 10
0.5101732283464567
 20
0.0429803149606299
 30
0.0
 10
0.7798582677165354
 20
0.0429803149606299
 30
0.0
 10
0.7798582677165354
 20
0.0429803149606299
 30
0.0
 10
0.7798582677165354
 20
0.0429803149606299
 30
0.0
 10
0.7798582677165354
 20
0.0429803149606299
 30
0.0
 10
0.7798582677165354
 20
0.1610905511811024
 30
0.0
 10
0.7798582677165354
 20
0.1610905511811024
 30
0.0
 10
0.7798582677165354
 20
0.1610905511811024
 30
0.0
 10
0.7798582677165354
 20
0.1610905511811024
 30
0.0
 10
1.061354330708661
 20
0.1610905511811024
 30
0.0
 10
1.061354330708661
 20
0.1610905511811024
 30
0.0
 10
1.061354330708661
 20
0.1610905511811024
 30
0.0
 10
1.061354330708661
 20
0.1610905511811024
 30
0.0
 10
1.061354330708661
 20
0.0429803149606299
 30
0.0
 10
1.061354330708661
 20
0.0429803149606299
 30
0.0
 10
1.061354330708661
 20
0.0429803149606299
 30
0.0
 10
1.061354330708661
 20
0.0429803149606299
 30
0.0
 10
1.33103937007874
 20
0.0429803149606299
 30
0.0
 10
1.33103937007874
 20
0.0429803149606299
 30
0.0
 10
1.33103937007874
 20
0.0429803149606299
 30
0.0
 10
1.33103937007874
 20
0.0429803149606299
 30
0.0
 10
1.33103937007874
 20
0.1610905511811024
 30
0.0
 10
1.33103937007874
 20
0.1610905511811024
 30
0.0
 10
1.33103937007874
 20
0.1610905511811024
 30
0.0
 10
1.33103937007874
 20
0.1610905511811024
 30
0.0
 10
1.755251968503937
 20
0.1610905511811024
 30
0.0
 10
1.755251968503937
 20
0.1610905511811024
 30
0.0
 10
1.755251968503937
 20
0.1610905511811024
 30
0.0
 10
1.755251968503937
 20
0.1610905511811024
 30
0.0
 10
1.755251968503937
 20
0.0429803149606299
 30
0.0
 10
1.755251968503937
 20
0.0429803149606299
 30
0.0
 10
1.755251968503937
 20
0.0429803149606299
 30
0.0
 10
1.755251968503937
 20
0.0429803149606299
 30
0.0
 10
2.055448818897638
 20
0.0429803149606299
 30
0.0
 10
2.055448818897638
 20
0.0429803149606299
 30
0.0
 10
2.055448818897638
 20
0.0429803149606299
 30
0.0
 10
2.055448818897638
 20
0.0429803149606299
 30
0.0
 10
2.055448818897638
 20
-0.2227677165354331
 30
0.0
 10
2.055448818897638
 20
-0.2227677165354331
 30
0.0
 10
2.055448818897638
 20
-0.2227677165354331
 30
0.0
 10
2.055448818897638
 20
-0.2227677165354331
 30
0.0
 10
2.17355905511811
 20
-0.2227677165354331
 30
0.0
 10
2.17355905511811
 20
-0.2227677165354331
 30
0.0
 10
2.17355905511811
 20
-0.2227677165354331
 30
0.0
 10
2.17355905511811
 20
-0.2227677165354331
 30
0.0
 10
2.17355905511811
 20
-0.6125314960629922
 30
0.0
 10
2.17355905511811
 20
-0.6125314960629922
 30
0.0
 10
2.17355905511811
 20
-0.6125314960629922
 30
0.0
 10
2.17355905511811
 20
-0.6125314960629922
 30
0.0
 10
2.055448818897638
 20
-0.6125314960629922
 30
0.0
 10
2.055448818897638
 20
-0.6125314960629922
 30
0.0
 10
2.055448818897638
 20
-0.6125314960629922
 30
0.0
 10
2.055448818897638
 20
-0.6125314960629922
 30
0.0
 10
2.055448818897638
 20
-0.8822165354330709
 30
0.0
 10
2.055448818897638
 20
-0.8822165354330709
 30
0.0
 10
2.055448818897638
 20
-0.8822165354330709
 30
0.0
 10
2.055448818897638
 20
-0.8822165354330709
 30
0.0
 10
2.17355905511811
 20
-0.8822165354330709
 30
0.0
 10
2.17355905511811
 20
-0.8822165354330709
 30
0.0
 10
2.17355905511811
 20
-0.8822165354330709
 30
0.0
 10
2.17355905511811
 20
-0.8822165354330709
 30
0.0
 10
2.17355905511811
 20
-1.163712598425197
 30
0.0
 10
2.17355905511811
 20
-1.163712598425197
 30
0.0
 10
2.17355905511811
 20
-1.163712598425197
 30
0.0
 10
2.17355905511811
 20
-1.163712598425197
 30
0.0
 10
2.055448818897638
 20
-1.163712598425197
 30
0.0
 10
2.055448818897638
 20
-1.163712598425197
 30
0.0
 10
2.055448818897638
 20
-1.163712598425197
 30
0.0
 10
2.055448818897638
 20
-1.163712598425197
 30
0.0
 10
2.055448818897638
 20
-1.433397637795276
 30
0.0
 10
2.055448818897638
 20
-1.433397637795276
 30
0.0
 10
2.055448818897638
 20
-1.433397637795276
 30
0.0
 10
2.055448818897638
 20
-1.433397637795276
 30
0.0
 10
2.17355905511811
 20
-1.433397637795276
 30
0.0
 10
2.17355905511811
 20
-1.433397637795276
 30
0.0
 10
2.17355905511811
 20
-1.433397637795276
 30
0.0
 10
2.17355905511811
 20
-1.433397637795276
 30
0.0
 10
2.17355905511811
 20
-1.714893700787402
 30
0.0
 10
2.17355905511811
 20
-1.714893700787402
 30
0.0
 10
2.17355905511811
 20
-1.714893700787402
 30
0.0
 10
2.17355905511811
 20
-1.714893700787402
 30
0.0
 10
2.055448818897638
 20
-1.714893700787402
 30
0.0
 10
2.055448818897638
 20
-1.714893700787402
 30
0.0
 10
2.055448818897638
 20
-1.714893700787402
 30
0.0
 10
2.055448818897638
 20
-1.714893700787402
 30
0.0
 10
2.055448818897638
 20
-1.98457874015748
 30
0.0
 10
2.055448818897638
 20
-1.98457874015748
 30
0.0
 10
2.055448818897638
 20
-1.98457874015748
 30
0.0
 10
2.055448818897638
 20
-1.98457874015748
 30
0.0
 10
2.17355905511811
 20
-1.98457874015748
 30
0.0
 10
2.17355905511811
 20
-1.98457874015748
 30
0.0
 10
2.17355905511811
 20
-1.98457874015748
 30
0.0
 10
2.17355905511811
 20
-1.98457874015748
 30
0.0
 10
2.17355905511811
 20
-2.374342519685039
 30
0.0
 10
2.17355905511811
 20
-2.374342519685039
 30
0.0
 10
2.17355905511811
 20
-2.374342519685039
 30
0.0
 10
2.17355905511811
 20
-2.374342519685039
 30
0.0
 10
2.055448818897638
 20
-2.374342519685039
 30
0.0
 10
2.055448818897638
 20
-2.374342519685039
 30
0.0
 10
2.055448818897638
 20
-2.374342519685039
 30
0.0
 10
2.055448818897638
 20
-2.374342519685039
 30
0.0
 10
2.055448818897638
 20
-2.640090551181102
 30
0.0
 10
2.055448818897638
 20
-2.640090551181102
 30
0.0
 10
2.055448818897638
 20
-2.640090551181102
 30
0.0
 10
2.055448818897638
 20
-2.640090551181102
 30
0.0
 10
1.755251968503937
 20
-2.640090551181102
 30
0.0
 10
1.755251968503937
 20
-2.640090551181102
 30
0.0
 10
1.755251968503937
 20
-2.640090551181102
 30
0.0
 10
1.755251968503937
 20
-2.640090551181102
 30
0.0
 10
1.755251968503937
 20
-2.758200787401575
 30
0.0
 10
1.755251968503937
 20
-2.758200787401575
 30
0.0
 10
1.755251968503937
 20
-2.758200787401575
 30
0.0
 10
1.755251968503937
 20
-2.758200787401575
 30
0.0
 10
1.33103937007874
 20
-2.758200787401575
 30
0.0
 10
1.33103937007874
 20
-2.758200787401575
 30
0.0
 10
1.33103937007874
 20
-2.758200787401575
 30
0.0
 10
1.33103937007874
 20
-2.758200787401575
 30
0.0
 10
1.33103937007874
 20
-2.640090551181102
 30
0.0
 10
1.33103937007874
 20
-2.640090551181102
 30
0.0
 10
1.33103937007874
 20
-2.640090551181102
 30
0.0
 10
1.33103937007874
 20
-2.640090551181102
 30
0.0
 10
1.061354330708661
 20
-2.640090551181102
 30
0.0
 10
1.061354330708661
 20
-2.640090551181102
 30
0.0
 10
1.061354330708661
 20
-2.640090551181102
 30
0.0
 10
1.061354330708661
 20
-2.640090551181102
 30
0.0
 10
1.061354330708661
 20
-2.758200787401575
 30
0.0
 10
1.061354330708661
 20
-2.758200787401575
 30
0.0
 10
1.061354330708661
 20
-2.758200787401575
 30
0.0
 10
1.061354330708661
 20
-2.758200787401575
 30
0.0
 10
0.7798582677165354
 20
-2.758200787401575
 30
0.0
 10
0.7798582677165354
 20
-2.758200787401575
 30
0.0
 10
0.7798582677165354
 20
-2.758200787401575
 30
0.0
 10
0.7798582677165354
 20
-2.758200787401575
 30
0.0
 10
0.7798582677165354
 20
-2.640090551181102
 30
0.0
 10
0.7798582677165354
 20
-2.640090551181102
 30
0.0
 10
0.7798582677165354
 20
-2.640090551181102
 30
0.0
 10
0.7798582677165354
 20
-2.640090551181102
 30
0.0
 10
0.5101732283464567
 20
-2.640090551181102
 30
0.0
 10
0.5101732283464567
 20
-2.640090551181102
 30
0.0
 10
0.5101732283464567
 20
-2.640090551181102
 30
0.0
 10
0.5101732283464567
 20
-2.640090551181102
 30
0.0
 10
0.5101732283464567
 20
-2.758200787401575
 30
0.0
 10
0.5101732283464567
 20
-2.758200787401575
 30
0.0
 10
0.5101732283464567
 20
-2.758200787401575
 30
0.0
 10
0.5101732283464567
 20
-2.758200787401575
 30
0.0
 10
0.2286771653543307
 20
-2.758200787401575
 30
0.0
 10
0.2286771653543307
 20
-2.758200787401575
 30
0.0
 10
0.2286771653543307
 20
-2.758200787401575
 30
0.0
 10
0.2286771653543307
 20
-2.758200787401575
 30
0.0
 10
0.2286771653543307
 20
-2.640090551181102
 30
0.0
 10
0.2286771653543307
 20
-2.640090551181102
 30
0.0
 10
0.2286771653543307
 20
-2.640090551181102
 30
0.0
 10
0.2286771653543307
 20
-2.640090551181102
 30
0.0
 10
-0.041007874015748
 20
-2.640090551181102
 30
0.0
 10
-0.041007874015748
 20
-2.640090551181102
 30
0.0
 10
-0.041007874015748
 20
-2.640090551181102
 30
0.0
 10
-0.041007874015748
 20
-2.640090551181102
 30
0.0
 10
-0.041007874015748
 20
-2.758200787401575
 30
0.0
 10
-0.041007874015748
 20
-2.758200787401575
 30
0.0
 10
-0.041007874015748
 20
-2.758200787401575
 30
0.0
 10
-0.041007874015748
 20
-2.758200787401575
 30
0.0
 10
-0.322503937007874
 20
-2.758200787401575
 30
0.0
 10
-0.322503937007874
 20
-2.758200787401575
 30
0.0
 10
-0.322503937007874
 20
-2.758200787401575
 30
0.0
 10
-0.322503937007874
 20
-2.758200787401575
 30
0.0
 10
-0.322503937007874
 20
-2.640090551181102
 30
0.0
 10
-0.322503937007874
 20
-2.640090551181102
 30
0.0
 10
-0.322503937007874
 20
-2.640090551181102
 30
0.0
 10
-0.322503937007874
 20
-2.640090551181102
 30
0.0
 10
-0.5921889763779528
 20
-2.640090551181102
 30
0.0
 10
-0.5921889763779528
 20
-2.640090551181102
 30
0.0
 10
-0.5921889763779528
 20
-2.640090551181102
 30
0.0
 10
-0.5921889763779528
 20
-2.640090551181102
 30
0.0
 10
-0.5921889763779528
 20
-2.758200787401575
 30
0.0
 10
-0.5921889763779528
 20
-2.758200787401575
 30
0.0
 10
-0.5921889763779528
 20
-2.758200787401575
 30
0.0
 10
-0.5921889763779528
 20
-2.758200787401575
 30
0.0
 10
-1.01640157480315
 20
-2.758200787401575
 30
0.0
 10
-1.01640157480315
 20
-2.758200787401575
 30
0.0
 10
-1.01640157480315
 20
-2.758200787401575
 30
0.0
 10
-1.01640157480315
 20
-2.758200787401575
 30
0.0
 10
-1.01640157480315
 20
-2.640090551181102
 30
0.0
 10
-1.01640157480315
 20
-2.640090551181102
 30
0.0
 10
-1.01640157480315
 20
-2.640090551181102
 30
0.0
 10
-1.01640157480315
 20
-2.640090551181102
 30
0.0
 10
-1.31659842519685
 20
-2.640090551181102
 30
0.0
 10
-1.31659842519685
 20
-2.640090551181102
 30
0.0
 10
-1.31659842519685
 20
-2.640090551181102
 30
0.0
 10
-1.31659842519685
 20
-2.640090551181102
 30
0.0
 10
-1.31659842519685
 20
-2.072976377952756
 30
0.0
 10
-1.31659842519685
 20
-2.072976377952756
 30
0.0
 10
-1.31659842519685
 20
-2.072976377952756
 30
0.0
 10
-1.31659842519685
 20
-2.072976377952756
 30
0.0
 10
-1.434708661417323
 20
-2.072976377952756
 30
0.0
 10
-1.434708661417323
 20
-2.072976377952756
 30
0.0
 10
-1.434708661417323
 20
-2.072976377952756
 30
0.0
 10
-1.434708661417323
 20
-2.072976377952756
 30
0.0
 10
-1.434708661417323
 20
-1.98457874015748
 30
0.0
 10
-1.434708661417323
 20
-1.98457874015748
 30
0.0
 10
-1.434708661417323
 20
-1.98457874015748
 30
0.0
 10
-1.434708661417323
 20
-1.98457874015748
 30
0.0
 10
-1.43459842519685
 20
-1.98457874015748
 30
0.0
 10
-1.43459842519685
 20
-1.98457874015748
 30
0.0
 10
-1.43459842519685
 20
-1.98457874015748
 30
0.0
 10
-1.43459842519685
 20
-1.98457874015748
 30
0.0
 10
-1.43459842519685
 20
-1.773625984251969
 30
0.0
 10
-1.43459842519685
 20
-1.773625984251969
 30
0.0
 10
-1.43459842519685
 20
-1.773625984251969
 30
0.0
 10
-1.43459842519685
 20
-1.773625984251969
 30
0.0
 10
-1.361685039370079
 20
-1.773625984251969
 30
0.0
 10
-1.361685039370079
 20
-1.773625984251969
 30
0.0
 10
-1.361685039370079
 20
-1.773625984251969
 30
0.0
 10
-1.361685039370079
 20
-1.773625984251969
 30
0.0
 10
-1.361685039370079
 20
-1.433397637795276
 30
0.0
 10
-1.361685039370079
 20
-1.433397637795276
 30
0.0
 10
-1.361685039370079
 20
-1.433397637795276
 30
0.0
 10
-1.361685039370079
 20
-1.433397637795276
 30
0.0
 10
-1.362401574803149
 20
-1.433397637795276
 30
0.0
 10
-1.362401574803149
 20
-1.433397637795276
 30
0.0
 10
-1.362401574803149
 20
-1.433397637795276
 30
0.0
 10
-1.362401574803149
 20
-1.433397637795276
 30
0.0
 10
-1.362401574803149
 20
-1.262259842519685
 30
0.0
 10
-1.362401574803149
 20
-1.262259842519685
 30
0.0
 10
-1.362401574803149
 20
-1.262259842519685
 30
0.0
 10
-1.362401574803149
 20
-1.262259842519685
 30
0.0
 10
-1.434708661417323
 20
-1.262259842519685
 30
0.0
 10
-1.434708661417323
 20
-1.262259842519685
 30
0.0
 10
-1.434708661417323
 20
-1.262259842519685
 30
0.0
 10
-1.434708661417323
 20
-1.262259842519685
 30
0.0
 10
-1.434708661417323
 20
-1.058653543307087
 30
0.0
 10
-1.434708661417323
 20
-1.058653543307087
 30
0.0
 10
-1.434708661417323
 20
-1.058653543307087
 30
0.0
 10
-1.434708661417323
 20
-1.058653543307087
 30
0.0
 10
-1.31659842519685
 20
-1.058653543307087
 30
0.0
 10
-1.31659842519685
 20
-1.058653543307087
 30
0.0
 10
-1.31659842519685
 20
-1.058653543307087
 30
0.0
 10
-1.31659842519685
 20
-1.058653543307087
 30
0.0
 10
-1.31659842519685
 20
-0.6125314960629922
 30
0.0
 10
-1.31659842519685
 20
-0.6125314960629922
 30
0.0
 10
-1.31659842519685
 20
-0.6125314960629922
 30
0.0
 10
-1.31659842519685
 20
-0.6125314960629922
 30
0.0
 10
-1.434708661417323
 20
-0.6125314960629922
 30
0.0
 10
-1.434708661417323
 20
-0.6125314960629922
 30
0.0
 10
-1.434708661417323
 20
-0.6125314960629922
 30
0.0
 10
-1.434708661417323
 20
-0.6125314960629922
 30
0.0
 10
-1.434708661417323
 20
-0.2227677165354331
 30
0.0
 10
-1.434708661417323
 20
-0.2227677165354331
 30
0.0
 10
-1.434708661417323
 20
-0.2227677165354331
 30
0.0
 10
-1.434708661417323
 20
-0.2227677165354331
 30
0.0
 10
-1.31659842519685
 20
-0.2227677165354331
 30
0.0
 10
-1.31659842519685
 20
-0.2227677165354331
 30
0.0
 10
-1.31659842519685
 20
-0.2227677165354331
 30
0.0
 10
-1.31659842519685
 20
-0.2227677165354331
 30
0.0
 10
-1.31659842519685
 20
0.0429803149606299
 30
0.0
 10
-1.31659842519685
 20
0.0429803149606299
 30
0.0
  0
SPLINE
  5
46
330
1F
100
AcDbEntity
  8
MAIN_0.075 kerf
 62
   250
370
     9
100
AcDbSpline
210
0.0
220
0.0
230
1.0
 70
    11
 71
     3
 72
   308
 73
   304
 74
     0
 42
0.0000000001
 43
0.0000000001
 40
0.0
 40
0.0
 40
0.0
 40
0.0
 40
0.012987012987013
 40
0.012987012987013
 40
0.012987012987013
 40
0.012987012987013
 40
0.025974025974026
 40
0.025974025974026
 40
0.025974025974026
 40
0.025974025974026
 40
0.038961038961039
 40
0.038961038961039
 40
0.038961038961039
 40
0.038961038961039
 40
0.051948051948052
 40
0.051948051948052
 40
0.051948051948052
 40
0.051948051948052
 40
0.0649350649350649
 40
0.0649350649350649
 40
0.0649350649350649
 40
0.0649350649350649
 40
0.0779220779220779
 40
0.0779220779220779
 40
0.0779220779220779
 40
0.0779220779220779
 40
0.0909090909090909
 40
0.0909090909090909
 40
0.0909090909090909
 40
0.0909090909090909
 40
0.1038961038961039
 40
0.1038961038961039
 40
0.1038961038961039
 40
0.1038961038961039
 40
0.1168831168831169
 40
0.1168831168831169
 40
0.1168831168831169
 40
0.1168831168831169
 40
0.1298701298701299
 40
0.1298701298701299
 40
0.1298701298701299
 40
0.1298701298701299
 40
0.1428571428571428
 40
0.1428571428571428
 40
0.1428571428571428
 40
0.1428571428571428
 40
0.1558441558441558
 40
0.1558441558441558
 40
0.1558441558441558
 40
0.1558441558441558
 40
0.1688311688311688
 40
0.1688311688311688
 40
0.1688311688311688
 40
0.1688311688311688
 40
0.1818181818181818
 40
0.1818181818181818
 40
0.1818181818181818
 40
0.1818181818181818
 40
0.1948051948051948
 40
0.1948051948051948
 40
0.1948051948051948
 40
0.1948051948051948
 40
0.2077922077922078
 40
0.2077922077922078
 40
0.2077922077922078
 40
0.2077922077922078
 40
0.2207792207792208
 40
0.2207792207792208
 40
0.2207792207792208
 40
0.2207792207792208
 40
0.2337662337662338
 40
0.2337662337662338
 40
0.2337662337662338
 40
0.2337662337662338
 40
0.2467532467532468
 40
0.2467532467532468
 40
0.2467532467532468
 40
0.2467532467532468
 40
0.2597402597402597
 40
0.2597402597402597
 40
0.2597402597402597
 40
0.2597402597402597
 40
0.2727272727272727
 40
0.2727272727272727
 40
0.2727272727272727
 40
0.2727272727272727
 40
0.2857142857142857
 40
0.2857142857142857
 40
0.2857142857142857
 40
0.2857142857142857
 40
0.2987012987012987
 40
0.2987012987012987
 40
0.2987012987012987
 40
0.2987012987012987
 40
0.3116883116883117
 40
0.3116883116883117
 40
0.3116883116883117
 40
0.3116883116883117
 40
0.3246753246753247
 40
0.3246753246753247
 40
0.3246753246753247
 40
0.3246753246753247
 40
0.3376623376623377
 40
0.3376623376623377
 40
0.3376623376623377
 40
0.3376623376623377
 40
0.3506493506493507
 40
0.3506493506493507
 40
0.3506493506493507
 40
0.3506493506493507
 40
0.3636363636363636
 40
0.3636363636363636
 40
0.3636363636363636
 40
0.3636363636363636
 40
0.3766233766233766
 40
0.3766233766233766
 40
0.3766233766233766
 40
0.3766233766233766
 40
0.3896103896103896
 40
0.3896103896103896
 40
0.3896103896103896
 40
0.3896103896103896
 40
0.4025974025974026
 40
0.4025974025974026
 40
0.4025974025974026
 40
0.4025974025974026
 40
0.4155844155844156
 40
0.4155844155844156
 40
0.4155844155844156
 40
0.4155844155844156
 40
0.4285714285714285
 40
0.4285714285714285
 40
0.4285714285714285
 40
0.4285714285714285
 40
0.4415584415584415
 40
0.4415584415584415
 40
0.4415584415584415
 40
0.4415584415584415
 40
0.4545454545454545
 40
0.4545454545454545
 40
0.4545454545454545
 40
0.4545454545454545
 40
0.4675324675324675
 40
0.4675324675324675
 40
0.4675324675324675
 40
0.4675324675324675
 40
0.4805194805194805
 40
0.4805194805194805
 40
0.4805194805194805
 40
0.4805194805194805
 40
0.4935064935064935
 40
0.4935064935064935
 40
0.4935064935064935
 40
0.4935064935064935
 40
0.5064935064935064
 40
0.5064935064935064
 40
0.5064935064935064
 40
0.5064935064935064
 40
0.5194805194805194
 40
0.5194805194805194
 40
0.5194805194805194
 40
0.5194805194805194
 40
0.5324675324675324
 40
0.5324675324675324
 40
0.5324675324675324
 40
0.5324675324675324
 40
0.5454545454545454
 40
0.5454545454545454
 40
0.5454545454545454
 40
0.5454545454545454
 40
0.5584415584415584
 40
0.5584415584415584
 40
0.5584415584415584
 40
0.5584415584415584
 40
0.5714285714285714
 40
0.5714285714285714
 40
0.5714285714285714
 40
0.5714285714285714
 40
0.5844155844155844
 40
0.5844155844155844
 40
0.5844155844155844
 40
0.5844155844155844
 40
0.5974025974025974
 40
0.5974025974025974
 40
0.5974025974025974
 40
0.5974025974025974
 40
0.6103896103896104
 40
0.6103896103896104
 40
0.6103896103896104
 40
0.6103896103896104
 40
0.6233766233766234
 40
0.6233766233766234
 40
0.6233766233766234
 40
0.6233766233766234
 40
0.6363636363636364
 40
0.6363636363636364
 40
0.6363636363636364
 40
0.6363636363636364
 40
0.6493506493506493
 40
0.6493506493506493
 40
0.6493506493506493
 40
0.6493506493506493
 40
0.6623376623376623
 40
0.6623376623376623
 40
0.6623376623376623
 40
0.6623376623376623
 40
0.6753246753246753
 40
0.6753246753246753
 40
0.6753246753246753
 40
0.6753246753246753
 40
0.6883116883116883
 40
0.6883116883116883
 40
0.6883116883116883
 40
0.6883116883116883
 40
0.7012987012987013
 40
0.7012987012987013
 40
0.7012987012987013
 40
0.7012987012987013
 40
0.7142857142857143
 40
0.7142857142857143
 40
0.7142857142857143
 40
0.7142857142857143
 40
0.7272727272727273
 40
0.7272727272727273
 40
0.7272727272727273
 40
0.7272727272727273
 40
0.7402597402597403
 40
0.7402597402597403
 40
0.7402597402597403
 40
0.7402597402597403
 40
0.7532467532467533
 40
0.7532467532467533
 40
0.7532467532467533
 40
0.7532467532467533
 40
0.7662337662337663
 40
0.7662337662337663
 40
0.7662337662337663
 40
0.7662337662337663
 40
0.7792207792207793
 40
0.7792207792207793
 40
0.7792207792207793
 40
0.7792207792207793
 40
0.7922077922077922
 40
0.7922077922077922
 40
0.7922077922077922
 40
0.7922077922077922
 40
0.8051948051948052
 40
0.8051948051948052
 40
0.8051948051948052
 40
0.8051948051948052
 40
0.8181818181818182
 40
0.8181818181818182
 40
0.8181818181818182
 40
0.8181818181818182
 40
0.8311688311688312
 40
0.8311688311688312
 40
0.8311688311688312
 40
0.8311688311688312
 40
0.8441558441558441
 40
0.8441558441558441
 40
0.8441558441558441
 40
0.8441558441558441
 40
0.8571428571428571
 40
0.8571428571428571
 40
0.8571428571428571
 40
0.8571428571428571
 40
0.8701298701298701
 40
0.8701298701298701
 40
0.8701298701298701
 40
0.8701298701298701
 40
0.8831168831168831
 40
0.8831168831168831
 40
0.8831168831168831
 40
0.8831168831168831
 40
0.8961038961038961
 40
0.8961038961038961
 40
0.8961038961038961
 40
0.8961038961038961
 40
0.9090909090909091
 40
0.9090909090909091
 40
0.9090909090909091
 40
0.9090909090909091
 40
0.922077922077922
 40
0.922077922077922
 40
0.922077922077922
 40
0.922077922077922
 40
0.935064935064935
 40
0.935064935064935
 40
0.935064935064935
 40
0.935064935064935
 40
0.948051948051948
 40
0.948051948051948
 40
0.948051948051948
 40
0.948051948051948
 40
0.961038961038961
 40
0.961038961038961
 40
0.961038961038961
 40
0.961038961038961
 40
0.974025974025974
 40
0.974025974025974
 40
0.974025974025974
 40
0.974025974025974
 40
1.0
 40
1.0
 40
1.0
 40
1.0
 10
-1.316413385826772
 20
4.409417322834646
 30
0.0
 10
-1.316413385826772
 20
4.409417322834646
 30
0.0
 10
-1.016216535433071
 20
4.409417322834646
 30
0.0
 10
-1.016216535433071
 20
4.409417322834646
 30
0.0
 10
-1.016216535433071
 20
4.409417322834646
 30
0.0
 10
-1.016216535433071
 20
4.409417322834646
 30
0.0
 10
-1.016216535433071
 20
4.527527559055118
 30
0.0
 10
-1.016216535433071
 20
4.527527559055118
 30
0.0
 10
-1.016216535433071
 20
4.527527559055118
 30
0.0
 10
-1.016216535433071
 20
4.527527559055118
 30
0.0
 10
-0.592003937007874
 20
4.527527559055118
 30
0.0
 10
-0.592003937007874
 20
4.527527559055118
 30
0.0
 10
-0.592003937007874
 20
4.527527559055118
 30
0.0
 10
-0.592003937007874
 20
4.527527559055118
 30
0.0
 10
-0.592003937007874
 20
4.409417322834646
 30
0.0
 10
-0.592003937007874
 20
4.409417322834646
 30
0.0
 10
-0.592003937007874
 20
4.409417322834646
 30
0.0
 10
-0.592003937007874
 20
4.409417322834646
 30
0.0
 10
-0.3223188976377953
 20
4.409417322834646
 30
0.0
 10
-0.3223188976377953
 20
4.409417322834646
 30
0.0
 10
-0.3223188976377953
 20
4.409417322834646
 30
0.0
 10
-0.3223188976377953
 20
4.409417322834646
 30
0.0
 10
-0.3223188976377953
 20
4.527527559055118
 30
0.0
 10
-0.3223188976377953
 20
4.527527559055118
 30
0.0
 10
-0.3223188976377953
 20
4.527527559055118
 30
0.0
 10
-0.3223188976377953
 20
4.527527559055118
 30
0.0
 10
-0.0408228346456693
 20
4.527527559055118
 30
0.0
 10
-0.0408228346456693
 20
4.527527559055118
 30
0.0
 10
-0.0408228346456693
 20
4.527527559055118
 30
0.0
 10
-0.0408228346456693
 20
4.527527559055118
 30
0.0
 10
-0.0408228346456693
 20
4.409417322834646
 30
0.0
 10
-0.0408228346456693
 20
4.409417322834646
 30
0.0
 10
-0.0408228346456693
 20
4.409417322834646
 30
0.0
 10
-0.0408228346456693
 20
4.409417322834646
 30
0.0
 10
0.2288622047244095
 20
4.409417322834646
 30
0.0
 10
0.2288622047244095
 20
4.409417322834646
 30
0.0
 10
0.2288622047244095
 20
4.409417322834646
 30
0.0
 10
0.2288622047244095
 20
4.409417322834646
 30
0.0
 10
0.2288622047244095
 20
4.527527559055118
 30
0.0
 10
0.2288622047244095
 20
4.527527559055118
 30
0.0
 10
0.2288622047244095
 20
4.527527559055118
 30
0.0
 10
0.2288622047244095
 20
4.527527559055118
 30
0.0
 10
0.5103582677165355
 20
4.527527559055118
 30
0.0
 10
0.5103582677165355
 20
4.527527559055118
 30
0.0
 10
0.5103582677165355
 20
4.527527559055118
 30
0.0
 10
0.5103582677165355
 20
4.527527559055118
 30
0.0
 10
0.5103582677165355
 20
4.409417322834646
 30
0.0
 10
0.5103582677165355
 20
4.409417322834646
 30
0.0
 10
0.5103582677165355
 20
4.409417322834646
 30
0.0
 10
0.5103582677165355
 20
4.409417322834646
 30
0.0
 10
0.7800433070866142
 20
4.409417322834646
 30
0.0
 10
0.7800433070866142
 20
4.409417322834646
 30
0.0
 10
0.7800433070866142
 20
4.409417322834646
 30
0.0
 10
0.7800433070866142
 20
4.409417322834646
 30
0.0
 10
0.7800433070866142
 20
4.527527559055118
 30
0.0
 10
0.7800433070866142
 20
4.527527559055118
 30
0.0
 10
0.7800433070866142
 20
4.527527559055118
 30
0.0
 10
0.7800433070866142
 20
4.527527559055118
 30
0.0
 10
1.06153937007874
 20
4.527527559055118
 30
0.0
 10
1.06153937007874
 20
4.527527559055118
 30
0.0
 10
1.06153937007874
 20
4.527527559055118
 30
0.0
 10
1.06153937007874
 20
4.527527559055118
 30
0.0
 10
1.06153937007874
 20
4.409417322834646
 30
0.0
 10
1.06153937007874
 20
4.409417322834646
 30
0.0
 10
1.06153937007874
 20
4.409417322834646
 30
0.0
 10
1.06153937007874
 20
4.409417322834646
 30
0.0
 10
1.331224409448819
 20
4.409417322834646
 30
0.0
 10
1.331224409448819
 20
4.409417322834646
 30
0.0
 10
1.331224409448819
 20
4.409417322834646
 30
0.0
 10
1.331224409448819
 20
4.409417322834646
 30
0.0
 10
1.331224409448819
 20
4.527527559055118
 30
0.0
 10
1.331224409448819
 20
4.527527559055118
 30
0.0
 10
1.331224409448819
 20
4.527527559055118
 30
0.0
 10
1.331224409448819
 20
4.527527559055118
 30
0.0
 10
1.755437007874016
 20
4.527527559055118
 30
0.0
 10
1.755437007874016
 20
4.527527559055118
 30
0.0
 10
1.755437007874016
 20
4.527527559055118
 30
0.0
 10
1.755437007874016
 20
4.527527559055118
 30
0.0
 10
1.755437007874016
 20
4.409417322834646
 30
0.0
 10
1.755437007874016
 20
4.409417322834646
 30
0.0
 10
1.755437007874016
 20
4.409417322834646
 30
0.0
 10
1.755437007874016
 20
4.409417322834646
 30
0.0
 10
2.055633858267717
 20
4.409417322834646
 30
0.0
 10
2.055633858267717
 20
4.409417322834646
 30
0.0
 10
2.055633858267717
 20
4.409417322834646
 30
0.0
 10
2.055633858267717
 20
4.409417322834646
 30
0.0
 10
2.055633858267717
 20
4.143669291338583
 30
0.0
 10
2.055633858267717
 20
4.143669291338583
 30
0.0
 10
2.055633858267717
 20
4.143669291338583
 30
0.0
 10
2.055633858267717
 20
4.143669291338583
 30
0.0
 10
2.173744094488189
 20
4.143669291338583
 30
0.0
 10
2.173744094488189
 20
4.143669291338583
 30
0.0
 10
2.173744094488189
 20
4.143669291338583
 30
0.0
 10
2.173744094488189
 20
4.143669291338583
 30
0.0
 10
2.173744094488189
 20
3.753905511811024
 30
0.0
 10
2.173744094488189
 20
3.753905511811024
 30
0.0
 10
2.173744094488189
 20
3.753905511811024
 30
0.0
 10
2.173744094488189
 20
3.753905511811024
 30
0.0
 10
2.055633858267717
 20
3.753905511811024
 30
0.0
 10
2.055633858267717
 20
3.753905511811024
 30
0.0
 10
2.055633858267717
 20
3.753905511811024
 30
0.0
 10
2.055633858267717
 20
3.753905511811024
 30
0.0
 10
2.055633858267717
 20
3.484220472440945
 30
0.0
 10
2.055633858267717
 20
3.484220472440945
 30
0.0
 10
2.055633858267717
 20
3.484220472440945
 30
0.0
 10
2.055633858267717
 20
3.484220472440945
 30
0.0
 10
2.173744094488189
 20
3.484220472440945
 30
0.0
 10
2.173744094488189
 20
3.484220472440945
 30
0.0
 10
2.173744094488189
 20
3.484220472440945
 30
0.0
 10
2.173744094488189
 20
3.484220472440945
 30
0.0
 10
2.173744094488189
 20
3.202724409448819
 30
0.0
 10
2.173744094488189
 20
3.202724409448819
 30
0.0
 10
2.173744094488189
 20
3.202724409448819
 30
0.0
 10
2.173744094488189
 20
3.202724409448819
 30
0.0
 10
2.055633858267717
 20
3.202724409448819
 30
0.0
 10
2.055633858267717
 20
3.202724409448819
 30
0.0
 10
2.055633858267717
 20
3.202724409448819
 30
0.0
 10
2.055633858267717
 20
3.202724409448819
 30
0.0
 10
2.055633858267717
 20
2.93303937007874
 30
0.0
 10
2.055633858267717
 20
2.93303937007874
 30
0.0
 10
2.055633858267717
 20
2.93303937007874
 30
0.0
 10
2.055633858267717
 20
2.93303937007874
 30
0.0
 10
2.173744094488189
 20
2.93303937007874
 30
0.0
 10
2.173744094488189
 20
2.93303937007874
 30
0.0
 10
2.173744094488189
 20
2.93303937007874
 30
0.0
 10
2.173744094488189
 20
2.93303937007874
 30
0.0
 10
2.173744094488189
 20
2.651543307086614
 30
0.0
 10
2.173744094488189
 20
2.651543307086614
 30
0.0
 10
2.173744094488189
 20
2.651543307086614
 30
0.0
 10
2.173744094488189
 20
2.651543307086614
 30
0.0
 10
2.055633858267717
 20
2.651543307086614
 30
0.0
 10
2.055633858267717
 20
2.651543307086614
 30
0.0
 10
2.055633858267717
 20
2.651543307086614
 30
0.0
 10
2.055633858267717
 20
2.651543307086614
 30
0.0
 10
2.055633858267717
 20
2.381858267716535
 30
0.0
 10
2.055633858267717
 20
2.381858267716535
 30
0.0
 10
2.055633858267717
 20
2.381858267716535
 30
0.0
 10
2.055633858267717
 20
2.381858267716535
 30
0.0
 10
2.173744094488189
 20
2.381858267716535
 30
0.0
 10
2.173744094488189
 20
2.381858267716535
 30
0.0
 10
2.173744094488189
 20
2.381858267716535
 30
0.0
 10
2.173744094488189
 20
2.381858267716535
 30
0.0
 10
2.173744094488189
 20
1.992094488188976
 30
0.0
 10
2.173744094488189
 20
1.992094488188976
 30
0.0
 10
2.173744094488189
 20
1.992094488188976
 30
0.0
 10
2.173744094488189
 20
1.992094488188976
 30
0.0
 10
2.055633858267717
 20
1.992094488188976
 30
0.0
 10
2.055633858267717
 20
1.992094488188976
 30
0.0
 10
2.055633858267717
 20
1.992094488188976
 30
0.0
 10
2.055633858267717
 20
1.992094488188976
 30
0.0
 10
2.055633858267717
 20
1.726346456692913
 30
0.0
 10
2.055633858267717
 20
1.726346456692913
 30
0.0
 10
2.055633858267717
 20
1.726346456692913
 30
0.0
 10
2.055633858267717
 20
1.726346456692913
 30
0.0
 10
1.755437007874016
 20
1.726346456692913
 30
0.0
 10
1.755437007874016
 20
1.726346456692913
 30
0.0
 10
1.755437007874016
 20
1.726346456692913
 30
0.0
 10
1.755437007874016
 20
1.726346456692913
 30
0.0
 10
1.755437007874016
 20
1.608236220472441
 30
0.0
 10
1.755437007874016
 20
1.608236220472441
 30
0.0
 10
1.755437007874016
 20
1.608236220472441
 30
0.0
 10
1.755437007874016
 20
1.608236220472441
 30
0.0
 10
1.331224409448819
 20
1.608236220472441
 30
0.0
 10
1.331224409448819
 20
1.608236220472441
 30
0.0
 10
1.331224409448819
 20
1.608236220472441
 30
0.0
 10
1.331224409448819
 20
1.608236220472441
 30
0.0
 10
1.331224409448819
 20
1.726346456692913
 30
0.0
 10
1.331224409448819
 20
1.726346456692913
 30
0.0
 10
1.331224409448819
 20
1.726346456692913
 30
0.0
 10
1.331224409448819
 20
1.726346456692913
 30
0.0
 10
1.06153937007874
 20
1.726346456692913
 30
0.0
 10
1.06153937007874
 20
1.726346456692913
 30
0.0
 10
1.06153937007874
 20
1.726346456692913
 30
0.0
 10
1.06153937007874
 20
1.726346456692913
 30
0.0
 10
1.06153937007874
 20
1.608236220472441
 30
0.0
 10
1.06153937007874
 20
1.608236220472441
 30
0.0
 10
1.06153937007874
 20
1.608236220472441
 30
0.0
 10
1.06153937007874
 20
1.608236220472441
 30
0.0
 10
0.7800433070866142
 20
1.608236220472441
 30
0.0
 10
0.7800433070866142
 20
1.608236220472441
 30
0.0
 10
0.7800433070866142
 20
1.608236220472441
 30
0.0
 10
0.7800433070866142
 20
1.608236220472441
 30
0.0
 10
0.7800433070866142
 20
1.726346456692913
 30
0.0
 10
0.7800433070866142
 20
1.726346456692913
 30
0.0
 10
0.7800433070866142
 20
1.726346456692913
 30
0.0
 10
0.7800433070866142
 20
1.726346456692913
 30
0.0
 10
0.5103582677165355
 20
1.726346456692913
 30
0.0
 10
0.5103582677165355
 20
1.726346456692913
 30
0.0
 10
0.5103582677165355
 20
1.726346456692913
 30
0.0
 10
0.5103582677165355
 20
1.726346456692913
 30
0.0
 10
0.5103582677165355
 20
1.608236220472441
 30
0.0
 10
0.5103582677165355
 20
1.608236220472441
 30
0.0
 10
0.5103582677165355
 20
1.608236220472441
 30
0.0
 10
0.5103582677165355
 20
1.608236220472441
 30
0.0
 10
0.2288622047244095
 20
1.608236220472441
 30
0.0
 10
0.2288622047244095
 20
1.608236220472441
 30
0.0
 10
0.2288622047244095
 20
1.608236220472441
 30
0.0
 10
0.2288622047244095
 20
1.608236220472441
 30
0.0
 10
0.2288622047244095
 20
1.726346456692913
 30
0.0
 10
0.2288622047244095
 20
1.726346456692913
 30
0.0
 10
0.2288622047244095
 20
1.726346456692913
 30
0.0
 10
0.2288622047244095
 20
1.726346456692913
 30
0.0
 10
-0.0408228346456693
 20
1.726346456692913
 30
0.0
 10
-0.0408228346456693
 20
1.726346456692913
 30
0.0
 10
-0.0408228346456693
 20
1.726346456692913
 30
0.0
 10
-0.0408228346456693
 20
1.726346456692913
 30
0.0
 10
-0.0408228346456693
 20
1.608236220472441
 30
0.0
 10
-0.0408228346456693
 20
1.608236220472441
 30
0.0
 10
-0.0408228346456693
 20
1.608236220472441
 30
0.0
 10
-0.0408228346456693
 20
1.608236220472441
 30
0.0
 10
-0.3223188976377953
 20
1.608236220472441
 30
0.0
 10
-0.3223188976377953
 20
1.608236220472441
 30
0.0
 10
-0.3223188976377953
 20
1.608236220472441
 30
0.0
 10
-0.3223188976377953
 20
1.608236220472441
 30
0.0
 10
-0.3223188976377953
 20
1.726346456692913
 30
0.0
 10
-0.3223188976377953
 20
1.726346456692913
 30
0.0
 10
-0.3223188976377953
 20
1.726346456692913
 30
0.0
 10
-0.3223188976377953
 20
1.726346456692913
 30
0.0
 10
-0.592003937007874
 20
1.726346456692913
 30
0.0
 10
-0.592003937007874
 20
1.726346456692913
 30
0.0
 10
-0.592003937007874
 20
1.726346456692913
 30
0.0
 10
-0.592003937007874
 20
1.726346456692913
 30
0.0
 10
-0.592003937007874
 20
1.608236220472441
 30
0.0
 10
-0.592003937007874
 20
1.608236220472441
 30
0.0
 10
-0.592003937007874
 20
1.608236220472441
 30
0.0
 10
-0.592003937007874
 20
1.608236220472441
 30
0.0
 10
-1.016216535433071
 20
1.608236220472441
 30
0.0
 10
-1.016216535433071
 20
1.608236220472441
 30
0.0
 10
-1.016216535433071
 20
1.608236220472441
 30
0.0
 10
-1.016216535433071
 20
1.608236220472441
 30
0.0
 10
-1.016216535433071
 20
1.726346456692913
 30
0.0
 10
-1.016216535433071
 20
1.726346456692913
 30
0.0
 10
-1.016216535433071
 20
1.726346456692913
 30
0.0
 10
-1.016216535433071
 20
1.726346456692913
 30
0.0
 10
-1.316413385826772
 20
1.726346456692913
 30
0.0
 10
-1.316413385826772
 20
1.726346456692913
 30
0.0
 10
-1.316413385826772
 20
1.726346456692913
 30
0.0
 10
-1.316413385826772
 20
1.726346456692913
 30
0.0
 10
-1.316413385826772
 20
1.992094488188976
 30
0.0
 10
-1.316413385826772
 20
1.992094488188976
 30
0.0
 10
-1.316413385826772
 20
1.992094488188976
 30
0.0
 10
-1.316413385826772
 20
1.992094488188976
 30
0.0
 10
-1.434523622047244
 20
1.992094488188976
 30
0.0
 10
-1.434523622047244
 20
1.992094488188976
 30
0.0
 10
-1.434523622047244
 20
1.992094488188976
 30
0.0
 10
-1.434523622047244
 20
1.992094488188976
 30
0.0
 10
-1.434523622047244
 20
2.381858267716535
 30
0.0
 10
-1.434523622047244
 20
2.381858267716535
 30
0.0
 10
-1.434523622047244
 20
2.381858267716535
 30
0.0
 10
-1.434523622047244
 20
2.381858267716535
 30
0.0
 10
-1.316413385826772
 20
2.381858267716535
 30
0.0
 10
-1.316413385826772
 20
2.381858267716535
 30
0.0
 10
-1.316413385826772
 20
2.381858267716535
 30
0.0
 10
-1.316413385826772
 20
2.381858267716535
 30
0.0
 10
-1.316413385826772
 20
2.651543307086614
 30
0.0
 10
-1.316413385826772
 20
2.651543307086614
 30
0.0
 10
-1.316413385826772
 20
2.651543307086614
 30
0.0
 10
-1.316413385826772
 20
2.651543307086614
 30
0.0
 10
-1.434523622047244
 20
2.651543307086614
 30
0.0
 10
-1.434523622047244
 20
2.651543307086614
 30
0.0
 10
-1.434523622047244
 20
2.651543307086614
 30
0.0
 10
-1.434523622047244
 20
2.651543307086614
 30
0.0
 10
-1.434523622047244
 20
2.93303937007874
 30
0.0
 10
-1.434523622047244
 20
2.93303937007874
 30
0.0
 10
-1.434523622047244
 20
2.93303937007874
 30
0.0
 10
-1.434523622047244
 20
2.93303937007874
 30
0.0
 10
-1.316413385826772
 20
2.93303937007874
 30
0.0
 10
-1.316413385826772
 20
2.93303937007874
 30
0.0
 10
-1.316413385826772
 20
2.93303937007874
 30
0.0
 10
-1.316413385826772
 20
2.93303937007874
 30
0.0
 10
-1.316413385826772
 20
3.202724409448819
 30
0.0
 10
-1.316413385826772
 20
3.202724409448819
 30
0.0
 10
-1.316413385826772
 20
3.202724409448819
 30
0.0
 10
-1.316413385826772
 20
3.202724409448819
 30
0.0
 10
-1.434523622047244
 20
3.202724409448819
 30
0.0
 10
-1.434523622047244
 20
3.202724409448819
 30
0.0
 10
-1.434523622047244
 20
3.202724409448819
 30
0.0
 10
-1.434523622047244
 20
3.202724409448819
 30
0.0
 10
-1.434523622047244
 20
3.484220472440945
 30
0.0
 10
-1.434523622047244
 20
3.484220472440945
 30
0.0
 10
-1.434523622047244
 20
3.484220472440945
 30
0.0
 10
-1.434523622047244
 20
3.484220472440945
 30
0.0
 10
-1.316413385826772
 20
3.484220472440945
 30
0.0
 10
-1.316413385826772
 20
3.484220472440945
 30
0.0
 10
-1.316413385826772
 20
3.484220472440945
 30
0.0
 10
-1.316413385826772
 20
3.484220472440945
 30
0.0
 10
-1.316413385826772
 20
3.753905511811024
 30
0.0
 10
-1.316413385826772
 20
3.753905511811024
 30
0.0
 10
-1.316413385826772
 20
3.753905511811024
 30
0.0
 10
-1.316413385826772
 20
3.753905511811024
 30
0.0
 10
-1.434523622047244
 20
3.753905511811024
 30
0.0
 10
-1.434523622047244
 20
3.753905511811024
 30
0.0
 10
-1.434523622047244
 20
3.753905511811024
 30
0.0
 10
-1.434523622047244
 20
3.753905511811024
 30
0.0
 10
-1.434523622047244
 20
4.143669291338583
 30
0.0
 10
-1.434523622047244
 20
4.143669291338583
 30
0.0
 10
-1.434523622047244
 20
4.143669291338583
 30
0.0
 10
-1.434523622047244
 20
4.143669291338583
 30
0.0
 10
-1.316413385826772
 20
4.143669291338583
 30
0.0
 10
-1.316413385826772
 20
4.143669291338583
 30
0.0
 10
-1.316413385826772
 20
4.143669291338583
 30
0.0
 10
-1.316413385826772
 20
4.143669291338583
 30
0.0
 10
-1.316413385826772
 20
4.409417322834646
 30
0.0
 10
-1.316413385826772
 20
4.409417322834646
 30
0.0
  0
ELLIPSE
  5
48
330
1F
100
AcDbEntity
  8
HOLES
 62
   250
370
     9
100
AcDbEllipse
 10
-1.166066929133858
 20
-0.5625826771653544
 30
0.0
 11
0.0
 21
0.06119685039370078
 31
0.0
210
0.0
220
0.0
230
1.0
 40
1.0
 41
0.0
 42
6.283185307179586
  0
ELLIPSE
  5
49
330
1F
100
AcDbEntity
  8
HOLES
 62
   250
370
     9
100
AcDbEllipse
 10
1.117641732283465
 20
-0.5623385826771653
 30
0.0
 11
0.0
 21
0.06119685039370078
 31
0.0
210
0.0
220
0.0
230
1.0
 40
1.0
 41
0.0
 42
6.283185307179586
  0
SPLINE
  5
4A
330
1F
100
AcDbEntity
  8
HOLES
 62
   250
370
     9
100
AcDbSpline
210
0.0
220
0.0
230
1.0
 70
    11
 71
     3
 72
    40
 73
    36
 74
     0
 42
0.0000000001
 43
0.0000000001
 40
0.0
 40
0.0
 40
0.0
 40
0.0
 40
0.1
 40
0.1
 40
0.1
 40
0.1
 40
0.2
 40
0.2
 40
0.2
 40
0.2
 40
0.3
 40
0.3
 40
0.3
 40
0.3
 40
0.4
 40
0.4
 40
0.4
 40
0.4
 40
0.5
 40
0.5
 40
0.5
 40
0.5
 40
0.6
 40
0.6
 40
0.6
 40
0.6
 40
0.7
 40
0.7
 40
0.7
 40
0.7
 40
0.8
 40
0.8
 40
0.8
 40
0.8
 40
1.0
 40
1.0
 40
1.0
 40
1.0
 10
1.594610236220472
 20
-0.3578858267716535
 30
0.0
 10
1.688106299212598
 20
-0.3578858267716535
 30
0.0
 10
1.76390157480315
 20
-0.2820905511811024
 30
0.0
 10
1.76390157480315
 20
-0.1885944881889764
 30
0.0
 10
1.76390157480315
 20
-0.1885944881889764
 30
0.0
 10
1.76390157480315
 20
-0.0950984251968504
 30
0.0
 10
1.688106299212598
 20
-0.0193031496062992
 30
0.0
 10
1.594610236220472
 20
-0.0193031496062992
 30
0.0
 10
1.594610236220472
 20
-0.0193031496062992
 30
0.0
 10
1.532767716535433
 20
-0.0193031496062992
 30
0.0
 10
1.478681102362205
 20
-0.0524724409448819
 30
0.0
 10
1.449137795275591
 20
-0.1019803149606299
 30
0.0
 10
1.449137795275591
 20
-0.1019803149606299
 30
0.0
 10
1.449137795275591
 20
-0.1019803149606299
 30
0.0
 10
1.263208661417323
 20
-0.1019803149606299
 30
0.0
 10
1.263208661417323
 20
-0.1019803149606299
 30
0.0
 10
1.263208661417323
 20
-0.1019803149606299
 30
0.0
 10
1.215570866141732
 20
-0.1019803149606299
 30
0.0
 10
1.17659842519685
 20
-0.1409527559055118
 30
0.0
 10
1.17659842519685
 20
-0.1885905511811024
 30
0.0
 10
1.17659842519685
 20
-0.1885905511811024
 30
0.0
 10
1.17659842519685
 20
-0.1885905511811024
 30
0.0
 10
1.17659842519685
 20
-0.1885984251968504
 30
0.0
 10
1.17659842519685
 20
-0.1885984251968504
 30
0.0
 10
1.17659842519685
 20
-0.1885984251968504
 30
0.0
 10
1.17659842519685
 20
-0.2362362204724409
 30
0.0
 10
1.215570866141732
 20
-0.2752086614173228
 30
0.0
 10
1.263208661417323
 20
-0.2752086614173228
 30
0.0
 10
1.263208661417323
 20
-0.2752086614173228
 30
0.0
 10
1.263208661417323
 20
-0.2752086614173228
 30
0.0
 10
1.449137795275591
 20
-0.2752086614173228
 30
0.0
 10
1.449137795275591
 20
-0.2752086614173228
 30
0.0
 10
1.449137795275591
 20
-0.2752086614173228
 30
0.0
 10
1.478681102362205
 20
-0.3247165354330709
 30
0.0
 10
1.532767716535433
 20
-0.3578858267716535
 30
0.0
 10
1.594610236220472
 20
-0.3578858267716535
 30
0.0
  0
SPLINE
  5
4B
330
1F
100
AcDbEntity
  8
HOLES
 62
   250
370
     9
100
AcDbSpline
210
0.0
220
0.0
230
1.0
 70
    11
 71
     3
 72
    40
 73
    36
 74
     0
 42
0.0000000001
 43
0.0000000001
 40
0.0
 40
0.0
 40
0.0
 40
0.0
 40
0.1
 40
0.1
 40
0.1
 40
0.1
 40
0.2
 40
0.2
 40
0.2
 40
0.2
 40
0.3
 40
0.3
 40
0.3
 40
0.3
 40
0.4
 40
0.4
 40
0.4
 40
0.4
 40
0.5
 40
0.5
 40
0.5
 40
0.5
 40
0.6
 40
0.6
 40
0.6
 40
0.6
 40
0.7
 40
0.7
 40
0.7
 40
0.7
 40
0.8
 40
0.8
 40
0.8
 40
0.8
 40
1.0
 40
1.0
 40
1.0
 40
1.0
 10
-0.1781889763779528
 20
-0.3578858267716535
 30
0.0
 10
-0.0846929133858268
 20
-0.3578858267716535
 30
0.0
 10
-0.0088976377952756
 20
-0.2820905511811024
 30
0.0
 10
-0.0088976377952756
 20
-0.1885944881889764
 30
0.0
 10
-0.0088976377952756
 20
-0.1885944881889764
 30
0.0
 10
-0.0088976377952756
 20
-0.0950984251968504
 30
0.0
 10
-0.0846929133858268
 20
-0.0193031496062992
 30
0.0
 10
-0.1781889763779528
 20
-0.0193031496062992
 30
0.0
 10
-0.1781889763779528
 20
-0.0193031496062992
 30
0.0
 10
-0.2400314960629921
 20
-0.0193031496062992
 30
0.0
 10
-0.2941181102362205
 20
-0.0524724409448819
 30
0.0
 10
-0.3236614173228347
 20
-0.1019803149606299
 30
0.0
 10
-0.3236614173228347
 20
-0.1019803149606299
 30
0.0
 10
-0.3236614173228347
 20
-0.1019803149606299
 30
0.0
 10
-0.5095905511811024
 20
-0.1019803149606299
 30
0.0
 10
-0.5095905511811024
 20
-0.1019803149606299
 30
0.0
 10
-0.5095905511811024
 20
-0.1019803149606299
 30
0.0
 10
-0.557228346456693
 20
-0.1019803149606299
 30
0.0
 10
-0.5962007874015748
 20
-0.1409527559055118
 30
0.0
 10
-0.5962007874015748
 20
-0.1885905511811024
 30
0.0
 10
-0.5962007874015748
 20
-0.1885905511811024
 30
0.0
 10
-0.5962007874015748
 20
-0.1885905511811024
 30
0.0
 10
-0.5962007874015748
 20
-0.1885984251968504
 30
0.0
 10
-0.5962007874015748
 20
-0.1885984251968504
 30
0.0
 10
-0.5962007874015748
 20
-0.1885984251968504
 30
0.0
 10
-0.5962007874015748
 20
-0.2362362204724409
 30
0.0
 10
-0.557228346456693
 20
-0.2752086614173228
 30
0.0
 10
-0.5095905511811024
 20
-0.2752086614173228
 30
0.0
 10
-0.5095905511811024
 20
-0.2752086614173228
 30
0.0
 10
-0.5095905511811024
 20
-0.2752086614173228
 30
0.0
 10
-0.3236614173228347
 20
-0.2752086614173228
 30
0.0
 10
-0.3236614173228347
 20
-0.2752086614173228
 30
0.0
 10
-0.3236614173228347
 20
-0.2752086614173228
 30
0.0
 10
-0.2941181102362205
 20
-0.3247165354330709
 30
0.0
 10
-0.2400314960629921
 20
-0.3578858267716535
 30
0.0
 10
-0.1781889763779528
 20
-0.3578858267716535
 30
0.0
  0
ELLIPSE
  5
4C
330
1F
100
AcDbEntity
  8
HOLES
 62
   250
370
     9
100
AcDbEllipse
 10
1.29359842519685
 20
0.9243779527559055
 30
0.0
 11
0.0
 21
0.07480314960629922
 31
0.0
210
0.0
220
0.0
230
1.0
 40
1.0
 41
0.0
 42
6.283185307179586
  0
SPLINE
  5
4D
330
1F
100
AcDbEntity
  8
HOLES
 62
   250
370
     9
100
AcDbSpline
210
0.0
220
0.0
230
1.0
 70
    11
 71
     3
 72
    20
 73
    16
 74
     0
 42
0.0000000001
 43
0.0000000001
 40
0.0
 40
0.0
 40
0.0
 40
0.0
 40
0.2
 40
0.2
 40
0.2
 40
0.2
 40
0.4
 40
0.4
 40
0.4
 40
0.4
 40
0.6
 40
0.6
 40
0.6
 40
0.6
 40
1.0
 40
1.0
 40
1.0
 40
1.0
 10
-1.172133858267717
 20
0.7426535433070867
 30
0.0
 10
-1.172133858267717
 20
0.7426535433070867
 30
0.0
 10
-1.172133858267717
 20
1.089110236220473
 30
0.0
 10
-1.172133858267717
 20
1.089110236220473
 30
0.0
 10
-1.172133858267717
 20
1.089110236220473
 30
0.0
 10
-1.172133858267717
 20
1.089110236220473
 30
0.0
 10
1.13890157480315
 20
1.089110236220473
 30
0.0
 10
1.13890157480315
 20
1.089110236220473
 30
0.0
 10
1.13890157480315
 20
1.089110236220473
 30
0.0
 10
1.13890157480315
 20
1.089110236220473
 30
0.0
 10
1.13890157480315
 20
0.7426535433070867
 30
0.0
 10
1.13890157480315
 20
0.7426535433070867
 30
0.0
 10
1.13890157480315
 20
0.7426535433070867
 30
0.0
 10
1.13890157480315
 20
0.7426535433070867
 30
0.0
 10
-1.172133858267717
 20
0.7426535433070867
 30
0.0
 10
-1.172133858267717
 20
0.7426535433070867
 30
0.0
  0
SPLINE
  5
4E
330
1F
100
AcDbEntity
  8
HOLES
 62
   250
370
     9
100
AcDbSpline
210
0.0
220
0.0
230
1.0
 70
    11
 71
     3
 72
    20
 73
    16
 74
     0
 42
0.0000000001
 43
0.0000000001
 40
0.0
 40
0.0
 40
0.0
 40
0.0
 40
0.2
 40
0.2
 40
0.2
 40
0.2
 40
0.4
 40
0.4
 40
0.4
 40
0.4
 40
0.6
 40
0.6
 40
0.6
 40
0.6
 40
1.0
 40
1.0
 40
1.0
 40
1.0
 10
-1.026456692913386
 20
0.8843858267716536
 30
0.0
 10
-1.026456692913386
 20
0.8843858267716536
 30
0.0
 10
-1.026456692913386
 20
1.089110236220473
 30
0.0
 10
-1.026456692913386
 20
1.089110236220473
 30
0.0
 10
-1.026456692913386
 20
1.089110236220473
 30
0.0
 10
-1.026456692913386
 20
1.089110236220473
 30
0.0
 10
0.9932244094488188
 20
1.089110236220473
 30
0.0
 10
0.9932244094488188
 20
1.089110236220473
 30
0.0
 10
0.9932244094488188
 20
1.089110236220473
 30
0.0
 10
0.9932244094488188
 20
1.089110236220473
 30
0.0
 10
0.9932244094488188
 20
0.8843858267716536
 30
0.0
 10
0.9932244094488188
 20
0.8843858267716536
 30
0.0
 10
0.9932244094488188
 20
0.8843858267716536
 30
0.0
 10
0.9932244094488188
 20
0.8843858267716536
 30
0.0
 10
-1.026456692913386
 20
0.8843858267716536
 30
0.0
 10
-1.026456692913386
 20
0.8843858267716536
 30
0.0
  0
SPLINE
  5
4F
330
1F
100
AcDbEntity
  8
HOLES
 62
   250
370
     9
100
AcDbSpline
210
0.0
220
0.0
230
1.0
 70
    11
 71
     3
 72
    36
 73
    32
 74
     0
 42
0.0000000001
 43
0.0000000001
 40
0.0
 40
0.0
 40
0.0
 40
0.0
 40
0.1111111111111111
 40
0.1111111111111111
 40
0.1111111111111111
 40
0.1111111111111111
 40
0.2222222222222222
 40
0.2222222222222222
 40
0.2222222222222222
 40
0.2222222222222222
 40
0.3333333333333333
 40
0.3333333333333333
 40
0.3333333333333333
 40
0.3333333333333333
 40
0.4444444444444444
 40
0.4444444444444444
 40
0.4444444444444444
 40
0.4444444444444444
 40
0.5555555555555556
 40
0.5555555555555556
 40
0.5555555555555556
 40
0.5555555555555556
 40
0.6666666666666666
 40
0.6666666666666666
 40
0.6666666666666666
 40
0.6666666666666666
 40
0.7777777777777778
 40
0.7777777777777778
 40
0.7777777777777778
 40
0.7777777777777778
 40
1.0
 40
1.0
 40
1.0
 40
1.0
 10
-0.2400472440944882
 20
-3.04815748031496
 30
0.0
 10
-0.2400472440944882
 20
-3.04815748031496
 30
0.0
 10
0.1557125984251969
 20
-3.04815748031496
 30
0.0
 10
0.1557125984251969
 20
-3.04815748031496
 30
0.0
 10
0.1557125984251969
 20
-3.04815748031496
 30
0.0
 10
0.2116929133858268
 20
-3.04815748031496
 30
0.0
 10
0.2574881889763779
 20
-3.093952755905512
 30
0.0
 10
0.2574881889763779
 20
-3.149933070866142
 30
0.0
 10
0.2574881889763779
 20
-3.149933070866142
 30
0.0
 10
0.2574881889763779
 20
-3.149933070866142
 30
0.0
 10
0.2574881889763779
 20
-3.260358267716535
 30
0.0
 10
0.2574881889763779
 20
-3.260358267716535
 30
0.0
 10
0.2574881889763779
 20
-3.260358267716535
 30
0.0
 10
0.2574881889763779
 20
-3.271641732283465
 30
0.0
 10
0.248259842519685
 20
-3.280870078740158
 30
0.0
 10
0.2369763779527559
 20
-3.280870078740158
 30
0.0
 10
0.2369763779527559
 20
-3.280870078740158
 30
0.0
 10
0.2369763779527559
 20
-3.280870078740158
 30
0.0
 10
-0.3246259842519685
 20
-3.280870078740158
 30
0.0
 10
-0.3246259842519685
 20
-3.280870078740158
 30
0.0
 10
-0.3246259842519685
 20
-3.280870078740158
 30
0.0
 10
-0.3359094488188976
 20
-3.280870078740158
 30
0.0
 10
-0.3451377952755906
 20
-3.271641732283465
 30
0.0
 10
-0.3451377952755906
 20
-3.260358267716535
 30
0.0
 10
-0.3451377952755906
 20
-3.260358267716535
 30
0.0
 10
-0.3451377952755906
 20
-3.260358267716535
 30
0.0
 10
-0.3451377952755906
 20
-3.153248031496063
 30
0.0
 10
-0.3451377952755906
 20
-3.153248031496063
 30
0.0
 10
-0.3451377952755906
 20
-3.153248031496063
 30
0.0
 10
-0.3451377952755906
 20
-3.095444881889764
 30
0.0
 10
-0.2978503937007874
 20
-3.04815748031496
 30
0.0
 10
-0.2400472440944882
 20
-3.04815748031496
 30
0.0
  0
ELLIPSE
  5
50
330
1F
100
AcDbEntity
  8
HOLES
 62
   250
370
     9
100
AcDbEllipse
 10
0.8018188976377952
 20
-3.134212598425197
 30
0.0
 11
0.0
 21
0.1299212598425197
 31
0.0
210
0.0
220
0.0
230
1.0
 40
1.0
 41
0.0
 42
6.283185307179586
  0
ELLIPSE
  5
51
330
1F
100
AcDbEntity
  8
HOLES
 62
   250
370
     9
100
AcDbEllipse
 10
1.117641732283465
 20
-2.491472440944882
 30
0.0
 11
0.0
 21
0.06119685039370078
 31
0.0
210
0.0
220
0.0
230
1.0
 40
1.0
 41
0.0
 42
6.283185307179586
  0
ELLIPSE
  5
52
330
1F
100
AcDbEntity
  8
HOLES
 62
   250
370
     9
100
AcDbEllipse
 10
-1.165822834645669
 20
-2.491472440944882
 30
0.0
 11
0.0
 21
0.06119685039370078
 31
0.0
210
0.0
220
0.0
230
1.0
 40
1.0
 41
0.0
 42
6.283185307179586
  0
SPLINE
  5
53
330
1F
100
AcDbEntity
  8
HOLES
 62
   114
370
     9
100
AcDbSpline
210
0.0
220
0.0
230
1.0
 70
    11
 71
     3
 72
    36
 73
    32
 74
     0
 42
0.0000000001
 43
0.0000000001
 40
0.0
 40
0.0
 40
0.0
 40
0.0
 40
0.1111111111111111
 40
0.1111111111111111
 40
0.1111111111111111
 40
0.1111111111111111
 40
0.2222222222222222
 40
0.2222222222222222
 40
0.2222222222222222
 40
0.2222222222222222
 40
0.3333333333333333
 40
0.3333333333333333
 40
0.3333333333333333
 40
0.3333333333333333
 40
0.4444444444444444
 40
0.4444444444444444
 40
0.4444444444444444
 40
0.4444444444444444
 40
0.5555555555555556
 40
0.5555555555555556
 40
0.5555555555555556
 40
0.5555555555555556
 40
0.6666666666666666
 40
0.6666666666666666
 40
0.6666666666666666
 40
0.6666666666666666
 40
0.7777777777777778
 40
0.7777777777777778
 40
0.7777777777777778
 40
0.7777777777777778
 40
1.0
 40
1.0
 40
1.0
 40
1.0
 10
-0.7466181102362205
 20
-2.992476377952756
 30
0.0
 10
-0.7466181102362205
 20
-2.992476377952756
 30
0.0
 10
-1.024433070866142
 20
-2.992476377952756
 30
0.0
 10
-1.024433070866142
 20
-2.992476377952756
 30
0.0
 10
-1.024433070866142
 20
-2.992476377952756
 30
0.0
 10
-1.040062992125984
 20
-2.992476377952756
 30
0.0
 10
-1.052850393700787
 20
-3.005263779527559
 30
0.0
 10
-1.052850393700787
 20
-3.020893700787401
 30
0.0
 10
-1.052850393700787
 20
-3.020893700787401
 30
0.0
 10
-1.052850393700787
 20
-3.020893700787401
 30
0.0
 10
-1.052850393700787
 20
-3.118724409448819
 30
0.0
 10
-1.052850393700787
 20
-3.118724409448819
 30
0.0
 10
-1.052850393700787
 20
-3.118724409448819
 30
0.0
 10
-1.052850393700787
 20
-3.134350393700787
 30
0.0
 10
-1.040062992125984
 20
-3.147137795275591
 30
0.0
 10
-1.024433070866142
 20
-3.147137795275591
 30
0.0
 10
-1.024433070866142
 20
-3.147137795275591
 30
0.0
 10
-1.024433070866142
 20
-3.147137795275591
 30
0.0
 10
-0.7466181102362205
 20
-3.147137795275591
 30
0.0
 10
-0.7466181102362205
 20
-3.147137795275591
 30
0.0
 10
-0.7466181102362205
 20
-3.147137795275591
 30
0.0
 10
-0.730992125984252
 20
-3.147137795275591
 30
0.0
 10
-0.7182047244094488
 20
-3.134350393700787
 30
0.0
 10
-0.7182047244094488
 20
-3.118724409448819
 30
0.0
 10
-0.7182047244094488
 20
-3.118724409448819
 30
0.0
 10
-0.7182047244094488
 20
-3.118724409448819
 30
0.0
 10
-0.7182047244094488
 20
-3.020893700787401
 30
0.0
 10
-0.7182047244094488
 20
-3.020893700787401
 30
0.0
 10
-0.7182047244094488
 20
-3.020893700787401
 30
0.0
 10
-0.7182047244094488
 20
-3.005263779527559
 30
0.0
 10
-0.730992125984252
 20
-2.992476377952756
 30
0.0
 10
-0.7466181102362205
 20
-2.992476377952756
 30
0.0
  0
SPLINE
  5
54
330
1F
100
AcDbEntity
  8
HOLES
 62
   250
370
     9
100
AcDbSpline
210
0.0
220
0.0
230
1.0
 70
    11
 71
     3
 72
    20
 73
    16
 74
     0
 42
0.0000000001
 43
0.0000000001
 40
0.0
 40
0.0
 40
0.0
 40
0.0
 40
0.2
 40
0.2
 40
0.2
 40
0.2
 40
0.4
 40
0.4
 40
0.4
 40
0.4
 40
0.6
 40
0.6
 40
0.6
 40
0.6
 40
1.0
 40
1.0
 40
1.0
 40
1.0
 10
-2.532803149606299
 20
-1.488318897637795
 30
0.0
 10
-2.532803149606299
 20
-1.488318897637795
 30
0.0
 10
-2.532803149606299
 20
-2.116649606299212
 30
0.0
 10
-2.532803149606299
 20
-2.116649606299212
 30
0.0
 10
-2.532803149606299
 20
-2.116649606299212
 30
0.0
 10
-2.532803149606299
 20
-2.116649606299212
 30
0.0
 10
-2.417476377952756
 20
-2.116649606299212
 30
0.0
 10
-2.417476377952756
 20
-2.116649606299212
 30
0.0
 10
-2.417476377952756
 20
-2.116649606299212
 30
0.0
 10
-2.417476377952756
 20
-2.116649606299212
 30
0.0
 10
-2.417476377952756
 20
-1.488318897637795
 30
0.0
 10
-2.417476377952756
 20
-1.488318897637795
 30
0.0
 10
-2.417476377952756
 20
-1.488318897637795
 30
0.0
 10
-2.417476377952756
 20
-1.488318897637795
 30
0.0
 10
-2.532803149606299
 20
-1.488318897637795
 30
0.0
 10
-2.532803149606299
 20
-1.488318897637795
 30
0.0
  0
SPLINE
  5
55
330
1F
100
AcDbEntity
  8
HOLES
 62
   250
370
     9
100
AcDbSpline
210
0.0
220
0.0
230
1.0
 70
    24
 71
     3
 72
     8
 73
     4
 74
     0
 42
0.0000000001
 43
0.0000000001
 40
0.0
 40
0.0
 40
0.0
 40
0.0
 40
1.0
 40
1.0
 40
1.0
 40
1.0
 10
-2.416283464566929
 20
-2.072992125984252
 30
0.0
 10
-2.416283464566929
 20
-2.072992125984252
 30
0.0
 10
-2.38757874015748
 20
-2.072992125984252
 30
0.0
 10
-2.38757874015748
 20
-2.072992125984252
 30
0.0
  0
SPLINE
  5
56
330
1F
100
AcDbEntity
  8
HOLES
 62
   250
370
     9
100
AcDbSpline
210
0.0
220
0.0
230
1.0
 70
    24
 71
     3
 72
     8
 73
     4
 74
     0
 42
0.0000000001
 43
0.0000000001
 40
0.0
 40
0.0
 40
0.0
 40
0.0
 40
1.0
 40
1.0
 40
1.0
 40
1.0
 10
-2.38757874015748
 20
-2.118240157480315
 30
0.0
 10
-2.38757874015748
 20
-2.118240157480315
 30
0.0
 10
-2.38757874015748
 20
-2.027751968503937
 30
0.0
 10
-2.38757874015748
 20
-2.027751968503937
 30
0.0
  0
SPLINE
  5
57
330
1F
100
AcDbEntity
  8
HOLES
 62
   250
370
     9
100
AcDbSpline
210
0.0
220
0.0
230
1.0
 70
    24
 71
     3
 72
     8
 73
     4
 74
     0
 42
0.0000000001
 43
0.0000000001
 40
0.0
 40
0.0
 40
0.0
 40
0.0
 40
1.0
 40
1.0
 40
1.0
 40
1.0
 10
-2.367366141732283
 20
-2.098775590551181
 30
0.0
 10
-2.367366141732283
 20
-2.098775590551181
 30
0.0
 10
-2.367366141732283
 20
-2.047220472440945
 30
0.0
 10
-2.367366141732283
 20
-2.047220472440945
 30
0.0
  0
SPLINE
  5
58
330
1F
100
AcDbEntity
  8
HOLES
 62
   250
370
     9
100
AcDbSpline
210
0.0
220
0.0
230
1.0
 70
    24
 71
     3
 72
     8
 73
     4
 74
     0
 42
0.0000000001
 43
0.0000000001
 40
0.0
 40
0.0
 40
0.0
 40
0.0
 40
1.0
 40
1.0
 40
1.0
 40
1.0
 10
-2.348720472440945
 20
-2.082468503937008
 30
0.0
 10
-2.348720472440945
 20
-2.082468503937008
 30
0.0
 10
-2.348720472440945
 20
-2.063523622047244
 30
0.0
 10
-2.348720472440945
 20
-2.063523622047244
 30
0.0
  0
SPLINE
  5
59
330
1F
100
AcDbEntity
  8
HOLES
 62
   250
370
     9
100
AcDbSpline
210
0.0
220
0.0
230
1.0
 70
    11
 71
     3
 72
    36
 73
    32
 74
     0
 42
0.0000000001
 43
0.0000000001
 40
0.0
 40
0.0
 40
0.0
 40
0.0
 40
0.1111111111111111
 40
0.1111111111111111
 40
0.1111111111111111
 40
0.1111111111111111
 40
0.2222222222222222
 40
0.2222222222222222
 40
0.2222222222222222
 40
0.2222222222222222
 40
0.3333333333333333
 40
0.3333333333333333
 40
0.3333333333333333
 40
0.3333333333333333
 40
0.4444444444444444
 40
0.4444444444444444
 40
0.4444444444444444
 40
0.4444444444444444
 40
0.5555555555555556
 40
0.5555555555555556
 40
0.5555555555555556
 40
0.5555555555555556
 40
0.6666666666666666
 40
0.6666666666666666
 40
0.6666666666666666
 40
0.6666666666666666
 40
0.7777777777777778
 40
0.7777777777777778
 40
0.7777777777777778
 40
0.7777777777777778
 40
1.0
 40
1.0
 40
1.0
 40
1.0
 10
-1.217236220472441
 20
3.486291338582677
 30
0.0
 10
-1.217236220472441
 20
3.486291338582677
 30
0.0
 10
-1.217236220472441
 20
3.095547244094488
 30
0.0
 10
-1.217236220472441
 20
3.095547244094488
 30
0.0
 10
-1.217236220472441
 20
3.095547244094488
 30
0.0
 10
-1.217236220472441
 20
3.089318897637795
 30
0.0
 10
-1.212141732283465
 20
3.084228346456693
 30
0.0
 10
-1.205913385826772
 20
3.084228346456693
 30
0.0
 10
-1.205913385826772
 20
3.084228346456693
 30
0.0
 10
-1.205913385826772
 20
3.084228346456693
 30
0.0
 10
-0.8151732283464567
 20
3.084228346456693
 30
0.0
 10
-0.8151732283464567
 20
3.084228346456693
 30
0.0
 10
-0.8151732283464567
 20
3.084228346456693
 30
0.0
 10
-0.8089448818897638
 20
3.084228346456693
 30
0.0
 10
-0.8038503937007874
 20
3.089318897637795
 30
0.0
 10
-0.8038503937007874
 20
3.095547244094488
 30
0.0
 10
-0.8038503937007874
 20
3.095547244094488
 30
0.0
 10
-0.8038503937007874
 20
3.095547244094488
 30
0.0
 10
-0.8038503937007874
 20
3.486291338582677
 30
0.0
 10
-0.8038503937007874
 20
3.486291338582677
 30
0.0
 10
-0.8038503937007874
 20
3.486291338582677
 30
0.0
 10
-0.8038503937007874
 20
3.49251968503937
 30
0.0
 10
-0.8089448818897638
 20
3.497614173228346
 30
0.0
 10
-0.8151732283464567
 20
3.497614173228346
 30
0.0
 10
-0.8151732283464567
 20
3.497614173228346
 30
0.0
 10
-0.8151732283464567
 20
3.497614173228346
 30
0.0
 10
-1.205913385826772
 20
3.497614173228346
 30
0.0
 10
-1.205913385826772
 20
3.497614173228346
 30
0.0
 10
-1.205913385826772
 20
3.497614173228346
 30
0.0
 10
-1.212141732283465
 20
3.497614173228346
 30
0.0
 10
-1.217236220472441
 20
3.49251968503937
 30
0.0
 10
-1.217236220472441
 20
3.486291338582677
 30
0.0
  0
SPLINE
  5
5A
330
1F
100
AcDbEntity
  8
HOLES
 62
   114
370
     9
100
AcDbSpline
210
0.0
220
0.0
230
1.0
 70
    11
 71
     3
 72
    36
 73
    32
 74
     0
 42
0.0000000001
 43
0.0000000001
 40
0.0
 40
0.0
 40
0.0
 40
0.0
 40
0.1111111111111111
 40
0.1111111111111111
 40
0.1111111111111111
 40
0.1111111111111111
 40
0.2222222222222222
 40
0.2222222222222222
 40
0.2222222222222222
 40
0.2222222222222222
 40
0.3333333333333333
 40
0.3333333333333333
 40
0.3333333333333333
 40
0.3333333333333333
 40
0.4444444444444444
 40
0.4444444444444444
 40
0.4444444444444444
 40
0.4444444444444444
 40
0.5555555555555556
 40
0.5555555555555556
 40
0.5555555555555556
 40
0.5555555555555556
 40
0.6666666666666666
 40
0.6666666666666666
 40
0.6666666666666666
 40
0.6666666666666666
 40
0.7777777777777778
 40
0.7777777777777778
 40
0.7777777777777778
 40
0.7777777777777778
 40
1.0
 40
1.0
 40
1.0
 40
1.0
 10
2.445307086614173
 20
-0.0576889763779528
 30
0.0
 10
2.445307086614173
 20
-0.0576889763779528
 30
0.0
 10
2.445307086614173
 20
-0.4360905511811023
 30
0.0
 10
2.445307086614173
 20
-0.4360905511811023
 30
0.0
 10
2.445307086614173
 20
-0.4360905511811023
 30
0.0
 10
2.445307086614173
 20
-0.4619527559055118
 30
0.0
 10
2.466464566929134
 20
-0.4831102362204724
 30
0.0
 10
2.492326771653543
 20
-0.4831102362204724
 30
0.0
 10
2.492326771653543
 20
-0.4831102362204724
 30
0.0
 10
2.492326771653543
 20
-0.4831102362204724
 30
0.0
 10
2.654192913385827
 20
-0.4831102362204724
 30
0.0
 10
2.654192913385827
 20
-0.4831102362204724
 30
0.0
 10
2.654192913385827
 20
-0.4831102362204724
 30
0.0
 10
2.680051181102362
 20
-0.4831102362204724
 30
0.0
 10
2.701212598425197
 20
-0.4619527559055118
 30
0.0
 10
2.701212598425197
 20
-0.4360905511811023
 30
0.0
 10
2.701212598425197
 20
-0.4360905511811023
 30
0.0
 10
2.701212598425197
 20
-0.4360905511811023
 30
0.0
 10
2.701212598425197
 20
-0.0576889763779528
 30
0.0
 10
2.701212598425197
 20
-0.0576889763779528
 30
0.0
 10
2.701212598425197
 20
-0.0576889763779528
 30
0.0
 10
2.701212598425197
 20
-0.0318307086614173
 30
0.0
 10
2.680051181102362
 20
-0.0106692913385827
 30
0.0
 10
2.654192913385827
 20
-0.0106692913385827
 30
0.0
 10
2.654192913385827
 20
-0.0106692913385827
 30
0.0
 10
2.654192913385827
 20
-0.0106692913385827
 30
0.0
 10
2.492326771653543
 20
-0.0106692913385827
 30
0.0
 10
2.492326771653543
 20
-0.0106692913385827
 30
0.0
 10
2.492326771653543
 20
-0.0106692913385827
 30
0.0
 10
2.466464566929134
 20
-0.0106692913385827
 30
0.0
 10
2.445307086614173
 20
-0.0318307086614173
 30
0.0
 10
2.445307086614173
 20
-0.0576889763779528
 30
0.0
  0
ELLIPSE
  5
5B
330
1F
100
AcDbEntity
  8
HOLES
 62
   250
370
     9
100
AcDbEllipse
 10
2.943783464566929
 20
-0.2508267716535433
 30
0.0
 11
0.0
 21
0.1344173228346457
 31
0.0
210
0.0
220
0.0
230
1.0
 40
1.0
 41
0.0
 42
6.283185307179586
  0
SPLINE
  5
5C
330
1F
100
AcDbEntity
  8
HOLES
 62
   250
370
     9
100
AcDbSpline
210
0.0
220
0.0
230
1.0
 70
    11
 71
     3
 72
    36
 73
    32
 74
     0
 42
0.0000000001
 43
0.0000000001
 40
0.0
 40
0.0
 40
0.0
 40
0.0
 40
0.1111111111111111
 40
0.1111111111111111
 40
0.1111111111111111
 40
0.1111111111111111
 40
0.2222222222222222
 40
0.2222222222222222
 40
0.2222222222222222
 40
0.2222222222222222
 40
0.3333333333333333
 40
0.3333333333333333
 40
0.3333333333333333
 40
0.3333333333333333
 40
0.4444444444444444
 40
0.4444444444444444
 40
0.4444444444444444
 40
0.4444444444444444
 40
0.5555555555555556
 40
0.5555555555555556
 40
0.5555555555555556
 40
0.5555555555555556
 40
0.6666666666666666
 40
0.6666666666666666
 40
0.6666666666666666
 40
0.6666666666666666
 40
0.7777777777777778
 40
0.7777777777777778
 40
0.7777777777777778
 40
0.7777777777777778
 40
1.0
 40
1.0
 40
1.0
 40
1.0
 10
3.338535433070866
 20
-1.90094094488189
 30
0.0
 10
3.338535433070866
 20
-1.90094094488189
 30
0.0
 10
2.818464566929134
 20
-1.90094094488189
 30
0.0
 10
2.818464566929134
 20
-1.90094094488189
 30
0.0
 10
2.818464566929134
 20
-1.90094094488189
 30
0.0
 10
2.806657480314961
 20
-1.90094094488189
 30
0.0
 10
2.797003937007874
 20
-1.910590551181102
 30
0.0
 10
2.797003937007874
 20
-1.922397637795276
 30
0.0
 10
2.797003937007874
 20
-1.922397637795276
 30
0.0
 10
2.797003937007874
 20
-1.922397637795276
 30
0.0
 10
2.797003937007874
 20
-2.529086614173228
 30
0.0
 10
2.797003937007874
 20
-2.529086614173228
 30
0.0
 10
2.797003937007874
 20
-2.529086614173228
 30
0.0
 10
2.797003937007874
 20
-2.540893700787402
 30
0.0
 10
2.806657480314961
 20
-2.550547244094488
 30
0.0
 10
2.818464566929134
 20
-2.550547244094488
 30
0.0
 10
2.818464566929134
 20
-2.550547244094488
 30
0.0
 10
2.818464566929134
 20
-2.550547244094488
 30
0.0
 10
3.338535433070866
 20
-2.550547244094488
 30
0.0
 10
3.338535433070866
 20
-2.550547244094488
 30
0.0
 10
3.338535433070866
 20
-2.550547244094488
 30
0.0
 10
3.350342519685039
 20
-2.550547244094488
 30
0.0
 10
3.359996062992126
 20
-2.540893700787402
 30
0.0
 10
3.359996062992126
 20
-2.529086614173228
 30
0.0
 10
3.359996062992126
 20
-2.529086614173228
 30
0.0
 10
3.359996062992126
 20
-2.529086614173228
 30
0.0
 10
3.359996062992126
 20
-1.922397637795276
 30
0.0
 10
3.359996062992126
 20
-1.922397637795276
 30
0.0
 10
3.359996062992126
 20
-1.922397637795276
 30
0.0
 10
3.359996062992126
 20
-1.910590551181102
 30
0.0
 10
3.350342519685039
 20
-1.90094094488189
 30
0.0
 10
3.338535433070866
 20
-1.90094094488189
 30
0.0
  0
SPLINE
  5
5D
330
1F
100
AcDbEntity
  8
HOLES
 62
   250
370
     9
100
AcDbSpline
210
0.0
220
0.0
230
1.0
 70
    11
 71
     3
 72
    36
 73
    32
 74
     0
 42
0.0000000001
 43
0.0000000001
 40
0.0
 40
0.0
 40
0.0
 40
0.0
 40
0.1111111111111111
 40
0.1111111111111111
 40
0.1111111111111111
 40
0.1111111111111111
 40
0.2222222222222222
 40
0.2222222222222222
 40
0.2222222222222222
 40
0.2222222222222222
 40
0.3333333333333333
 40
0.3333333333333333
 40
0.3333333333333333
 40
0.3333333333333333
 40
0.4444444444444444
 40
0.4444444444444444
 40
0.4444444444444444
 40
0.4444444444444444
 40
0.5555555555555556
 40
0.5555555555555556
 40
0.5555555555555556
 40
0.5555555555555556
 40
0.6666666666666666
 40
0.6666666666666666
 40
0.6666666666666666
 40
0.6666666666666666
 40
0.7777777777777778
 40
0.7777777777777778
 40
0.7777777777777778
 40
0.7777777777777778
 40
1.0
 40
1.0
 40
1.0
 40
1.0
 10
3.298263779527559
 20
-0.474488188976378
 30
0.0
 10
3.298263779527559
 20
-0.474488188976378
 30
0.0
 10
2.756452755905512
 20
-0.474488188976378
 30
0.0
 10
2.756452755905512
 20
-0.474488188976378
 30
0.0
 10
2.756452755905512
 20
-0.474488188976378
 30
0.0
 10
2.729185039370079
 20
-0.474488188976378
 30
0.0
 10
2.70688188976378
 20
-0.4967913385826772
 30
0.0
 10
2.70688188976378
 20
-0.5240590551181102
 30
0.0
 10
2.70688188976378
 20
-0.5240590551181102
 30
0.0
 10
2.70688188976378
 20
-0.5240590551181102
 30
0.0
 10
2.70688188976378
 20
-1.031212598425197
 30
0.0
 10
2.70688188976378
 20
-1.031212598425197
 30
0.0
 10
2.70688188976378
 20
-1.031212598425197
 30
0.0
 10
2.70688188976378
 20
-1.058484251968504
 30
0.0
 10
2.729185039370079
 20
-1.080787401574803
 30
0.0
 10
2.756452755905512
 20
-1.080787401574803
 30
0.0
 10
2.756452755905512
 20
-1.080787401574803
 30
0.0
 10
2.756452755905512
 20
-1.080787401574803
 30
0.0
 10
3.298263779527559
 20
-1.080787401574803
 30
0.0
 10
3.298263779527559
 20
-1.080787401574803
 30
0.0
 10
3.298263779527559
 20
-1.080787401574803
 30
0.0
 10
3.325531496062992
 20
-1.080787401574803
 30
0.0
 10
3.347834645669291
 20
-1.058484251968504
 30
0.0
 10
3.347834645669291
 20
-1.031212598425197
 30
0.0
 10
3.347834645669291
 20
-1.031212598425197
 30
0.0
 10
3.347834645669291
 20
-1.031212598425197
 30
0.0
 10
3.347834645669291
 20
-0.5240590551181102
 30
0.0
 10
3.347834645669291
 20
-0.5240590551181102
 30
0.0
 10
3.347834645669291
 20
-0.5240590551181102
 30
0.0
 10
3.347834645669291
 20
-0.4967913385826772
 30
0.0
 10
3.325531496062992
 20
-0.474488188976378
 30
0.0
 10
3.298263779527559
 20
-0.474488188976378
 30
0.0
  0
SPLINE
  5
5E
330
1F
100
AcDbEntity
  8
HOLES
 62
   250
370
     9
100
AcDbSpline
210
0.0
220
0.0
230
1.0
 70
    11
 71
     3
 72
    36
 73
    32
 74
     0
 42
0.0000000001
 43
0.0000000001
 40
0.0
 40
0.0
 40
0.0
 40
0.0
 40
0.1111111111111111
 40
0.1111111111111111
 40
0.1111111111111111
 40
0.1111111111111111
 40
0.2222222222222222
 40
0.2222222222222222
 40
0.2222222222222222
 40
0.2222222222222222
 40
0.3333333333333333
 40
0.3333333333333333
 40
0.3333333333333333
 40
0.3333333333333333
 40
0.4444444444444444
 40
0.4444444444444444
 40
0.4444444444444444
 40
0.4444444444444444
 40
0.5555555555555556
 40
0.5555555555555556
 40
0.5555555555555556
 40
0.5555555555555556
 40
0.6666666666666666
 40
0.6666666666666666
 40
0.6666666666666666
 40
0.6666666666666666
 40
0.7777777777777778
 40
0.7777777777777778
 40
0.7777777777777778
 40
0.7777777777777778
 40
1.0
 40
1.0
 40
1.0
 40
1.0
 10
3.298263779527559
 20
-1.182814960629921
 30
0.0
 10
3.298263779527559
 20
-1.182814960629921
 30
0.0
 10
2.756452755905512
 20
-1.182814960629921
 30
0.0
 10
2.756452755905512
 20
-1.182814960629921
 30
0.0
 10
2.756452755905512
 20
-1.182814960629921
 30
0.0
 10
2.729185039370079
 20
-1.182814960629921
 30
0.0
 10
2.70688188976378
 20
-1.205118110236221
 30
0.0
 10
2.70688188976378
 20
-1.232385826771654
 30
0.0
 10
2.70688188976378
 20
-1.232385826771654
 30
0.0
 10
2.70688188976378
 20
-1.232385826771654
 30
0.0
 10
2.70688188976378
 20
-1.73953937007874
 30
0.0
 10
2.70688188976378
 20
-1.73953937007874
 30
0.0
 10
2.70688188976378
 20
-1.73953937007874
 30
0.0
 10
2.70688188976378
 20
-1.766811023622047
 30
0.0
 10
2.729185039370079
 20
-1.789114173228346
 30
0.0
 10
2.756452755905512
 20
-1.789114173228346
 30
0.0
 10
2.756452755905512
 20
-1.789114173228346
 30
0.0
 10
2.756452755905512
 20
-1.789114173228346
 30
0.0
 10
3.298263779527559
 20
-1.789114173228346
 30
0.0
 10
3.298263779527559
 20
-1.789114173228346
 30
0.0
 10
3.298263779527559
 20
-1.789114173228346
 30
0.0
 10
3.325531496062992
 20
-1.789114173228346
 30
0.0
 10
3.347834645669291
 20
-1.766811023622047
 30
0.0
 10
3.347834645669291
 20
-1.73953937007874
 30
0.0
 10
3.347834645669291
 20
-1.73953937007874
 30
0.0
 10
3.347834645669291
 20
-1.73953937007874
 30
0.0
 10
3.347834645669291
 20
-1.232385826771654
 30
0.0
 10
3.347834645669291
 20
-1.232385826771654
 30
0.0
 10
3.347834645669291
 20
-1.232385826771654
 30
0.0
 10
3.347834645669291
 20
-1.205118110236221
 30
0.0
 10
3.325531496062992
 20
-1.182814960629921
 30
0.0
 10
3.298263779527559
 20
-1.182814960629921
 30
0.0
  0
SPLINE
  5
5F
330
1F
100
AcDbEntity
  8
HOLES
 62
   250
370
     9
100
AcDbSpline
210
0.0
220
0.0
230
1.0
 70
    11
 71
     3
 72
    36
 73
    32
 74
     0
 42
0.0000000001
 43
0.0000000001
 40
0.0
 40
0.0
 40
0.0
 40
0.0
 40
0.1111111111111111
 40
0.1111111111111111
 40
0.1111111111111111
 40
0.1111111111111111
 40
0.2222222222222222
 40
0.2222222222222222
 40
0.2222222222222222
 40
0.2222222222222222
 40
0.3333333333333333
 40
0.3333333333333333
 40
0.3333333333333333
 40
0.3333333333333333
 40
0.4444444444444444
 40
0.4444444444444444
 40
0.4444444444444444
 40
0.4444444444444444
 40
0.5555555555555556
 40
0.5555555555555556
 40
0.5555555555555556
 40
0.5555555555555556
 40
0.6666666666666666
 40
0.6666666666666666
 40
0.6666666666666666
 40
0.6666666666666666
 40
0.7777777777777778
 40
0.7777777777777778
 40
0.7777777777777778
 40
0.7777777777777778
 40
1.0
 40
1.0
 40
1.0
 40
1.0
 10
2.504362204724409
 20
-0.1048858267716535
 30
0.0
 10
2.504362204724409
 20
-0.1048858267716535
 30
0.0
 10
2.504362204724409
 20
-0.3888937007874016
 30
0.0
 10
2.504362204724409
 20
-0.3888937007874016
 30
0.0
 10
2.504362204724409
 20
-0.3888937007874016
 30
0.0
 10
2.504362204724409
 20
-0.4028228346456693
 30
0.0
 10
2.515751968503937
 20
-0.4142125984251969
 30
0.0
 10
2.529681102362205
 20
-0.4142125984251969
 30
0.0
 10
2.529681102362205
 20
-0.4142125984251969
 30
0.0
 10
2.529681102362205
 20
-0.4142125984251969
 30
0.0
 10
2.616834645669291
 20
-0.4142125984251969
 30
0.0
 10
2.616834645669291
 20
-0.4142125984251969
 30
0.0
 10
2.616834645669291
 20
-0.4142125984251969
 30
0.0
 10
2.630763779527559
 20
-0.4142125984251969
 30
0.0
 10
2.642157480314961
 20
-0.4028228346456693
 30
0.0
 10
2.642157480314961
 20
-0.3888937007874016
 30
0.0
 10
2.642157480314961
 20
-0.3888937007874016
 30
0.0
 10
2.642157480314961
 20
-0.3888937007874016
 30
0.0
 10
2.642157480314961
 20
-0.1048858267716535
 30
0.0
 10
2.642157480314961
 20
-0.1048858267716535
 30
0.0
 10
2.642157480314961
 20
-0.1048858267716535
 30
0.0
 10
2.642157480314961
 20
-0.0909527559055118
 30
0.0
 10
2.630763779527559
 20
-0.0795669291338583
 30
0.0
 10
2.616834645669291
 20
-0.0795669291338583
 30
0.0
 10
2.616834645669291
 20
-0.0795669291338583
 30
0.0
 10
2.616834645669291
 20
-0.0795669291338583
 30
0.0
 10
2.529681102362205
 20
-0.0795669291338583
 30
0.0
 10
2.529681102362205
 20
-0.0795669291338583
 30
0.0
 10
2.529681102362205
 20
-0.0795669291338583
 30
0.0
 10
2.515751968503937
 20
-0.0795669291338583
 30
0.0
 10
2.504362204724409
 20
-0.0909527559055118
 30
0.0
 10
2.504362204724409
 20
-0.1048858267716535
 30
0.0
  0
SPLINE
  5
60
330
1F
100
AcDbEntity
  8
HOLES
 62
   250
370
     9
100
AcDbSpline
210
0.0
220
0.0
230
1.0
 70
    11
 71
     3
 72
    36
 73
    32
 74
     0
 42
0.0000000001
 43
0.0000000001
 40
0.0
 40
0.0
 40
0.0
 40
0.0
 40
0.1111111111111111
 40
0.1111111111111111
 40
0.1111111111111111
 40
0.1111111111111111
 40
0.2222222222222222
 40
0.2222222222222222
 40
0.2222222222222222
 40
0.2222222222222222
 40
0.3333333333333333
 40
0.3333333333333333
 40
0.3333333333333333
 40
0.3333333333333333
 40
0.4444444444444444
 40
0.4444444444444444
 40
0.4444444444444444
 40
0.4444444444444444
 40
0.5555555555555556
 40
0.5555555555555556
 40
0.5555555555555556
 40
0.5555555555555556
 40
0.6666666666666666
 40
0.6666666666666666
 40
0.6666666666666666
 40
0.6666666666666666
 40
0.7777777777777778
 40
0.7777777777777778
 40
0.7777777777777778
 40
0.7777777777777778
 40
1.0
 40
1.0
 40
1.0
 40
1.0
 10
2.412259842519685
 20
-0.8424527559055118
 30
0.0
 10
2.412259842519685
 20
-0.8424527559055118
 30
0.0
 10
2.613322834645669
 20
-0.8424527559055118
 30
0.0
 10
2.613322834645669
 20
-0.8424527559055118
 30
0.0
 10
2.613322834645669
 20
-0.8424527559055118
 30
0.0
 10
2.62515748031496
 20
-0.8424527559055118
 30
0.0
 10
2.634838582677165
 20
-0.8327716535433071
 30
0.0
 10
2.634838582677165
 20
-0.8209370078740158
 30
0.0
 10
2.634838582677165
 20
-0.8209370078740158
 30
0.0
 10
2.634838582677165
 20
-0.8209370078740158
 30
0.0
 10
2.634838582677165
 20
-0.6001889763779528
 30
0.0
 10
2.634838582677165
 20
-0.6001889763779528
 30
0.0
 10
2.634838582677165
 20
-0.6001889763779528
 30
0.0
 10
2.634838582677165
 20
-0.5883543307086614
 30
0.0
 10
2.62515748031496
 20
-0.5786732283464567
 30
0.0
 10
2.613322834645669
 20
-0.5786732283464567
 30
0.0
 10
2.613322834645669
 20
-0.5786732283464567
 30
0.0
 10
2.613322834645669
 20
-0.5786732283464567
 30
0.0
 10
2.412259842519685
 20
-0.5786732283464567
 30
0.0
 10
2.412259842519685
 20
-0.5786732283464567
 30
0.0
 10
2.412259842519685
 20
-0.5786732283464567
 30
0.0
 10
2.400425196850394
 20
-0.5786732283464567
 30
0.0
 10
2.390744094488189
 20
-0.5883543307086614
 30
0.0
 10
2.390744094488189
 20
-0.6001889763779528
 30
0.0
 10
2.390744094488189
 20
-0.6001889763779528
 30
0.0
 10
2.390744094488189
 20
-0.6001889763779528
 30
0.0
 10
2.390744094488189
 20
-0.8209370078740158
 30
0.0
 10
2.390744094488189
 20
-0.8209370078740158
 30
0.0
 10
2.390744094488189
 20
-0.8209370078740158
 30
0.0
 10
2.390744094488189
 20
-0.8327716535433071
 30
0.0
 10
2.400425196850394
 20
-0.8424527559055118
 30
0.0
 10
2.412259842519685
 20
-0.8424527559055118
 30
0.0
  0
SPLINE
  5
61
330
1F
100
AcDbEntity
  8
HOLES
 62
   250
370
     9
100
AcDbSpline
210
0.0
220
0.0
230
1.0
 70
    11
 71
     3
 72
    36
 73
    32
 74
     0
 42
0.0000000001
 43
0.0000000001
 40
0.0
 40
0.0
 40
0.0
 40
0.0
 40
0.1111111111111111
 40
0.1111111111111111
 40
0.1111111111111111
 40
0.1111111111111111
 40
0.2222222222222222
 40
0.2222222222222222
 40
0.2222222222222222
 40
0.2222222222222222
 40
0.3333333333333333
 40
0.3333333333333333
 40
0.3333333333333333
 40
0.3333333333333333
 40
0.4444444444444444
 40
0.4444444444444444
 40
0.4444444444444444
 40
0.4444444444444444
 40
0.5555555555555556
 40
0.5555555555555556
 40
0.5555555555555556
 40
0.5555555555555556
 40
0.6666666666666666
 40
0.6666666666666666
 40
0.6666666666666666
 40
0.6666666666666666
 40
0.7777777777777778
 40
0.7777777777777778
 40
0.7777777777777778
 40
0.7777777777777778
 40
1.0
 40
1.0
 40
1.0
 40
1.0
 10
2.503653543307087
 20
-2.120161417322834
 30
0.0
 10
2.503653543307087
 20
-2.120161417322834
 30
0.0
 10
2.720929133858268
 20
-2.120161417322834
 30
0.0
 10
2.720929133858268
 20
-2.120161417322834
 30
0.0
 10
2.720929133858268
 20
-2.120161417322834
 30
0.0
 10
2.733720472440945
 20
-2.120161417322834
 30
0.0
 10
2.744181102362205
 20
-2.109700787401575
 30
0.0
 10
2.744181102362205
 20
-2.096909448818898
 30
0.0
 10
2.744181102362205
 20
-2.096909448818898
 30
0.0
 10
2.744181102362205
 20
-2.096909448818898
 30
0.0
 10
2.744181102362205
 20
-1.879633858267717
 30
0.0
 10
2.744181102362205
 20
-1.879633858267717
 30
0.0
 10
2.744181102362205
 20
-1.879633858267717
 30
0.0
 10
2.744181102362205
 20
-1.866842519685039
 30
0.0
 10
2.733720472440945
 20
-1.85638188976378
 30
0.0
 10
2.720929133858268
 20
-1.85638188976378
 30
0.0
 10
2.720929133858268
 20
-1.85638188976378
 30
0.0
 10
2.720929133858268
 20
-1.85638188976378
 30
0.0
 10
2.503653543307087
 20
-1.85638188976378
 30
0.0
 10
2.503653543307087
 20
-1.85638188976378
 30
0.0
 10
2.503653543307087
 20
-1.85638188976378
 30
0.0
 10
2.490862204724409
 20
-1.85638188976378
 30
0.0
 10
2.48040157480315
 20
-1.866842519685039
 30
0.0
 10
2.48040157480315
 20
-1.879633858267717
 30
0.0
 10
2.48040157480315
 20
-1.879633858267717
 30
0.0
 10
2.48040157480315
 20
-1.879633858267717
 30
0.0
 10
2.48040157480315
 20
-2.096909448818898
 30
0.0
 10
2.48040157480315
 20
-2.096909448818898
 30
0.0
 10
2.48040157480315
 20
-2.096909448818898
 30
0.0
 10
2.48040157480315
 20
-2.109700787401575
 30
0.0
 10
2.490862204724409
 20
-2.120161417322834
 30
0.0
 10
2.503653543307087
 20
-2.120161417322834
 30
0.0
  0
ENDSEC
  0
SECTION
  2
OBJECTS
  0
DICTIONARY
  5
C
330
0
100
AcDbDictionary
281
     1
  3
ACAD_GROUP
350
D
  3
ACAD_LAYOUT
350
1A
  3
ACAD_MATERIAL
350
3B
  3
ACAD_MLEADERSTYLE
350
83
  3
ACAD_MLINESTYLE
350
17
  3
ACAD_PLOTSETTINGS
350
19
  3
ACAD_PLOTSTYLENAME
350
E
  3
ACAD_TABLESTYLE
350
82
  3
ACAD_VISUALSTYLE
350
2A
  0
DICTIONARY
  5
D
102
{ACAD_REACTORS
330
C
102
}
330
C
100
AcDbDictionary
281
     1
  0
DICTIONARY
  5
1A
102
{ACAD_REACTORS
330
C
102
}
330
C
100
AcDbDictionary
281
     1
  3
Layout1
350
1E
  3
Layout2
350
26
  3
Model
350
22
  0
DICTIONARY
  5
3B
102
{ACAD_REACTORS
330
C
102
}
330
C
100
AcDbDictionary
281
     1
  3
ByBlock
350
3D
  3
ByLayer
350
3C
  3
Global
350
3E
  0
DICTIONARY
  5
83
102
{ACAD_REACTORS
330
C
102
}
330
C
100
AcDbDictionary
281
     1
  0
DICTIONARY
  5
17
102
{ACAD_REACTORS
330
C
102
}
330
C
100
AcDbDictionary
281
     1
  3
Standard
350
18
  0
DICTIONARY
  5
19
102
{ACAD_REACTORS
330
C
102
}
330
C
100
AcDbDictionary
281
     1
  0
ACDBDICTIONARYWDFLT
  5
E
102
{ACAD_REACTORS
330
C
102
}
330
C
100
AcDbDictionary
281
     1
  3
Normal
350
F
100
AcDbDictionaryWithDefault
340
F
  0
DICTIONARY
  5
82
102
{ACAD_REACTORS
330
C
102
}
330
C
100
AcDbDictionary
281
     1
  0
DICTIONARY
  5
2A
102
{ACAD_REACTORS
330
C
102
}
330
C
100
AcDbDictionary
281
     1
  3
2dWireframe
350
2F
  3
3D Hidden
350
31
  3
3dWireframe
350
30
  3
Basic
350
32
  3
Brighten
350
36
  3
ColorChange
350
3A
  3
Conceptual
350
34
  3
Dim
350
35
  3
Facepattern
350
39
  3
Flat
350
2B
  3
FlatWithEdges
350
2C
  3
Gouraud
350
2D
  3
GouraudWithEdges
350
2E
  3
Linepattern
350
38
  3
Realistic
350
33
  3
Thicken
350
37
  0
LAYOUT
  5
1E
102
{ACAD_REACTORS
330
1A
102
}
330
1A
100
AcDbPlotSettings
  1

  2
none_device
  4

  6

 40
0.0
 41
0.0
 42
0.0
 43
0.0
 44
0.0
 45
0.0
 46
0.0
 47
0.0
 48
0.0
 49
0.0
140
0.0
141
0.0
142
1.0
143
1.0
 70
   688
 72
     0
 73
     0
 74
     5
  7

 75
    16
 76
     0
 77
     2
 78
   300
147
1.0
148
0.0
149
0.0
100
AcDbLayout
  1
Layout1
 70
     1
 71
     1
 10
0.0
 20
0.0
 11
12.0
 21
9.0
 12
0.0
 22
0.0
 32
0.0
 14
1.000000000000000E+20
 24
1.000000000000000E+20
 34
1.000000000000000E+20
 15
-1.000000000000000E+20
 25
-1.000000000000000E+20
 35
-1.000000000000000E+20
146
0.0
 13
0.0
 23
0.0
 33
0.0
 16
1.0
 26
0.0
 36
0.0
 17
0.0
 27
1.0
 37
0.0
 76
     0
330
1B
  0
LAYOUT
  5
26
102
{ACAD_REACTORS
330
1A
102
}
330
1A
100
AcDbPlotSettings
  1

  2
none_device
  4

  6

 40
0.0
 41
0.0
 42
0.0
 43
0.0
 44
0.0
 45
0.0
 46
0.0
 47
0.0
 48
0.0
 49
0.0
140
0.0
141
0.0
142
1.0
143
1.0
 70
   688
 72
     0
 73
     0
 74
     5
  7

 75
    16
 76
     0
 77
     2
 78
   300
147
1.0
148
0.0
149
0.0
100
AcDbLayout
  1
Layout2
 70
     1
 71
     2
 10
0.0
 20
0.0
 11
0.0
 21
0.0
 12
0.0
 22
0.0
 32
0.0
 14
0.0
 24
0.0
 34
0.0
 15
0.0
 25
0.0
 35
0.0
146
0.0
 13
0.0
 23
0.0
 33
0.0
 16
1.0
 26
0.0
 36
0.0
 17
0.0
 27
1.0
 37
0.0
 76
     0
330
23
  0
LAYOUT
  5
22
102
{ACAD_REACTORS
330
1A
102
}
330
1A
100
AcDbPlotSettings
  1

  2
none_device
  4

  6

 40
0.0
 41
0.0
 42
0.0
 43
0.0
 44
0.0
 45
0.0
 46
0.0
 47
0.0
 48
0.0
 49
0.0
140
0.0
141
0.0
142
1.0
143
1.0
 70
  1712
 72
     0
 73
     0
 74
     0
  7

 75
     0
 76
     0
 77
     2
 78
   300
147
1.0
148
0.0
149
0.0
100
AcDbLayout
  1
Model
 70
     1
 71
     0
 10
0.0
 20
0.0
 11
12.0
 21
9.0
 12
0.0
 22
0.0
 32
0.0
 14
-2.881232283464567
 24
-4.204838582677166
 34
0.0
 15
3.620125984251969
 25
4.529027559055118
 35
0.0
146
0.0
 13
0.0
 23
0.0
 33
0.0
 16
1.0
 26
0.0
 36
0.0
 17
0.0
 27
1.0
 37
0.0
 76
     0
330
1F
331
29
  0
MATERIAL
  5
3D
102
{ACAD_REACTORS
330
3B
102
}
330
3B
100
AcDbMaterial
  1
ByBlock
 72
     1
 94
      127
  0
MATERIAL
  5
3C
102
{ACAD_REACTORS
330
3B
102
}
330
3B
100
AcDbMaterial
  1
ByLayer
 72
     1
 94
      127
  0
MATERIAL
  5
3E
102
{ACAD_REACTORS
330
3B
102
}
330
3B
100
AcDbMaterial
  1
Global
 72
     1
 94
      127
  0
MLINESTYLE
  5
18
102
{ACAD_REACTORS
330
17
102
}
330
17
100
AcDbMlineStyle
  2
Standard
 70
     0
  3

 62
   256
 51
90.0
 52
90.0
 71
     2
 49
0.5
 62
   256
  6
BYLAYER
 49
-0.5
 62
   256
  6
BYLAYER
  0
ACDBPLACEHOLDER
  5
F
102
{ACAD_REACTORS
330
E
102
}
330
E
  0
VISUALSTYLE
  5
2F
102
{ACAD_REACTORS
330
2A
102
}
102
{ACAD_XDICTIONARY
360
6A
102
}
330
2A
100
AcDbVisualStyle
  2
2dWireframe
 70
     4
 71
     0
 72
     2
 73
     0
 90
        0
 40
-0.6
 41
-30.0
 62
     5
 63
     7
421
 16777215
 74
     1
 91
        4
 64
     7
 65
   257
 75
     1
175
     1
 42
1.0
 92
        0
 66
   257
 43
1.0
 76
     1
 77
     6
 78
     2
 67
     7
 79
     5
170
     0
171
     0
290
     0
174
     0
 93
        1
 44
0.0
173
     0
291
     0
 45
0.0
  0
VISUALSTYLE
  5
31
102
{ACAD_REACTORS
330
2A
102
}
102
{ACAD_XDICTIONARY
360
6E
102
}
330
2A
100
AcDbVisualStyle
  2
3D Hidden
 70
     6
 71
     1
 72
     2
 73
     2
 90
        0
 40
-0.6
 41
-30.0
 62
     5
 63
     7
421
 16777215
 74
     2
 91
        2
 64
     7
 65
   257
 75
     2
175
     1
 42
40.0
 92
        0
 66
   257
 43
1.0
 76
     1
 77
     6
 78
     2
 67
     7
 79
     3
170
     0
171
     0
290
     0
174
     0
 93
        1
 44
0.0
173
     0
291
     0
 45
0.0
  0
VISUALSTYLE
  5
30
102
{ACAD_REACTORS
330
2A
102
}
102
{ACAD_XDICTIONARY
360
6C
102
}
330
2A
100
AcDbVisualStyle
  2
3dWireframe
 70
     5
 71
     0
 72
     2
 73
     0
 90
        0
 40
-0.6
 41
-30.0
 62
     5
 63
     7
421
 16777215
 74
     1
 91
        4
 64
     7
 65
   257
 75
     1
175
     1
 42
1.0
 92
        0
 66
   257
 43
1.0
 76
     1
 77
     6
 78
     2
 67
     7
 79
     5
170
     0
171
     0
290
     0
174
     0
 93
        1
 44
0.0
173
     0
291
     0
 45
0.0
  0
VISUALSTYLE
  5
32
102
{ACAD_REACTORS
330
2A
102
}
102
{ACAD_XDICTIONARY
360
70
102
}
330
2A
100
AcDbVisualStyle
  2
Basic
 70
     7
 71
     1
 72
     0
 73
     1
 90
        0
 40
-0.6
 41
-30.0
 62
     5
 63
     7
421
 16777215
 74
     0
 91
        4
 64
     7
 65
   257
 75
     1
175
     1
 42
1.0
 92
        8
 66
     7
 43
1.0
 76
     1
 77
     6
 78
     2
 67
     7
 79
     5
170
     0
171
     0
290
     0
174
     0
 93
        1
 44
0.0
173
     0
291
     1
 45
0.0
  0
VISUALSTYLE
  5
36
102
{ACAD_REACTORS
330
2A
102
}
102
{ACAD_XDICTIONARY
360
78
102
}
330
2A
100
AcDbVisualStyle
  2
Brighten
 70
    12
 71
     2
 72
     2
 73
     0
 90
        0
 40
-0.6
 41
-30.0
 62
     5
 63
     7
421
 16777215
 74
     1
 91
        4
 64
     7
 65
   257
 75
     1
175
     1
 42
1.0
 92
        8
 66
     7
 43
1.0
 76
     1
 77
     6
 78
     2
 67
     7
 79
     5
170
     0
171
     0
290
     0
174
     0
 93
        1
 44
50.0
173
     0
291
     1
 45
0.0
  0
VISUALSTYLE
  5
3A
102
{ACAD_REACTORS
330
2A
102
}
102
{ACAD_XDICTIONARY
360
80
102
}
330
2A
100
AcDbVisualStyle
  2
ColorChange
 70
    16
 71
     2
 72
     2
 73
     3
 90
        0
 40
-0.6
 41
-30.0
 62
     5
 63
     8
421
  8421504
 74
     1
 91
        4
 64
     7
 65
   257
 75
     1
175
     1
 42
1.0
 92
        8
 66
     8
424
  8421504
 43
1.0
 76
     1
 77
     6
 78
     2
 67
     7
 79
     5
170
     0
171
     0
290
     0
174
     0
 93
        1
 44
0.0
173
     0
291
     1
 45
0.0
  0
VISUALSTYLE
  5
34
102
{ACAD_REACTORS
330
2A
102
}
102
{ACAD_XDICTIONARY
360
74
102
}
330
2A
100
AcDbVisualStyle
  2
Conceptual
 70
     9
 71
     3
 72
     2
 73
     0
 90
        0
 40
-0.6
 41
-30.0
 62
     5
 63
     7
421
 16777215
 74
     2
 91
        2
 64
     7
 65
   257
 75
     1
175
     1
 42
40.0
 92
        8
 66
     7
 43
1.0
 76
     1
 77
     6
 78
     2
 67
     7
 79
     3
170
     0
171
     0
290
     0
174
     0
 93
        1
 44
0.0
173
     0
291
     0
 45
0.0
  0
VISUALSTYLE
  5
35
102
{ACAD_REACTORS
330
2A
102
}
102
{ACAD_XDICTIONARY
360
76
102
}
330
2A
100
AcDbVisualStyle
  2
Dim
 70
    11
 71
     2
 72
     2
 73
     0
 90
        0
 40
-0.6
 41
-30.0
 62
     5
 63
     7
421
 16777215
 74
     1
 91
        4
 64
     7
 65
   257
 75
     1
175
     1
 42
1.0
 92
        8
 66
     7
 43
1.0
 76
     1
 77
     6
 78
     2
 67
     7
 79
     5
170
     0
171
     0
290
     0
174
     0
 93
        1
 44
-50.0
173
     0
291
     1
 45
0.0
  0
VISUALSTYLE
  5
39
102
{ACAD_REACTORS
330
2A
102
}
102
{ACAD_XDICTIONARY
360
7E
102
}
330
2A
100
AcDbVisualStyle
  2
Facepattern
 70
    15
 71
     2
 72
     2
 73
     0
 90
        0
 40
-0.6
 41
-30.0
 62
     5
 63
     7
421
 16777215
 74
     1
 91
        4
 64
     7
 65
   257
 75
     1
175
     1
 42
1.0
 92
        8
 66
     7
 43
1.0
 76
     1
 77
     6
 78
     2
 67
     7
 79
     5
170
     0
171
     0
290
     0
174
     0
 93
        1
 44
0.0
173
     0
291
     1
 45
0.0
  0
VISUALSTYLE
  5
2B
102
{ACAD_REACTORS
330
2A
102
}
102
{ACAD_XDICTIONARY
360
62
102
}
330
2A
100
AcDbVisualStyle
  2
Flat
 70
     0
 71
     2
 72
     1
 73
     1
 90
        2
 40
-0.6
 41
30.0
 62
     5
 63
     7
421
 16777215
 74
     0
 91
        4
 64
     7
 65
   257
 75
     1
175
     1
 42
1.0
 92
        8
 66
     7
 43
1.0
 76
     1
 77
     6
 78
     2
 67
     7
 79
     5
170
     0
171
     0
290
     0
174
     0
 93
       13
 44
0.0
173
     0
291
     1
 45
0.0
  0
VISUALSTYLE
  5
2C
102
{ACAD_REACTORS
330
2A
102
}
102
{ACAD_XDICTIONARY
360
64
102
}
330
2A
100
AcDbVisualStyle
  2
FlatWithEdges
 70
     1
 71
     2
 72
     1
 73
     1
 90
        2
 40
-0.6
 41
30.0
 62
     5
 63
     7
421
 16777215
 74
     1
 91
        4
 64
     7
 65
   257
 75
     1
175
     1
 42
1.0
 92
        0
 66
   257
 43
1.0
 76
     1
 77
     6
 78
     2
 67
     7
 79
     5
170
     0
171
     0
290
     0
174
     0
 93
       13
 44
0.0
173
     0
291
     1
 45
0.0
  0
VISUALSTYLE
  5
2D
102
{ACAD_REACTORS
330
2A
102
}
102
{ACAD_XDICTIONARY
360
66
102
}
330
2A
100
AcDbVisualStyle
  2
Gouraud
 70
     2
 71
     2
 72
     2
 73
     1
 90
        2
 40
-0.6
 41
30.0
 62
     5
 63
     7
421
 16777215
 74
     0
 91
        4
 64
     7
 65
   257
 75
     1
175
     1
 42
1.0
 92
        0
 66
     7
 43
1.0
 76
     1
 77
     6
 78
     2
 67
     7
 79
     5
170
     0
171
     0
290
     0
174
     0
 93
       13
 44
0.0
173
     0
291
     1
 45
0.0
  0
VISUALSTYLE
  5
2E
102
{ACAD_REACTORS
330
2A
102
}
102
{ACAD_XDICTIONARY
360
68
102
}
330
2A
100
AcDbVisualStyle
  2
GouraudWithEdges
 70
     3
 71
     2
 72
     2
 73
     1
 90
        2
 40
-0.6
 41
30.0
 62
     5
 63
     7
421
 16777215
 74
     1
 91
        4
 64
     7
 65
   257
 75
     1
175
     1
 42
1.0
 92
        0
 66
   257
 43
1.0
 76
     1
 77
     6
 78
     2
 67
     7
 79
     5
170
     0
171
     0
290
     0
174
     0
 93
       13
 44
0.0
173
     0
291
     1
 45
0.0
  0
VISUALSTYLE
  5
38
102
{ACAD_REACTORS
330
2A
102
}
102
{ACAD_XDICTIONARY
360
7C
102
}
330
2A
100
AcDbVisualStyle
  2
Linepattern
 70
    14
 71
     2
 72
     2
 73
     0
 90
        0
 40
-0.6
 41
-30.0
 62
     5
 63
     7
421
 16777215
 74
     1
 91
        4
 64
     7
 65
   257
 75
     7
175
     7
 42
1.0
 92
        8
 66
     7
 43
1.0
 76
     1
 77
     6
 78
     2
 67
     7
 79
     5
170
     0
171
     0
290
     0
174
     0
 93
        1
 44
0.0
173
     0
291
     1
 45
0.0
  0
VISUALSTYLE
  5
33
102
{ACAD_REACTORS
330
2A
102
}
102
{ACAD_XDICTIONARY
360
72
102
}
330
2A
100
AcDbVisualStyle
  2
Realistic
 70
     8
 71
     2
 72
     2
 73
     0
 90
        0
 40
-0.6
 41
-30.0
 62
     5
 63
     7
421
 16777215
 74
     1
 91
        0
 64
     7
 65
   257
 75
     1
175
     1
 42
1.0
 92
        8
 66
     8
424
  7895160
 43
1.0
 76
     1
 77
     6
 78
     2
 67
     7
 79
     5
170
     0
171
     0
290
     0
174
     0
 93
       13
 44
0.0
173
     0
291
     0
 45
0.0
  0
VISUALSTYLE
  5
37
102
{ACAD_REACTORS
330
2A
102
}
102
{ACAD_XDICTIONARY
360
7A
102
}
330
2A
100
AcDbVisualStyle
  2
Thicken
 70
    13
 71
     2
 72
     2
 73
     0
 90
        0
 40
-0.6
 41
-30.0
 62
     5
 63
     7
421
 16777215
 74
     1
 91
        4
 64
     7
 65
   257
 75
     1
175
     1
 42
1.0
 92
       12
 66
     7
 43
1.0
 76
     1
 77
     6
 78
     2
 67
     7
 79
     5
170
     0
171
     0
290
     0
174
     0
 93
        1
 44
0.0
173
     0
291
     1
 45
0.0
  0
DICTIONARY
  5
6A
330
2F
100
AcDbDictionary
280
     1
281
     1
  3
ACAD_XREC_ROUNDTRIP
360
6B
  0
DICTIONARY
  5
6E
330
31
100
AcDbDictionary
280
     1
281
     1
  3
ACAD_XREC_ROUNDTRIP
360
6F
  0
DICTIONARY
  5
6C
330
30
100
AcDbDictionary
280
     1
281
     1
  3
ACAD_XREC_ROUNDTRIP
360
6D
  0
DICTIONARY
  5
70
330
32
100
AcDbDictionary
280
     1
281
     1
  3
ACAD_XREC_ROUNDTRIP
360
71
  0
DICTIONARY
  5
78
330
36
100
AcDbDictionary
280
     1
281
     1
  3
ACAD_XREC_ROUNDTRIP
360
79
  0
DICTIONARY
  5
80
330
3A
100
AcDbDictionary
280
     1
281
     1
  3
ACAD_XREC_ROUNDTRIP
360
81
  0
DICTIONARY
  5
74
330
34
100
AcDbDictionary
280
     1
281
     1
  3
ACAD_XREC_ROUNDTRIP
360
75
  0
DICTIONARY
  5
76
330
35
100
AcDbDictionary
280
     1
281
     1
  3
ACAD_XREC_ROUNDTRIP
360
77
  0
DICTIONARY
  5
7E
330
39
100
AcDbDictionary
280
     1
281
     1
  3
ACAD_XREC_ROUNDTRIP
360
7F
  0
DICTIONARY
  5
62
330
2B
100
AcDbDictionary
280
     1
281
     1
  3
ACAD_XREC_ROUNDTRIP
360
63
  0
DICTIONARY
  5
64
330
2C
100
AcDbDictionary
280
     1
281
     1
  3
ACAD_XREC_ROUNDTRIP
360
65
  0
DICTIONARY
  5
66
330
2D
100
AcDbDictionary
280
     1
281
     1
  3
ACAD_XREC_ROUNDTRIP
360
67
  0
DICTIONARY
  5
68
330
2E
100
AcDbDictionary
280
     1
281
     1
  3
ACAD_XREC_ROUNDTRIP
360
69
  0
DICTIONARY
  5
7C
330
38
100
AcDbDictionary
280
     1
281
     1
  3
ACAD_XREC_ROUNDTRIP
360
7D
  0
DICTIONARY
  5
72
330
33
100
AcDbDictionary
280
     1
281
     1
  3
ACAD_XREC_ROUNDTRIP
360
73
  0
DICTIONARY
  5
7A
330
37
100
AcDbDictionary
280
     1
281
     1
  3
ACAD_XREC_ROUNDTRIP
360
7B
  0
XRECORD
  5
6B
102
{ACAD_REACTORS
330
6A
102
}
330
6A
100
AcDbXrecord
280
     1
102
RTVSPropertyOp0
 70
     1
102
RTVSPropertyOp1
 70
     1
102
RTVSPropertyOp2
 70
     1
102
RTVSPropertyOp3
 70
     1
102
RTVSPropertyOp4
 70
     1
102
RTVSPropertyOp5
 70
     1
102
RTVSPropertyOp6
 70
     1
102
RTVSPropertyOp7
 70
     1
102
RTVSPropertyOp8
 70
     1
102
RTVSPropertyOp9
 70
     1
102
RTVSPropertyOp10
 70
     1
102
RTVSPropertyOp11
 70
     1
102
RTVSPropertyOp12
 70
     1
102
RTVSPropertyOp13
 70
     1
102
RTVSPropertyOp14
 70
     1
102
RTVSPropertyOp15
 70
     1
102
RTVSPropertyOp16
 70
     1
102
RTVSPropertyOp17
 70
     1
102
RTVSPropertyOp18
 70
     1
102
RTVSPropertyOp19
 70
     1
102
RTVSPropertyOp20
 70
     1
102
RTVSPropertyOp21
 70
     1
102
RTVSPropertyOp22
 70
     1
102
RTVSPropertyOp23
 70
     1
102
RTVSPropertyOp24
 70
     1
102
RTVSPropertyOp25
 70
     1
102
RTVSPropertyOp26
 70
     1
102
RTVSPropertyOp27
 70
     1
  0
XRECORD
  5
6F
102
{ACAD_REACTORS
330
6E
102
}
330
6E
100
AcDbXrecord
280
     1
102
RTVSPropertyOp0
 70
     1
102
RTVSPropertyOp1
 70
     1
102
RTVSPropertyOp2
 70
     1
102
RTVSPropertyOp3
 70
     1
102
RTVSPropertyOp4
 70
     1
102
RTVSPropertyOp5
 70
     1
102
RTVSPropertyOp6
 70
     1
102
RTVSPropertyOp7
 70
     1
102
RTVSPropertyOp8
 70
     1
102
RTVSPropertyOp9
 70
     1
102
RTVSPropertyOp10
 70
     1
102
RTVSPropertyOp11
 70
     1
102
RTVSPropertyOp12
 70
     1
102
RTVSPropertyOp13
 70
     1
102
RTVSPropertyOp14
 70
     1
102
RTVSPropertyOp15
 70
     1
102
RTVSPropertyOp16
 70
     1
102
RTVSPropertyOp17
 70
     1
102
RTVSPropertyOp18
 70
     1
102
RTVSPropertyOp19
 70
     1
102
RTVSPropertyOp20
 70
     1
102
RTVSPropertyOp21
 70
     1
102
RTVSPropertyOp22
 70
     1
102
RTVSPropertyOp23
 70
     1
102
RTVSPropertyOp24
 70
     1
102
RTVSPropertyOp25
 70
     1
102
RTVSPropertyOp26
 70
     1
102
RTVSPropertyOp27
 70
     1
  0
XRECORD
  5
6D
102
{ACAD_REACTORS
330
6C
102
}
330
6C
100
AcDbXrecord
280
     1
102
RTVSPropertyOp0
 70
     1
102
RTVSPropertyOp1
 70
     1
102
RTVSPropertyOp2
 70
     1
102
RTVSPropertyOp3
 70
     1
102
RTVSPropertyOp4
 70
     1
102
RTVSPropertyOp5
 70
     1
102
RTVSPropertyOp6
 70
     1
102
RTVSPropertyOp7
 70
     1
102
RTVSPropertyOp8
 70
     1
102
RTVSPropertyOp9
 70
     1
102
RTVSPropertyOp10
 70
     1
102
RTVSPropertyOp11
 70
     1
102
RTVSPropertyOp12
 70
     1
102
RTVSPropertyOp13
 70
     1
102
RTVSPropertyOp14
 70
     1
102
RTVSPropertyOp15
 70
     1
102
RTVSPropertyOp16
 70
     1
102
RTVSPropertyOp17
 70
     1
102
RTVSPropertyOp18
 70
     1
102
RTVSPropertyOp19
 70
     1
102
RTVSPropertyOp20
 70
     1
102
RTVSPropertyOp21
 70
     1
102
RTVSPropertyOp22
 70
     1
102
RTVSPropertyOp23
 70
     1
102
RTVSPropertyOp24
 70
     1
102
RTVSPropertyOp25
 70
     1
102
RTVSPropertyOp26
 70
     1
102
RTVSPropertyOp27
 70
     1
  0
XRECORD
  5
71
102
{ACAD_REACTORS
330
70
102
}
330
70
100
AcDbXrecord
280
     1
102
RTVSPropertyOp0
 70
     1
102
RTVSPropertyOp1
 70
     1
102
RTVSPropertyOp2
 70
     1
102
RTVSPropertyOp3
 70
     1
102
RTVSPropertyOp4
 70
     1
102
RTVSPropertyOp5
 70
     1
102
RTVSPropertyOp6
 70
     1
102
RTVSPropertyOp7
 70
     1
102
RTVSPropertyOp8
 70
     1
102
RTVSPropertyOp9
 70
     1
102
RTVSPropertyOp10
 70
     1
102
RTVSPropertyOp11
 70
     1
102
RTVSPropertyOp12
 70
     1
102
RTVSPropertyOp13
 70
     1
102
RTVSPropertyOp14
 70
     1
102
RTVSPropertyOp15
 70
     1
102
RTVSPropertyOp16
 70
     1
102
RTVSPropertyOp17
 70
     1
102
RTVSPropertyOp18
 70
     1
102
RTVSPropertyOp19
 70
     1
102
RTVSPropertyOp20
 70
     1
102
RTVSPropertyOp21
 70
     1
102
RTVSPropertyOp22
 70
     1
102
RTVSPropertyOp23
 70
     1
102
RTVSPropertyOp24
 70
     1
102
RTVSPropertyOp25
 70
     1
102
RTVSPropertyOp26
 70
     1
102
RTVSPropertyOp27
 70
     1
  0
XRECORD
  5
79
102
{ACAD_REACTORS
330
78
102
}
330
78
100
AcDbXrecord
280
     1
102
RTVSPropertyOp0
 70
     1
102
RTVSPropertyOp1
 70
     1
102
RTVSPropertyOp2
 70
     1
102
RTVSPropertyOp3
 70
     1
102
RTVSPropertyOp4
 70
     1
102
RTVSPropertyOp5
 70
     1
102
RTVSPropertyOp6
 70
     1
102
RTVSPropertyOp7
 70
     1
102
RTVSPropertyOp8
 70
     1
102
RTVSPropertyOp9
 70
     1
102
RTVSPropertyOp10
 70
     1
102
RTVSPropertyOp11
 70
     1
102
RTVSPropertyOp12
 70
     1
102
RTVSPropertyOp13
 70
     1
102
RTVSPropertyOp14
 70
     1
102
RTVSPropertyOp15
 70
     1
102
RTVSPropertyOp16
 70
     1
102
RTVSPropertyOp17
 70
     1
102
RTVSPropertyOp18
 70
     1
102
RTVSPropertyOp19
 70
     1
102
RTVSPropertyOp20
 70
     1
102
RTVSPropertyOp21
 70
     1
102
RTVSPropertyOp22
 70
     1
102
RTVSPropertyOp23
 70
     1
102
RTVSPropertyOp24
 70
     1
102
RTVSPropertyOp25
 70
     1
102
RTVSPropertyOp26
 70
     1
102
RTVSPropertyOp27
 70
     1
  0
XRECORD
  5
81
102
{ACAD_REACTORS
330
80
102
}
330
80
100
AcDbXrecord
280
     1
102
RTVSPropertyOp0
 70
     1
102
RTVSPropertyOp1
 70
     1
102
RTVSPropertyOp2
 70
     1
102
RTVSPropertyOp3
 70
     1
102
RTVSPropertyOp4
 70
     1
102
RTVSPropertyOp5
 70
     1
102
RTVSPropertyOp6
 70
     1
102
RTVSPropertyOp7
 70
     1
102
RTVSPropertyOp8
 70
     1
102
RTVSPropertyOp9
 70
     1
102
RTVSPropertyOp10
 70
     1
102
RTVSPropertyOp11
 70
     1
102
RTVSPropertyOp12
 70
     1
102
RTVSPropertyOp13
 70
     1
102
RTVSPropertyOp14
 70
     1
102
RTVSPropertyOp15
 70
     1
102
RTVSPropertyOp16
 70
     1
102
RTVSPropertyOp17
 70
     1
102
RTVSPropertyOp18
 70
     1
102
RTVSPropertyOp19
 70
     1
102
RTVSPropertyOp20
 70
     1
102
RTVSPropertyOp21
 70
     1
102
RTVSPropertyOp22
 70
     1
102
RTVSPropertyOp23
 70
     1
102
RTVSPropertyOp24
 70
     1
102
RTVSPropertyOp25
 70
     1
102
RTVSPropertyOp26
 70
     1
102
RTVSPropertyOp27
 70
     1
  0
XRECORD
  5
75
102
{ACAD_REACTORS
330
74
102
}
330
74
100
AcDbXrecord
280
     1
102
RTVSPropertyOp0
 70
     1
102
RTVSPropertyOp1
 70
     1
102
RTVSPropertyOp2
 70
     1
102
RTVSPropertyOp3
 70
     1
102
RTVSPropertyOp4
 70
     1
102
RTVSPropertyOp5
 70
     1
102
RTVSPropertyOp6
 70
     1
102
RTVSPropertyOp7
 70
     1
102
RTVSPropertyOp8
 70
     1
102
RTVSPropertyOp9
 70
     1
102
RTVSPropertyOp10
 70
     1
102
RTVSPropertyOp11
 70
     1
102
RTVSPropertyOp12
 70
     1
102
RTVSPropertyOp13
 70
     1
102
RTVSPropertyOp14
 70
     1
102
RTVSPropertyOp15
 70
     1
102
RTVSPropertyOp16
 70
     1
102
RTVSPropertyOp17
 70
     1
102
RTVSPropertyOp18
 70
     1
102
RTVSPropertyOp19
 70
     1
102
RTVSPropertyOp20
 70
     1
102
RTVSPropertyOp21
 70
     1
102
RTVSPropertyOp22
 70
     1
102
RTVSPropertyOp23
 70
     1
102
RTVSPropertyOp24
 70
     1
102
RTVSPropertyOp25
 70
     1
102
RTVSPropertyOp26
 70
     1
102
RTVSPropertyOp27
 70
     1
  0
XRECORD
  5
77
102
{ACAD_REACTORS
330
76
102
}
330
76
100
AcDbXrecord
280
     1
102
RTVSPropertyOp0
 70
     1
102
RTVSPropertyOp1
 70
     1
102
RTVSPropertyOp2
 70
     1
102
RTVSPropertyOp3
 70
     1
102
RTVSPropertyOp4
 70
     1
102
RTVSPropertyOp5
 70
     1
102
RTVSPropertyOp6
 70
     1
102
RTVSPropertyOp7
 70
     1
102
RTVSPropertyOp8
 70
     1
102
RTVSPropertyOp9
 70
     1
102
RTVSPropertyOp10
 70
     1
102
RTVSPropertyOp11
 70
     1
102
RTVSPropertyOp12
 70
     1
102
RTVSPropertyOp13
 70
     1
102
RTVSPropertyOp14
 70
     1
102
RTVSPropertyOp15
 70
     1
102
RTVSPropertyOp16
 70
     1
102
RTVSPropertyOp17
 70
     1
102
RTVSPropertyOp18
 70
     1
102
RTVSPropertyOp19
 70
     1
102
RTVSPropertyOp20
 70
     1
102
RTVSPropertyOp21
 70
     1
102
RTVSPropertyOp22
 70
     1
102
RTVSPropertyOp23
 70
     1
102
RTVSPropertyOp24
 70
     1
102
RTVSPropertyOp25
 70
     1
102
RTVSPropertyOp26
 70
     1
102
RTVSPropertyOp27
 70
     1
  0
XRECORD
  5
7F
102
{ACAD_REACTORS
330
7E
102
}
330
7E
100
AcDbXrecord
280
     1
102
RTVSPropertyOp0
 70
     1
102
RTVSPropertyOp1
 70
     1
102
RTVSPropertyOp2
 70
     1
102
RTVSPropertyOp3
 70
     1
102
RTVSPropertyOp4
 70
     1
102
RTVSPropertyOp5
 70
     1
102
RTVSPropertyOp6
 70
     1
102
RTVSPropertyOp7
 70
     1
102
RTVSPropertyOp8
 70
     1
102
RTVSPropertyOp9
 70
     1
102
RTVSPropertyOp10
 70
     1
102
RTVSPropertyOp11
 70
     1
102
RTVSPropertyOp12
 70
     1
102
RTVSPropertyOp13
 70
     1
102
RTVSPropertyOp14
 70
     1
102
RTVSPropertyOp15
 70
     1
102
RTVSPropertyOp16
 70
     1
102
RTVSPropertyOp17
 70
     1
102
RTVSPropertyOp18
 70
     1
102
RTVSPropertyOp19
 70
     1
102
RTVSPropertyOp20
 70
     1
102
RTVSPropertyOp21
 70
     1
102
RTVSPropertyOp22
 70
     1
102
RTVSPropertyOp23
 70
     1
102
RTVSPropertyOp24
 70
     1
102
RTVSPropertyOp25
 70
     1
102
RTVSPropertyOp26
 70
     1
102
RTVSPropertyOp27
 70
     1
  0
XRECORD
  5
63
102
{ACAD_REACTORS
330
62
102
}
330
62
100
AcDbXrecord
280
     1
102
RTVSPropertyOp0
 70
     1
102
RTVSPropertyOp1
 70
     1
102
RTVSPropertyOp2
 70
     1
102
RTVSPropertyOp3
 70
     1
102
RTVSPropertyOp4
 70
     1
102
RTVSPropertyOp5
 70
     1
102
RTVSPropertyOp6
 70
     1
102
RTVSPropertyOp7
 70
     1
102
RTVSPropertyOp8
 70
     1
102
RTVSPropertyOp9
 70
     1
102
RTVSPropertyOp10
 70
     1
102
RTVSPropertyOp11
 70
     1
102
RTVSPropertyOp12
 70
     1
102
RTVSPropertyOp13
 70
     1
102
RTVSPropertyOp14
 70
     1
102
RTVSPropertyOp15
 70
     1
102
RTVSPropertyOp16
 70
     1
102
RTVSPropertyOp17
 70
     1
102
RTVSPropertyOp18
 70
     1
102
RTVSPropertyOp19
 70
     1
102
RTVSPropertyOp20
 70
     1
102
RTVSPropertyOp21
 70
     1
102
RTVSPropertyOp22
 70
     1
102
RTVSPropertyOp23
 70
     1
102
RTVSPropertyOp24
 70
     1
102
RTVSPropertyOp25
 70
     1
102
RTVSPropertyOp26
 70
     1
102
RTVSPropertyOp27
 70
     1
  0
XRECORD
  5
65
102
{ACAD_REACTORS
330
64
102
}
330
64
100
AcDbXrecord
280
     1
102
RTVSPropertyOp0
 70
     1
102
RTVSPropertyOp1
 70
     1
102
RTVSPropertyOp2
 70
     1
102
RTVSPropertyOp3
 70
     1
102
RTVSPropertyOp4
 70
     1
102
RTVSPropertyOp5
 70
     1
102
RTVSPropertyOp6
 70
     1
102
RTVSPropertyOp7
 70
     1
102
RTVSPropertyOp8
 70
     1
102
RTVSPropertyOp9
 70
     1
102
RTVSPropertyOp10
 70
     1
102
RTVSPropertyOp11
 70
     1
102
RTVSPropertyOp12
 70
     1
102
RTVSPropertyOp13
 70
     1
102
RTVSPropertyOp14
 70
     1
102
RTVSPropertyOp15
 70
     1
102
RTVSPropertyOp16
 70
     1
102
RTVSPropertyOp17
 70
     1
102
RTVSPropertyOp18
 70
     1
102
RTVSPropertyOp19
 70
     1
102
RTVSPropertyOp20
 70
     1
102
RTVSPropertyOp21
 70
     1
102
RTVSPropertyOp22
 70
     1
102
RTVSPropertyOp23
 70
     1
102
RTVSPropertyOp24
 70
     1
102
RTVSPropertyOp25
 70
     1
102
RTVSPropertyOp26
 70
     1
102
RTVSPropertyOp27
 70
     1
  0
XRECORD
  5
67
102
{ACAD_REACTORS
330
66
102
}
330
66
100
AcDbXrecord
280
     1
102
RTVSPropertyOp0
 70
     1
102
RTVSPropertyOp1
 70
     1
102
RTVSPropertyOp2
 70
     1
102
RTVSPropertyOp3
 70
     1
102
RTVSPropertyOp4
 70
     1
102
RTVSPropertyOp5
 70
     1
102
RTVSPropertyOp6
 70
     1
102
RTVSPropertyOp7
 70
     1
102
RTVSPropertyOp8
 70
     1
102
RTVSPropertyOp9
 70
     1
102
RTVSPropertyOp10
 70
     1
102
RTVSPropertyOp11
 70
     1
102
RTVSPropertyOp12
 70
     1
102
RTVSPropertyOp13
 70
     1
102
RTVSPropertyOp14
 70
     1
102
RTVSPropertyOp15
 70
     1
102
RTVSPropertyOp16
 70
     1
102
RTVSPropertyOp17
 70
     1
102
RTVSPropertyOp18
 70
     1
102
RTVSPropertyOp19
 70
     1
102
RTVSPropertyOp20
 70
     1
102
RTVSPropertyOp21
 70
     1
102
RTVSPropertyOp22
 70
     1
102
RTVSPropertyOp23
 70
     1
102
RTVSPropertyOp24
 70
     1
102
RTVSPropertyOp25
 70
     1
102
RTVSPropertyOp26
 70
     1
102
RTVSPropertyOp27
 70
     1
  0
XRECORD
  5
69
102
{ACAD_REACTORS
330
68
102
}
330
68
100
AcDbXrecord
280
     1
102
RTVSPropertyOp0
 70
     1
102
RTVSPropertyOp1
 70
     1
102
RTVSPropertyOp2
 70
     1
102
RTVSPropertyOp3
 70
     1
102
RTVSPropertyOp4
 70
     1
102
RTVSPropertyOp5
 70
     1
102
RTVSPropertyOp6
 70
     1
102
RTVSPropertyOp7
 70
     1
102
RTVSPropertyOp8
 70
     1
102
RTVSPropertyOp9
 70
     1
102
RTVSPropertyOp10
 70
     1
102
RTVSPropertyOp11
 70
     1
102
RTVSPropertyOp12
 70
     1
102
RTVSPropertyOp13
 70
     1
102
RTVSPropertyOp14
 70
     1
102
RTVSPropertyOp15
 70
     1
102
RTVSPropertyOp16
 70
     1
102
RTVSPropertyOp17
 70
     1
102
RTVSPropertyOp18
 70
     1
102
RTVSPropertyOp19
 70
     1
102
RTVSPropertyOp20
 70
     1
102
RTVSPropertyOp21
 70
     1
102
RTVSPropertyOp22
 70
     1
102
RTVSPropertyOp23
 70
     1
102
RTVSPropertyOp24
 70
     1
102
RTVSPropertyOp25
 70
     1
102
RTVSPropertyOp26
 70
     1
102
RTVSPropertyOp27
 70
     1
  0
XRECORD
  5
7D
102
{ACAD_REACTORS
330
7C
102
}
330
7C
100
AcDbXrecord
280
     1
102
RTVSPropertyOp0
 70
     1
102
RTVSPropertyOp1
 70
     1
102
RTVSPropertyOp2
 70
     1
102
RTVSPropertyOp3
 70
     1
102
RTVSPropertyOp4
 70
     1
102
RTVSPropertyOp5
 70
     1
102
RTVSPropertyOp6
 70
     1
102
RTVSPropertyOp7
 70
     1
102
RTVSPropertyOp8
 70
     1
102
RTVSPropertyOp9
 70
     1
102
RTVSPropertyOp10
 70
     1
102
RTVSPropertyOp11
 70
     1
102
RTVSPropertyOp12
 70
     1
102
RTVSPropertyOp13
 70
     1
102
RTVSPropertyOp14
 70
     1
102
RTVSPropertyOp15
 70
     1
102
RTVSPropertyOp16
 70
     1
102
RTVSPropertyOp17
 70
     1
102
RTVSPropertyOp18
 70
     1
102
RTVSPropertyOp19
 70
     1
102
RTVSPropertyOp20
 70
     1
102
RTVSPropertyOp21
 70
     1
102
RTVSPropertyOp22
 70
     1
102
RTVSPropertyOp23
 70
     1
102
RTVSPropertyOp24
 70
     1
102
RTVSPropertyOp25
 70
     1
102
RTVSPropertyOp26
 70
     1
102
RTVSPropertyOp27
 70
     1
  0
XRECORD
  5
73
102
{ACAD_REACTORS
330
72
102
}
330
72
100
AcDbXrecord
280
     1
102
RTVSPropertyOp0
 70
     1
102
RTVSPropertyOp1
 70
     1
102
RTVSPropertyOp2
 70
     1
102
RTVSPropertyOp3
 70
     1
102
RTVSPropertyOp4
 70
     1
102
RTVSPropertyOp5
 70
     1
102
RTVSPropertyOp6
 70
     1
102
RTVSPropertyOp7
 70
     1
102
RTVSPropertyOp8
 70
     1
102
RTVSPropertyOp9
 70
     1
102
RTVSPropertyOp10
 70
     1
102
RTVSPropertyOp11
 70
     1
102
RTVSPropertyOp12
 70
     1
102
RTVSPropertyOp13
 70
     1
102
RTVSPropertyOp14
 70
     1
102
RTVSPropertyOp15
 70
     1
102
RTVSPropertyOp16
 70
     1
102
RTVSPropertyOp17
 70
     1
102
RTVSPropertyOp18
 70
     1
102
RTVSPropertyOp19
 70
     1
102
RTVSPropertyOp20
 70
     1
102
RTVSPropertyOp21
 70
     1
102
RTVSPropertyOp22
 70
     1
102
RTVSPropertyOp23
 70
     1
102
RTVSPropertyOp24
 70
     1
102
RTVSPropertyOp25
 70
     1
102
RTVSPropertyOp26
 70
     1
102
RTVSPropertyOp27
 70
     1
  0
XRECORD
  5
7B
102
{ACAD_REACTORS
330
7A
102
}
330
7A
100
AcDbXrecord
280
     1
102
RTVSPropertyOp0
 70
     1
102
RTVSPropertyOp1
 70
     1
102
RTVSPropertyOp2
 70
     1
102
RTVSPropertyOp3
 70
     1
102
RTVSPropertyOp4
 70
     1
102
RTVSPropertyOp5
 70
     1
102
RTVSPropertyOp6
 70
     1
102
RTVSPropertyOp7
 70
     1
102
RTVSPropertyOp8
 70
     1
102
RTVSPropertyOp9
 70
     1
102
RTVSPropertyOp10
 70
     1
102
RTVSPropertyOp11
 70
     1
102
RTVSPropertyOp12
 70
     1
102
RTVSPropertyOp13
 70
     1
102
RTVSPropertyOp14
 70
     1
102
RTVSPropertyOp15
 70
     1
102
RTVSPropertyOp16
 70
     1
102
RTVSPropertyOp17
 70
     1
102
RTVSPropertyOp18
 70
     1
102
RTVSPropertyOp19
 70
     1
102
RTVSPropertyOp20
 70
     1
102
RTVSPropertyOp21
 70
     1
102
RTVSPropertyOp22
 70
     1
102
RTVSPropertyOp23
 70
     1
102
RTVSPropertyOp24
 70
     1
102
RTVSPropertyOp25
 70
     1
102
RTVSPropertyOp26
 70
     1
102
RTVSPropertyOp27
 70
     1
  0
ENDSEC
  0
EOF
